<?xml version="1.0" encoding="utf-8"?>
<!-- Generator: Adobe Illustrator 25.4.1, SVG Export Plug-In . SVG Version: 6.00 Build 0)  -->
<svg version="1.1" id="Calque_1" xmlns="http://www.w3.org/2000/svg" xmlns:xlink="http://www.w3.org/1999/xlink" x="0px" y="0px"
	 viewBox="0 0 1920 1080" style="enable-background:new 0 0 1920 1080;" xml:space="preserve">
<style type="text/css">
	.st0{display:none;}
	.st1{display:inline;}
	.st2{fill:#FFFFFF;}
	.st3{fill:#C48F03;}
	.st4{display:inline;fill:#FFFFFF;}
</style>
<g id="TYPO" class="st0">
	<g class="st1">
		<path d="M264.4,342.5c-21.9,0-42,5.7-60.6,17c-18.5,11.3-35.4,26.1-50.6,44.5c-15.2,18.3-28.7,39.1-40.4,62.3
			c-11.7,23.2-21.5,46.8-29.3,70.8S69.7,584.4,65.7,607c-4.1,22.6-6.1,42.3-6.1,59.1c0,12.1,1.4,23.8,4.1,35.1s7.6,21.2,14.6,29.5
			c7,8.4,16.5,15.1,28.4,20.2c11.9,5.1,27,7.6,45.3,7.6c23,0,44-5.9,62.9-17.6c18.9-11.7,35.9-26.9,50.9-45.6
			c15-18.7,28.2-39.8,39.5-63.2s20.6-47,27.8-70.8c7.2-23.8,12.7-46.5,16.4-68.2c3.7-21.7,5.6-39.9,5.6-54.7
			c0-30.4-7.2-54-21.7-70.8C319,350.9,296,342.5,264.4,342.5z"/>
		<path d="M622.8,557.6c1.4-5.3,2-9.8,2-13.8c0-3.5-0.5-7.3-1.5-11.4c-1-4.1-2.7-7.9-5.3-11.4c-2.5-3.5-6-6.5-10.2-9.1
			c-4.3-2.5-9.9-3.8-17-3.8c-12.9,0-25.5,3.6-37.7,10.8c-12.3,7.2-23.8,16.7-34.5,28.4s-20.6,25.1-29.5,40.1
			c-9,15-16.7,30.2-23.1,45.6c-6.4,15.4-11.4,30.3-14.9,44.8c-3.5,14.4-5.3,27.1-5.3,38c0,12.5,2.4,22.6,7.3,30.4
			c4.9,7.8,13,11.7,24.3,11.7s22.8-3.5,34.5-10.5s22.4-15.4,32.2-25.2c9.7-9.7,18.1-19.5,25.2-29.3c7-9.7,11.5-17.4,13.5-22.8l31-86
			C618.4,571.7,621.4,562.8,622.8,557.6z"/>
		<path d="M0,0v1080h1920V0H0z M1568.9,349.8c5.3-5.3,11.8-7.9,19.6-7.9c7.8,0,14.3,2.6,19.6,7.9c5.3,5.3,7.9,11.8,7.9,19.6
			c0,7.8-2.6,14.3-7.9,19.6c-5.3,5.3-11.8,7.9-19.6,7.9c-7.8,0-14.3-2.6-19.6-7.9s-7.9-11.8-7.9-19.6
			C1561,361.6,1563.7,355.1,1568.9,349.8z M392.2,567.5c-6.4,21.3-15.4,41.5-26.9,60.9c-11.5,19.3-25.3,37.4-41.3,54.1
			c-16,16.8-33.4,31.4-52.1,43.9s-38.5,22.2-59.4,29.3c-20.9,7-42.2,10.5-64.1,10.5c-19.5,0-37.4-3.6-53.8-10.8
			s-30.4-17.8-42.1-31.9c-11.7-14-20.9-31.5-27.5-52.4s-9.9-45-9.9-72.3c0-22.2,3.5-44.3,10.5-66.1s16.5-42.6,28.4-62.3
			c11.9-19.7,26-37.8,42.4-54.4s33.8-30.9,52.4-43c18.5-12.1,37.7-21.5,57.6-28.4c19.9-6.8,39.6-10.2,59.1-10.2
			c25.4,0,46.7,5.2,64.1,15.5s31.4,23.7,42.1,40.1s18.4,34.6,23.1,54.7s7,39.9,7,59.4C401.9,525.1,398.7,546.2,392.2,567.5z
			 M620.1,754.5c7.8,0,14.8-2.2,21.1-6.7c6.2-4.5,11.6-9.6,16.1-15.2c4.5-5.7,8.2-11.3,11.1-17c2.9-5.6,5-9.7,6.1-12l7.6,4.1
			c-2,4.3-4.9,9.8-8.8,16.4c-3.9,6.6-9,13-15.2,19c-6.2,6.1-13.5,11.3-21.7,15.8s-17.8,6.7-28.7,6.7c-25.7,0-38.6-11.7-38.6-35.1
			c0-2.7,0.6-7.5,1.8-14.3s2.7-13,4.7-18.4h-1.2c-5.5,6.6-11.7,14-18.7,21.9c-7,8-14.9,15.4-23.7,22.2s-18.4,12.5-29,17
			c-10.5,4.5-22.2,6.7-35.1,6.7c-8.2,0-16.1-1.5-23.7-4.4s-14.3-7.4-20.2-13.5c-5.9-6-10.4-13.8-13.8-23.1c-3.3-9.4-5-20.5-5-33.4
			c0-15.6,3.1-31.2,9.4-46.8c6.2-15.6,14.3-30.5,24.3-44.8c9.9-14.2,21.4-27.4,34.5-39.5s26.3-22.6,39.8-31.6s26.7-16,39.8-21.1
			s24.7-7.6,34.8-7.6c11.7,0,21.7,3.3,29.8,9.9c8.2,6.6,12.3,15.4,12.3,26.3h1.2l9.9-28.7h41l-63.8,177.3
			c-3.5,10.1-6.5,19.9-9.1,29.3c-2.5,9.4-3.8,17.8-3.8,25.2C605.5,749.4,610.4,754.5,620.1,754.5z M939,744.2
			c-5.5,6.1-11.9,11.1-19.3,15.2c-7.4,4.1-16.2,6.1-26.3,6.1c-10.9,0-19.9-2.6-26.9-7.9c-7-5.3-12.5-16.5-16.4-33.6l-15.8-73.1
			c-1.2-6.2-2.4-12.2-3.8-17.8c-1.4-5.6-3.3-10.6-5.9-14.9c-2.5-4.3-6-7.7-10.2-10.2c-4.3-2.5-10-3.8-17-3.8h-12.9l-55,154.5h-40.4
			L844.8,322h-52.1l2.3-8.2h93.6L788,595.8h12.3c13.7,0,26.3-5.3,38-15.8s22.4-22.6,32.2-36.3c21.8-29.3,43.1-43.9,63.8-43.9
			c8.6,0,15.7,2.4,21.4,7.3c5.6,4.9,8.5,13.2,8.5,24.9c0,9-2.3,15.9-7,20.8c-4.7,4.9-10.5,7.3-17.6,7.3c-14,0-21.1-5.3-21.1-15.8
			c0-5.1,0.8-8.7,2.3-10.8c1.6-2.1,2.3-5.2,2.3-9.1c0-4.7-3.1-7-9.4-7c-4.7,0-9.7,2.6-14.9,7.9c-5.3,5.3-11.6,12.4-19,21.4
			l-14.6,17.6c-7.4,9.4-14.7,17.1-21.9,23.1c-7.2,6.1-13.2,9.9-17.8,11.4v1.8c4.3,0.8,8.9,1.7,13.8,2.6c4.9,1,9.6,3,14,6.1
			c4.5,3.1,8.7,7.6,12.6,13.5c3.9,5.9,6.8,14,8.8,24.6l15.2,77.8c1.6,7.4,3.7,14.1,6.4,20.2c2.7,6.1,7.2,9.1,13.5,9.1
			c5.5,0,10.6-2.1,15.5-6.4c4.9-4.3,9.3-9.4,13.2-15.2c3.9-5.9,7.2-11.7,9.9-17.6c2.7-5.9,4.7-10.3,5.9-13.5l8.2,2.3
			c-2.7,6.2-6,13-9.7,20.2C949.1,731.5,944.5,738.2,939,744.2z M1381.4,758.6H1200l2.3-8.2h60.9l72.6-200.7h-188.4l-72.6,200.7h67.3
			l-2.3,8.2H960.1l2.3-8.2h59.7l143.4-400.2h-66.7l2.3-8.2h180.8l-2.3,8.2h-60.9l-68.5,191.3h188.4l69-191.3h-67.3l2.3-8.2H1523
			l-2.3,8.2h-60.3l-143.9,400.2h67.3L1381.4,758.6z M1561.9,722.6c-3.3,6.4-7.9,12.9-13.8,19.3s-13.1,12-21.7,16.7s-18.7,7-30.4,7
			c-12.9,0-23.1-2.6-30.7-7.9c-7.6-5.3-11.4-14.1-11.4-26.6c0-6.6,1.2-13.9,3.5-21.9s4.7-15.3,7-21.9l60.3-171.4h-52.1l2.3-8.2h93
			l-69,198.4c-2,5.9-3.9,11.8-5.9,17.8c-2,6.1-2.9,11.8-2.9,17.3c0,4.7,1.4,8.7,4.1,12s6.8,5,12.3,5c6.2,0,12.4-2.1,18.4-6.4
			c6-4.3,11.6-9.3,16.7-14.9c5.1-5.6,9.4-11.4,12.9-17.3c3.5-5.9,6-10.5,7.6-14l7,2.9C1567.7,711.4,1565.2,716.1,1561.9,722.6z
			 M1695.3,722.6c-3.3,6.4-7.9,12.9-13.7,19.3c-5.9,6.4-13.1,12-21.7,16.7s-18.7,7-30.4,7c-12.9,0-23.1-2.6-30.7-7.9
			c-7.6-5.3-11.4-14.1-11.4-26.6c0-6.6,1.2-13.9,3.5-21.9s4.7-15.3,7-21.9L1728.4,322h-52.1l2.3-8.2h93l-139.3,392
			c-2,5.9-3.9,11.8-5.8,17.8c-2,6.1-2.9,11.8-2.9,17.3c0,4.7,1.4,8.7,4.1,12s6.8,5,12.3,5c6.2,0,12.4-2.1,18.4-6.4
			c6-4.3,11.6-9.3,16.7-14.9c5.1-5.6,9.4-11.4,12.9-17.3c3.5-5.9,6-10.5,7.6-14l7,2.9C1701.1,711.4,1698.6,716.1,1695.3,722.6z
			 M1761.2,753c2.7,3.3,6.8,5,12.3,5c6.2,0,12.4-2.1,18.4-6.4c6-4.3,11.6-9.3,16.7-14.9c5.1-5.6,9.4-11.4,12.9-17.3
			c3.5-5.9,6-10.5,7.6-14l7,2.9c-1.6,3.1-4,7.9-7.3,14.3c-3.3,6.4-7.9,12.9-13.8,19.3c-5.9,6.4-13.1,12-21.7,16.7s-18.7,7-30.4,7
			c-12.9,0-23.1-2.6-30.7-7.9c-7.6-5.3-11.4-14.1-11.4-26.6c0-6.6,1.2-13.9,3.5-21.9s4.7-15.3,7-21.9L1861.8,322h-52.1l2.3-8.2h93
			l-139.3,392c-2,5.9-3.9,11.8-5.9,17.8c-2,6.1-2.9,11.8-2.9,17.3C1757.1,745.7,1758.4,749.7,1761.2,753z"/>
	</g>
</g>
<path class="st2" d="M1601,595.4h54.7c35.9,0,65-29.1,65-65c0-3.5-0.4-7-0.9-10.3c-5,31-31.7,54.7-64.1,54.7H1601
	c-35.9,0-65,29.1-65,65c0,3.5,0.4,6.9,0.9,10.3C1541.9,619.1,1568.6,595.4,1601,595.4z"/>
<path class="st2" d="M1579.3,761.5c-12.6-37.7-8.4-77,8.5-109.8c-34.4,31.8-49.1,81.9-33.4,129.3c21.4,64.5,91.1,99.4,155.6,78
	c0.1,0,0.2-0.1,0.3-0.1C1652.2,857.3,1598.7,819.9,1579.3,761.5z"/>
<path class="st3" d="M1836.3,704.8c-3.5-3-3.1-5.3-2.9-6.1c0.6-3.2-0.1-6.4-1.9-9c-1.2-1.8-2.5-3.4-3.8-4.9
	c-3.5-4.2-6.5-7.9-5.6-13.4v-0.1c1.2-4.5,0.3-9.2-2.2-13c-1.9-2.7-4.5-4.7-7.8-6c-0.7-0.3-3.7-1.3-14.3-2.1
	c-0.5-0.1-1.1-0.2-1.9-0.2c-3.6,0-6.2-1-7.7-3.1c-2.3-3.1-2.2-8.4,0.1-16.6l0.2-0.6c1.5-4.2,0.9-8.9-1.6-12.6
	c-4.4-6.4-13.1-8-19.5-3.7c-5,3.5-9,4.8-12.2,4.1c-3.9-0.8-6.2-4.7-8.6-8.8c-0.8-1.3-1.6-2.7-2.5-4c-3.1-4.4-8.3-6.7-13.8-5.9
	c-0.1,0-0.2,0-0.6,0.1c-11.2,1.4-35.7,15.1-45.7,21c-8.4,4.2-10.7,0.2-13.2-3.9c-0.4-0.7-0.8-1.4-1.3-2.1c-1.8-2.6-4.6-4.4-7.7-5
	c-3.2-0.6-6.4,0.1-9,1.9c-18.4,12.6-36.9,25.1-55.4,37.7c45.8-13.8,94.8-10.8,138.3,8.6l-0.1,0.3c-41.8-15.4-88.1-16.2-130.7-2.3
	c16.4-1.6,29.1,3.4,36.7,14.5c4.4,6.4,13.1,8,19.5,3.7c4-2.8,8.3-3.2,12.4-1.4c7.6,3.4,13.4,14,15.4,27.7v0.1c0.3,2.6,1.2,5,2.6,7
	c5,7.3,15,9.2,22.3,4.2c1.3-0.9,2.3-1.1,3.3-0.8c2.2,0.8,3.4,4.4,4.7,8.7c0.6,1.9,1.3,4,2.2,6.1v0.1c0.5,1,0.9,1.9,1.4,2.6
	c5,7.3,15,9.2,22.3,4.2c3.5-2.5,5.9-6.1,6.7-10.3s-0.1-8.5-2.5-12c-2.3-3.3-2.9-6.7-1.7-9.2c0.8-1.6,2.3-2.7,4.1-2.8
	c2.8-0.2,5.7,1.6,8,5l4.2,6.1l12.9,19c1.5,2.2,3.8,3.7,6.4,4.2c2.7,0.5,5.3,0,7.5-1.5c2.8-2,4.5-5.2,4.3-9c0.1-1.7,0.4-2.7,1.1-3
	c1.3-0.6,3.5,1.3,6,3.4l0.6,0.5c3.3,3.4,8.6,3.9,12.6,1.2c3.6-2.4,7.1-1.9,8.8-1.4l0.2,0.1c0.2,0.1,0.5,0.2,0.8,0.3h0.1
	c4.5,1.2,9.2-0.9,11.3-5.1S1840.1,707.9,1836.3,704.8z"/>
<path class="st3" d="M1838.6,359.7c-0.7-0.3-2.6-1.4-2.7-5.7c0-4.5-3.1-8.4-7.4-9.3c-4.2-0.9-8.5,1.2-10.3,5.2v0.1
	c-0.1,0.3-0.2,0.5-0.3,0.8l-0.1,0.2c-0.7,1.6-2.3,4.4-6.2,5.6c-4.3,1.4-7,5.5-6.5,10v0.7c0.1,3.1,0.1,5.8-1.1,6.4
	c-0.6,0.3-1.6,0-2.8-1c-2.7-2.3-6-3.1-9.1-2.1c-4.9,1.5-7.7,6.8-6.2,11.7l2.6,8.6l5.7,18.7c1.7,5.8-0.4,9.3-3.1,10.1
	c-2.7,0.9-6.4-0.9-8.1-6.6c-1.2-3.9-3.8-7-7.3-8.9c-3.6-1.9-7.6-2.3-11.4-1.1c-7.9,2.4-12.3,10.9-9.9,18.8c0.3,0.8,0.6,1.6,1.1,2.6
	l0.1,0.2c1,1.8,2.1,3.5,3.2,5.1c2.4,3.5,4.4,6.5,3.6,8.6c-0.4,1-1.2,1.6-2.5,2c-7.9,2.4-12.3,10.9-9.9,18.8c0.7,2.2,1.9,4.2,3.6,6
	l0.1,0.1c8.9,9.5,13.2,20.1,11.2,27.6c-1.1,4-3.9,6.9-8.2,8.2c-6.9,2.1-10.8,9.5-8.7,16.4c3.7,12.1,0,24.3-10.8,35.4
	c35-22.9,61.5-57.3,74.7-97l0.3,0.1c-11.3,43.2-37.8,80.9-74.6,106.3c19.9-6.1,39.9-12.3,59.8-18.4c5.9-1.8,9.2-8.1,7.4-14
	c-0.3-0.7-0.5-1.5-0.8-2.2c-1.5-4.3-3-8.3,4.9-12c10.2-3.9,34.5-13.7,42.1-21.1c0.1-0.1,0.1-0.1,0.2-0.2c4-3.7,5.4-8.8,3.9-13.7
	c-0.5-1.4-1-2.8-1.5-4.2c-1.6-4.2-3.1-8.2-1.4-11.6c1.3-2.7,4.6-4.8,10.1-6.5c6.9-2.1,10.8-9.5,8.7-16.4c-1.3-4.1-4.3-7.2-8.3-8.6
	l-0.6-0.2c-7.3-3.1-11.2-6.2-12.1-9.7c-0.6-2.3,0.1-4.8,2.2-7.5c0.4-0.6,0.8-1,1-1.5c5.6-8.2,6.6-11,6.8-11.7
	c1.1-3.2,1.1-6.4,0.2-9.3c-1.2-4.1-4.2-7.5-8.1-9.3h-0.1c-4.6-2.6-5.5-7-6.5-12c-0.3-1.8-0.7-3.7-1.4-5.8
	C1843.2,363.5,1841.2,361.1,1838.6,359.7z"/>
<path class="st3" d="M1869.4,535l-0.5,0.8l-8.3,14.5c-1.9,3.3-4.4,3.8-5.9,2.9c-1.6-0.9-2.4-3.3-0.5-6.6c2.5-4.4,1-10.1-3.4-12.6
	c-2.2-1.2-4.6-1.5-7-0.9s-4.4,2.2-5.6,4.3c-0.2,0.5-0.5,1-0.7,1.6l-0.1,0.3c-0.3,1.1-0.6,2.2-0.9,3.4c-0.6,2.5-1.1,4.7-2.4,5.3
	c-0.6,0.2-1.2,0.1-2-0.3c-2.2-1.2-4.6-1.5-7-0.9s-4.4,2.2-5.6,4.3c-0.7,1.2-1.1,2.6-1.2,4.1v0.1c-0.5,8-3.5,14.4-7.7,16.7
	c-2.3,1.3-4.8,1.2-7.2-0.2c-1.9-1.1-4-1.4-6.1-0.8s-3.8,1.9-4.9,3.8c-3.9,6.6-10.7,10-20,10c24.9,6,51.3,3.4,74.5-7.2l0.2,0.3
	c-24.1,13-52.1,16.9-79,11.1c11.1,6.3,22.1,12.7,33.2,19.1c1.6,0.9,3.4,1.2,5.2,0.7c1.8-0.5,3.3-1.6,4.2-3.2
	c0.3-0.4,0.5-0.9,0.7-1.3c1.2-2.6,2.4-4.9,7.5-2.9c6,3,20.7,9.9,27.2,10.2c0.1,0,0.1,0,0.2,0c3.4,0.2,6.3-1.3,7.8-4
	c0.5-0.8,0.9-1.6,1.3-2.4c1.3-2.5,2.4-4.8,4.7-5.5c1.8-0.6,4.2,0,7.3,1.8c1.9,1.1,4,1.4,6.1,0.8s3.8-1.9,4.9-3.8
	c1.2-2.2,1.4-4.9,0.3-7.3l-0.3-0.6c-1.6-4.5-1.8-7.5-0.6-9.4c0.8-1.3,2.3-2,4.4-2.2c0.5-0.1,0.8-0.1,1.1-0.2
	c5.3-0.8,7.3-1.4,7.9-1.7c2.1-1,3.5-2.3,4.4-3.9c1.3-2.2,1.5-5,0.7-7.5v-0.1c-0.7-3.2,0.9-5.4,2.7-8c0.7-1,1.4-1.9,2-3
	c0.9-1.6,1.2-3.4,0.7-5.2v-0.2c-0.1-0.3-0.5-1.7,1.5-3.6c2.1-1.9,2.5-4.9,0.9-7c-1.3-2.2-4.1-3.2-6.6-2.4h-0.1
	c-0.2,0.1-0.4,0.1-0.5,0.2c-1.1,0.4-3.1,0.9-5.3-0.4c-2.3-1.4-5.3-0.9-7.1,1.2l-0.3,0.3c-1.4,1.3-2.6,2.5-3.4,2.2
	c-0.5-0.2-0.7-0.7-0.8-1.7c-0.1-2.3-1.2-4.1-2.9-5.1c-1.3-0.8-2.8-1-4.3-0.6C1871.4,532.7,1870.2,533.7,1869.4,535z"/>
<path class="st3" d="M1176.5,639.1c-2.5,4.6-2.6,10.2-0.4,14.9c1.9,4,5.2,6.9,9.3,8.4c4.1,1.4,8.6,1.2,12.5-0.7
	c6.5-3,11.3-3.9,14.8-2.5c4.4,1.7,6.3,6.5,8.4,11.7c0.7,1.7,1.4,3.4,2.2,5.1c2.7,5.7,8.4,9.2,14.9,9.3c0.1,0,0.2,0,0.6,0h0.1
	c13.2,0.3,43.9-11.2,56.5-16.2c10.4-3.2,12.4,1.7,14.5,6.9c0.4,0.9,0.8,1.8,1.2,2.7c1.6,3.4,4.5,5.9,8,7.2c3.5,1.2,7.3,1,10.7-0.6
	c23.6-11.3,47.2-22.5,70.8-33.8c-55.3,7.9-111.4-4.3-158.2-34.4l0.2-0.3c45.5,25.3,98.9,34.4,150.6,25.8c-19.4-1-33.2-9-40-23.3
	c-1.9-4-5.2-6.9-9.3-8.4c-4.1-1.4-8.6-1.2-12.5,0.7c-5.1,2.4-10.1,2.2-14.5-0.6c-8.1-5.2-12.9-18.5-12.8-34.7v-0.1
	c0.1-3-0.5-5.9-1.7-8.5c-2.2-4.5-6-7.9-10.7-9.6c-4.7-1.6-9.8-1.4-14.3,0.8c-1.6,0.8-2.9,0.8-3.9,0.3c-2.4-1.3-3.1-6-3.9-10.9
	c-0.4-2.4-0.7-4.8-1.4-7.4v-0.2c-0.4-1.3-0.8-2.4-1.2-3.3c-2.2-4.5-6-7.9-10.7-9.6c-4.7-1.6-9.8-1.4-14.3,0.8
	c-9.3,4.5-13.2,15.7-8.8,25c2,4.2,2.1,8.2,0.3,10.9c-1.2,1.8-3.1,2.7-5.2,2.5c-3.2-0.3-6.3-2.9-8.3-7.2l-14.6-30.5l-0.7-1.5
	c-1.3-2.8-3.7-5-6.6-6s-6.1-0.8-8.9,0.5c-3.7,1.8-6.1,5.3-6.6,9.6c-0.4,2-0.9,3.1-1.8,3.3c-1.6,0.5-3.8-2-6.3-4.9l-0.6-0.7
	c-3.3-4.5-9.4-6-14.4-3.6c-4.5,2.2-8.4,1-10.3,0.1l-0.2-0.1c-0.3-0.2-0.7-0.4-1-0.5h-0.1c-5.1-2.1-10.8-0.5-14,3.9
	c-3.3,4.5-2.8,10.8,1,14.8c3.5,4,2.7,6.7,2.3,7.5c-1.3,3.5-1.1,7.3,0.5,10.7c1.1,2.3,2.3,4.3,3.5,6.3c3.2,5.5,6.1,10.2,4,16.4v0.1
	c-2.1,5-2,10.6,0.3,15.4c1.7,3.4,4.3,6.3,7.9,8.3c0.7,0.5,4.1,2.2,16.1,5c0.6,0.2,1.3,0.4,2.2,0.5c4.1,0.7,6.9,2.4,8.3,5
	c2.1,4,1.1,10.2-3.2,19.1L1176.5,639.1z"/>
<path class="st2" d="M1398.7,881c63.1-12,104.5-72.8,92.5-135.9c-7.8-41-36.3-72.8-72.6-86.8c22.7,16.8,39.3,41.8,45,71.7
	c12,63.1-29.4,123.9-92.5,135.9c-22,4.2-43.8,1.8-63.3-5.7C1333,878.8,1365.5,887.3,1398.7,881z"/>
<path class="st3" d="M1543.8,554.3c8.3,1.8,16.4-3.5,18.2-11.8c1.1-5.2,4.1-8.7,8.7-10.4c8.5-3.1,21.1,0.9,33.1,10.2l0.1,0.1
	c2.2,1.8,4.7,3,7.3,3.6c9.5,2,18.8-4,20.8-13.5c0.3-1.6,1-2.6,2-3.1c2.3-1.1,6,1,10.3,3.3c2,1.1,4,2.2,6.3,3.2l0.2,0.1
	c1.2,0.5,2.2,0.8,3.1,1c9.5,2,18.8-4,20.8-13.5c0.9-4.6,0.1-9.3-2.5-13.2s-6.5-6.6-11.1-7.6c-6.8-1.5-9.2-5.6-8.5-8.8
	c0.6-3.2,4.5-6,11.3-4.6l10.7,2.3l21.8,4.6c5.9,1.2,11.7-2.5,12.9-8.4c0.8-3.8-0.4-7.6-3.4-10.4c-1.3-1.4-1.8-2.4-1.5-3.2
	c0.6-1.5,3.7-1.7,7.3-1.9l0.8-0.1c5.2,0.1,9.8-3.5,10.9-8.6c1-4.6,4-6.8,5.8-7.7l0.2-0.1c0.3-0.2,0.7-0.3,1-0.5h0.1
	c4.4-2.5,6.5-7.7,5-12.6c-1.5-5-6.4-8.2-11.6-7.7c-5,0.3-6.5-1.8-6.9-2.6c-1.9-2.9-4.9-5-8.3-5.7c-2.3-0.5-4.5-0.8-6.7-1
	c-5.9-0.6-11.1-1.2-14.5-6.3l-0.1-0.1c-2.5-4.5-6.7-7.6-11.6-8.6c-3.5-0.8-7.1-0.4-10.7,1.1c-0.8,0.3-4,1.9-12.9,9.2
	c-0.5,0.3-1.1,0.7-1.7,1.3c-2.9,2.7-5.7,3.9-8.5,3.4c-4.2-0.8-8.1-5-12.5-13.2l-0.3-0.6c-2-4.5-6-7.8-10.8-8.8
	c-8.3-1.8-16.4,3.5-18.2,11.8c-1.3,6.5-3.5,10.6-6.5,12.4c-3.8,2.3-8.5,1-13.5-0.4c-1.6-0.5-3.3-0.9-5-1.3
	c-5.8-1.2-11.7,0.9-15.4,5.7c-0.1,0-0.1,0.1-0.4,0.5c-7.8,9.6-16.7,39-20.2,51.2c-3.5,9.6-8.3,8.3-13.4,6.9
	c-0.9-0.3-1.8-0.5-2.7-0.7c-7.1-1.5-14.1,3-15.6,10.1c-5.1,23.9-10.1,47.9-15.2,71.8c25.6-45.5,66.7-80.3,115.7-97.9l0.1,0.3
	c-44.7,19.4-82,53.9-105,97.1C1514.9,556.8,1528.8,551.2,1543.8,554.3z"/>
<path class="st2" d="M1528.3,725.7c0-61.1-47.4-117.2-59.9-146.9c-6.7-15.9-13-32.5-12.9-51c0-34.2,16.2-64.6,41.3-84
	c0,0-7.3,3.4-14.2,7.9c-30.8,20.4-49.9,56.5-49.9,96.3c0,20.5,7,38.9,14.4,56.6c13.8,33,80.5,127.1,80.5,194.9L1528.3,725.7z"/>
<path class="st3" d="M1116.1,424.3L1116.1,424.3c0.3,0.2,0.5,0.2,0.6,0.3c1,0.6,2.6,1.8,3,4.3c0.5,2.7,2.8,4.7,5.5,4.7h0.4
	c2,0.2,3.6,0.4,3.9,1.2c0.1,0.4-0.1,0.9-0.8,1.6c-1.7,1.5-2.4,3.4-2.1,5.4c0.6,3,3.5,5.1,6.6,4.6l5.4-0.9l11.9-2
	c2.4-0.4,4.4,0.1,5.4,1.4c0.7,0.8,0.9,1.9,0.5,2.9c-0.6,1.5-2.2,2.6-4.6,3c-2.5,0.5-4.6,1.8-6,3.8c-1.5,2-2,4.4-1.6,6.8
	c0.8,5,5.6,8.3,10.6,7.5c0.4-0.1,1-0.3,1.6-0.5h0.1c1.2-0.4,2.3-1,3.4-1.5c2.3-1.1,4.4-2.1,5.6-1.5c0.5,0.3,0.9,0.8,1,1.7
	c0.8,5,5.6,8.3,10.6,7.5c1.4-0.2,2.7-0.8,3.9-1.7l0.1-0.1c6.6-4.7,13.3-6.5,17.8-4.7c2.4,0.9,3.9,2.9,4.4,5.7
	c0.8,4.4,4.9,7.3,9.3,6.6c7.6-1.3,14.6,1.8,20.5,9c-11.3-23-30.1-41.7-53.1-52.8l0.1-0.3c25.4,10.3,46.3,29.3,58.9,53.7
	c-2.1-12.6-4.3-25.1-6.4-37.7c-0.6-3.7-4.2-6.2-7.9-5.6c-0.5,0.1-0.9,0.2-1.4,0.3c-2.7,0.6-5.3,1.2-7-4c-1.6-6.5-5.7-22.2-9.6-27.4
	c0-0.1-0.1-0.2-0.1-0.2c-1.9-2.8-4.9-4-8-3.5c-0.9,0.2-1.8,0.4-2.7,0.6c-2.7,0.6-5.2,1.2-7.2-0.1c-1.5-1-2.6-3.2-3.2-6.7
	c-0.8-4.4-4.9-7.3-9.3-6.6c-2.5,0.5-4.6,2.1-5.8,4.4l-0.3,0.6c-2.4,4.1-4.6,6.2-6.8,6.5c-1.5,0.2-3-0.5-4.5-2
	c-0.3-0.3-0.6-0.5-0.8-0.7c-4.3-3.7-6-4.7-6.5-5c-1.9-0.9-3.8-1.2-5.7-0.9c-2.6,0.4-4.9,1.9-6.3,4.2l-0.1,0.1c-2,2.6-4.7,2.8-7.9,3
	c-1.1,0.1-2.3,0.2-3.5,0.4c-1.9,0.3-3.4,1.3-4.5,2.8c-0.3,0.4-1.1,1.5-3.8,1.2c-2.7-0.4-5.3,1.1-6.2,3.7
	C1112.7,420,1113.6,422.7,1116.1,424.3z"/>
<path class="st3" d="M1243.3,427.4c8.1,3.4,13.3,7.9,14.8,13c1.2,3.9,0.3,8.2-2.7,12.7c-4.4,7.1-4.1,16.1,0.8,22.8
	c4.3,5.8,11.1,9,18.4,8.4c18.4-0.4,24.4,5,26.3,8.2c1.4,2.5,1.5,5.3,0.2,7.9l-0.1,0.3c-2.9,5.3-2.5,11.9,1,16.8
	c3,4.1,7.9,6.6,13.3,6.5c2.8-0.1,5.3-0.2,7.5-0.3c6.1-0.3,9.5-0.4,11.8,1.3l2.4,3.8c0.5,1.5,0.9,3.3,1.3,5.8
	c0.1,2.2,0.8,4.4,2.1,6.2c1.7,2.3,4.3,3.9,7.2,4.4c0.1,0,0.1,0,0.2,0c0.7,0.1,1.5,0.1,2.2,0.1c12.3,0.3,47,0,52.7-0.1
	c-6.9-7.1-12.2-12.7-17-18.1c-36.8-41-67.4-87.1-91-137l0.3-0.2c19.6,33.7,42.7,65.6,68.7,94.7c13.9,15.5,29.3,30.8,45.8,45.5
	c4.3-12.5,9.8-28.9,12.1-36.6c0.2-0.6,0.4-1.3,0.6-2.2v-0.1c0.5-2.8-0.2-5.7-1.9-8.1c-1.3-1.8-3.1-3.1-5.2-3.9
	c-2.3-1.2-3.9-2.2-5.1-3.1l-2.8-3.5c-0.9-2.6,0.3-5.8,2.5-11.5c0.8-2.1,1.7-4.4,2.6-7.1l0.1-0.2c1.7-4.9,0.9-10.3-2.1-14.5
	c-3.5-4.9-9.6-7.4-15.6-6.3c-2.9,0.5-5.7-0.4-7.7-2.7c-2.4-2.8-5.6-10.1,0.5-27.5c2.9-6.7,2-14.2-2.2-20.1c-4.8-6.8-13.2-9.9-21.3-8
	c-5.2,1.5-9.5,1-12.9-1.4c-4.3-3.1-6.9-9.3-7.6-18.2c0-3.8-1.1-7.4-3.3-10.5c-5.6-7.7-16.4-9.5-24.2-3.9c-3.5,2.5-5.9,6.3-6.8,10.5
	c-0.8,2.4-1.7,3.7-3,3.9c-2.4,0.4-5.6-2.7-11.6-11c-1-1.4-2-2.4-3-3c-3-2.3-6.9-3.3-11.1-2.6c-3.2,0.3-6.4-1.8-7-2.3
	c-5.8-4.8-14.1-5.1-20.2-0.7c-6.1,4.4-8.5,12.4-5.8,19.4c0.1,0.4,1.3,4.3-0.1,7.3l-0.2,0.4c-1.8,3.4-2.1,7.5-0.9,11.1
	c0.3,1.1,0.9,2.3,1.9,3.7c6,8.2,7.9,12.3,6.8,14.4c-0.6,1.2-2.1,1.7-4.6,1.6c-4.3-0.5-8.6,0.6-12.1,3.1c-3.8,2.7-6.3,6.7-7,11.3
	c-0.8,4.5,0.3,9.1,3,13.2C1236.5,424.1,1239.6,426.3,1243.3,427.4z"/>
<path class="st2" d="M786.6,539.1c30.5,37.2,65.5,70.6,104.1,99.4c-26.8-36-51.1-63-69.4-103.6c49.3-37.3,93-81.6,129.6-131.4h0.1
	c4.4-5.7,11.2-9.4,18.9-9.4s14.6,3.7,18.9,9.4h0.1c12.6,17.1,26,33.6,40.2,49.3c46.4,51.8,122.8,43.3,122.8,43.3
	s-45.5-5.1-86.4-53.5c-17-19.8-32.9-40.5-47.4-62.2c-10.7-15.1-28.3-24.9-48.1-24.9c-20.2,0-38,10.2-48.7,25.6
	c-38.4,57.4-86,108.2-140.8,150.4c2,2.5,4.2,5,6.3,7.5L786.6,539.1z"/>
<path class="st2" d="M586,524.2h0.3c7.1-9.4,18.3-15.4,31-15.4c12.6,0,23.9,6.1,31,15.4h0.1c190.4,259.4,497.5,427.8,844,427.8
	c12.5,0,24.9-0.3,37.3-0.6c-347.6-12.2-652.1-193.9-833.3-465h-0.1h-0.1c-17.6-24.8-46.4-40.9-79-40.9c-33.1,0-62.4,16.8-79.8,42.2
	h-0.1l-0.1-0.1C412.5,673.5,229.8,817.3,14.9,892.9c66.4-7.2,137.1-22.3,196.9-52.1C360.2,766.1,488.4,657.1,586,524.2z"/>
<path class="st3" d="M1483.2,221.9c0.5,0.4,1.1,0.8,1.9,1.3c0.1,0.1,0.2,0.2,0.3,0.2c1.4,0.8,2.9,1.4,4.4,2.1c3.2,1.4,6,2.7,6.4,4.5
	c0.2,0.8-0.1,1.6-0.9,2.5c-2.2,2.6-3.2,5.8-3,9.2c0.2,3.3,1.8,6.4,4.3,8.6c1.4,1.2,3.2,2.1,5.2,2.6h0.1c10.5,2.8,18.3,8.4,20.3,14.6
	c1,3.4,0.3,6.7-2.2,9.6c-1.9,2.2-2.8,5.1-2.6,8c0.2,2.9,1.6,5.6,3.8,7.5c8,6.9,10.8,17.2,8.2,29.8c14.7-32,18.1-68.2,9.8-102.2
	l0.3-0.1c11.2,35.7,9.2,74.3-5.6,108.9c11.5-13.2,22.9-26.5,34.4-39.8c1.7-1.9,2.5-4.3,2.3-6.8c-0.1-2.5-1.3-4.8-3.2-6.4
	c-0.5-0.4-1-0.8-1.5-1.2c-3-2.3-5.9-4.5-1.9-10.7c5.5-7.3,18.5-25.3,20.6-33.9c0.1-0.2,0.1-0.2,0.1-0.3c1.1-4.4-0.2-8.7-3.4-11.5
	c-0.9-0.8-1.9-1.6-2.9-2.3c-3-2.3-5.9-4.4-6.2-7.6c-0.3-2.5,1.1-5.5,4.3-9.2c1.9-2.2,2.8-5.1,2.6-8c-0.2-2.9-1.6-5.6-3.8-7.5
	c-2.7-2.3-6.2-3.1-9.7-2.3l-0.6,0.1c-6.5,1-10.7,0.6-12.9-1.5c-1.5-1.4-2.1-3.6-1.8-6.4c0-0.6,0-1.1,0-1.5
	c0.3-8.1-0.1-10.6-0.3-11.3c-0.7-2.8-2-5-4-6.7c-2.7-2.3-6.3-3.4-9.9-2.9h-0.1c-4.4,0.2-7-2.5-10-5.6c-1.1-1.1-2.2-2.3-3.5-3.4
	c-1.9-1.7-4.4-2.5-6.9-2.3c-0.6,0.1-2.5,0.1-4.5-2.9c-1.9-3.2-5.9-4.6-9.4-3.3c-3.4,1.2-5.5,4.7-5,8.3v0.1c0.1,0.3,0.1,0.5,0.2,0.7
	v0.2c0.3,1.5,0.3,4.2-1.9,6.8c-2.5,2.9-2.5,7.1-0.2,10l0.3,0.5c1.5,2.2,2.7,4.1,2.1,5.1c-0.3,0.5-1.1,0.7-2.4,0.6
	c-3-0.4-5.7,0.5-7.5,2.6c-1.4,1.6-2.1,3.6-1.9,5.7c0.2,2,1.1,3.9,2.7,5.3l10.1,8.7l8,6.9c2.4,2.1,3.6,4.5,3.2,6.7
	c-0.3,1.4-1.2,2.5-2.6,3c-2.1,0.7-4.6-0.1-7.1-2.2c-5.3-4.5-13.3-4-17.8,1.3c-2.2,2.5-3.3,5.8-3,9.2
	C1479.1,216.6,1480.7,219.7,1483.2,221.9z"/>
<path class="st3" d="M1582.6,310.6c-0.3,4.8-0.5,7.4-2.1,9.1l-3.2,1.6c-1.1,0.3-2.6,0.4-4.6,0.5c-1.7-0.1-3.5,0.2-5,1.1
	c-2,1.1-3.5,2.9-4.1,5.2v0.2c-0.2,0.6-0.3,1.1-0.3,1.7c-1.3,9.3-4,35.1-4.6,41.2c6.2-4.7,11-8.3,15.6-11.6
	c35.4-25.1,74.2-45,115.3-59l0.1,0.3c-28.1,12.3-55.1,27.5-80.2,45.3c-13.3,9.4-26.6,20.1-39.6,31.7c9.5,4.5,21.8,10.3,27.5,12.7
	c0.5,0.3,1,0.5,1.7,0.7h0.1c2.2,0.6,4.5,0.3,6.5-0.8c1.5-0.8,2.7-2.1,3.5-3.7c1.1-1.6,2-2.8,2.9-3.7l3-1.9c2.2-0.5,4.5,0.8,8.8,3
	c1.6,0.8,3.3,1.7,5.3,2.7l0.2,0.1c3.7,1.8,8,1.7,11.5-0.3c4.2-2.3,6.6-6.9,6.3-11.8c-0.1-2.3,0.9-4.4,2.8-5.7
	c2.4-1.7,8.5-3.6,21.5,2.8c5,2.9,10.9,2.9,15.9,0.1c5.7-3.2,8.9-9.4,8.1-15.9c-0.6-4.2,0.1-7.6,2.3-10c2.7-3.2,7.9-4.7,14.9-4.4
	c3,0.4,5.9-0.1,8.5-1.6c6.5-3.6,8.9-12,5.2-18.5c-1.7-2.9-4.4-5.1-7.6-6.2c-1.8-0.8-2.8-1.7-2.8-2.7c-0.1-1.9,2.6-4.2,9.6-8.1
	c1.2-0.6,2-1.3,2.6-2c2-2.2,3.1-5.2,3-8.2v-0.4c0-2.5,2.1-4.9,2.4-5.2c4.2-4.1,5.2-10.6,2.3-15.7c-2.9-5.1-8.9-7.7-14.6-6.2
	c-0.3,0.1-3.5,0.6-5.7-0.7l-0.3-0.2c-2.5-1.7-5.7-2.3-8.6-1.7c-0.9,0.2-1.9,0.5-3.1,1.2c-7,4-10.3,5.1-11.9,4
	c-0.8-0.6-1.1-1.8-0.8-3.8c0.7-3.3,0.2-6.8-1.4-9.7c-3.6-6.5-12-8.9-18.5-5.2c-2.6,1.4-4.6,3.6-5.8,6.4c-3.4,6.1-7.4,9.7-11.5,10.5
	c-3.2,0.5-6.4-0.5-9.7-3.3c-5.1-4.1-12.1-4.6-17.8-1.4c-4.9,2.8-8,7.9-8.2,13.6c-1.4,14.4-6.1,18.6-8.8,19.8
	c-2.1,0.9-4.5,0.7-6.4-0.7c-3.9-2.7-9.1-3-13.2-0.7c-3.5,1.9-5.8,5.5-6.5,9.6C1582.9,307,1582.7,308.9,1582.6,310.6z"/>
<path class="st3" d="M1746.7,374.4c4-27.1,17.7-51.9,38.4-69.8l0.2,0.3c-18.2,17.9-29.9,41.7-33.2,67.1c3.3-8.7,8.9-13.9,16.5-15.1
	c2.1-0.3,3.9-1.5,5.2-3.2c1.2-1.8,1.7-3.9,1.4-6c-0.5-2.8,0.3-5.2,2.3-6.9c3.7-3.2,10.7-3.6,18.4-1.3h0.1c1.5,0.5,2.9,0.6,4.3,0.4
	c2.4-0.4,4.6-1.7,6-3.7s2-4.4,1.6-6.8c-0.2-0.9,0-1.6,0.4-2c1-1,3.2-0.7,5.8-0.4c1.1,0.2,2.4,0.4,3.5,0.4c0.1,0,0.2,0,0.3,0
	c0.7,0,1.2,0,1.7-0.1c2.4-0.4,4.6-1.7,6-3.7s2-4.4,1.6-6.8c-0.8-5-5.6-8.4-10.6-7.6c-3.7,0.6-5.7-1-6-2.8c-0.3-1.8,1.1-3.9,4.8-4.5
	l9.3-1.5l8.1-1.3c1.5-0.3,2.8-1.1,3.7-2.3s1.2-2.7,1-4.2c-0.3-2-1.6-3.6-3.7-4.5c-0.9-0.4-1.3-0.8-1.3-1.3c0-0.9,1.5-1.6,3.3-2.4
	l0.4-0.2c2.6-0.9,4.1-3.5,3.7-6.2c-0.4-2.5,0.7-4.2,1.4-5l0.4-0.4l0.1-0.1c1.7-2.1,1.7-5,0.1-7.1c-1.7-2.2-4.7-2.8-7.1-1.6
	c-2.4,1.1-3.6,0.3-4,0c-1.5-1.1-3.3-1.5-5.1-1.2c-1.2,0.2-2.4,0.5-3.5,0.8c-3,0.8-5.7,1.5-8.4-0.3l-0.1-0.1c-2.1-1.7-4.7-2.4-7.3-2
	c-1.8,0.3-3.5,1.2-5.1,2.7c-0.5,0.4-1.7,1.9-4.5,6.8c-0.2,0.3-0.4,0.6-0.6,1c-0.9,1.9-2.1,3-3.6,3.3c-2.2,0.5-5-0.8-8.6-3.9
	l-0.5-0.5c-1.8-1.9-4.4-2.7-6.9-2.3c-2.1,0.3-3.9,1.5-5.2,3.2c-1.2,1.8-1.7,3.9-1.4,6c0.5,3.5,0.3,5.9-0.9,7.4
	c-1.4,1.9-4,2.1-6.8,2.4c-0.9,0.1-1.8,0.2-2.7,0.3c-3.1,0.5-5.5,2.6-6.5,5.8c-0.1,0.1-0.1,0.1-0.1,0.2c-2,6.3-0.8,22.4-0.2,29.1
	c0.1,5.4-2.6,5.7-5.4,6c-0.4,0.1-0.9,0.1-1.4,0.2c-1.8,0.3-3.4,1.3-4.5,2.8s-1.5,3.3-0.9,5.1
	C1742.6,349.2,1744.7,361.8,1746.7,374.4z"/>
<path class="st3" d="M1313.6,231.5c0.3,0.2,0.5,0.5,0.8,0.7l0.2,0.2c1.4,1.5,3.7,4.6,3.1,9.4c-0.6,5.3,2.6,10.3,7.7,11.9l0.8,0.3
	c3.4,1.4,6.3,2.6,6.4,4.2c0,0.9-0.8,1.7-2.5,2.6c-3.8,1.8-6.2,5-6.7,8.9c-0.8,6.1,3.6,11.7,9.7,12.4l32.2,3.9l1.5,0.2
	c7.1,0.8,9.9,4.8,9.5,8.1c-0.4,3.4-4,6.5-11.1,5.7c-9.8-1.2-18.7,5.8-19.9,15.6c-0.6,4.7,0.7,9.4,3.7,13.2c3,3.7,7.2,6.1,12,6.7
	c0.9,0.1,2,0.2,3.3,0.1h0.2c2.6-0.2,4.9-0.6,7.2-1c4.9-0.9,9.1-1.6,11,0.2c0.8,0.8,1.1,1.9,0.9,3.6c-1.1,9.8,5.9,18.7,15.7,19.9
	c2.8,0.4,5.5,0,8.3-1h0.1c14.6-5.1,28.2-4.8,35.4,1c3.9,3.1,5.6,7.6,5,12.9c-0.5,4.1,0.6,8.2,3.2,11.5s6.3,5.4,10.5,5.9
	c14.9,1.8,26.4,11.8,33.3,29.1c-8-49.4-32.7-95-69.5-128.5l0.2-0.3c41.6,33.2,69.8,80.3,79.6,132.8c3-24.8,6-49.6,9-74.4
	c0.4-3.6-0.6-7.1-2.8-9.9c-2.2-2.8-5.4-4.6-8.9-5c-0.9-0.1-1.9-0.1-2.8-0.2c-5.4-0.3-10.5-0.6-10.7-11c0.7-12.9,1.8-44.2-2.6-56.1
	c-0.1-0.4-0.2-0.5-0.2-0.6c-2-5.8-7-9.9-13-10.6c-1.8-0.2-3.6-0.3-5.3-0.4c-5.3-0.3-10.3-0.6-13.2-4c-2.3-2.8-3-7.4-2.2-14.2
	c0.5-4.1-0.6-8.2-3.2-11.5s-6.3-5.4-10.5-5.9c-4.9-0.6-9.9,1.2-13.3,4.9l-0.4,0.5c-7,6.5-12.2,9.3-16.5,8.6c-2.9-0.4-5.2-2.5-7.1-6
	c-0.5-0.7-0.8-1.3-1.2-1.8c-6.1-9.9-8.7-12.5-9.4-13.1c-3-2.6-6.4-4.2-10-4.6c-5-0.6-10.1,1.1-14,4.5l-0.1,0.1
	c-4.9,3.8-10.1,2.7-16.1,1.4c-2.2-0.4-4.4-0.9-6.8-1.2c-3.6-0.4-7.1,0.6-9.9,2.8c-0.6,0.6-2.8,2.2-7.5,0.2
	c-4.8-2.2-10.6-0.7-13.7,3.6C1309.9,222,1310.2,227.7,1313.6,231.5L1313.6,231.5z"/>
<g id="SEMI" class="st0">
	<path class="st1" d="M0,2.7v1080h1920V2.7H0z M1845.5,372.2c1,5,1.9,9.4,6.5,12h0.1c3.9,1.8,6.9,5.2,8.1,9.3
		c0.9,2.9,0.9,6.1-0.2,9.3l0,0c-0.2,0.7-1.2,3.5-6.8,11.7c-0.2,0.5-0.6,0.9-1,1.5c-2.1,2.7-2.8,5.2-2.2,7.5
		c0.9,3.5,4.8,6.6,12.1,9.7l0.6,0.2c4,1.4,7,4.5,8.3,8.6c2.1,6.9-1.8,14.3-8.7,16.4c-5.5,1.7-8.8,3.8-10.1,6.5
		c-1.7,3.4-0.2,7.4,1.4,11.6c0.5,1.4,1,2.8,1.5,4.2c1.5,4.9,0.1,10-3.9,13.7c-0.1,0.1-0.1,0.1-0.2,0.2c-7.6,7.4-31.9,17.2-42.1,21.1
		c-7.9,3.7-6.4,7.7-4.9,12c0.3,0.7,0.5,1.5,0.8,2.2c1.8,5.9-1.5,12.2-7.4,14c-19.9,6.1-39.9,12.3-59.8,18.4
		c36.8-25.4,63.3-63.1,74.6-106.3l-0.3-0.1c-13.2,39.7-39.7,74.1-74.7,97c10.8-11.1,14.5-23.3,10.8-35.4c-2.1-6.9,1.8-14.3,8.7-16.4
		c4.3-1.3,7.1-4.2,8.2-8.2c2-7.5-2.3-18.1-11.2-27.6l-0.1-0.1c-1.7-1.8-2.9-3.8-3.6-6c-2.4-7.9,2-16.4,9.9-18.8c1.3-0.4,2.1-1,2.5-2
		c0.8-2.1-1.2-5.1-3.6-8.6c-1.1-1.6-2.2-3.3-3.2-5.1l-0.1-0.2c-0.5-1-0.8-1.8-1.1-2.6c-2.4-7.9,2-16.4,9.9-18.8
		c3.8-1.2,7.8-0.8,11.4,1.1c3.5,1.9,6.1,5,7.3,8.9c1.7,5.7,5.4,7.5,8.1,6.6c2.7-0.8,4.8-4.3,3.1-10.1l-5.7-18.7l-2.6-8.6
		c-1.5-4.9,1.3-10.2,6.2-11.7c3.1-1,6.4-0.2,9.1,2.1l0,0c1.2,1,2.2,1.3,2.8,1c1.2-0.6,1.2-3.3,1.1-6.4v-0.7c-0.5-4.5,2.2-8.6,6.5-10
		c3.9-1.2,5.5-4,6.2-5.6l0.1-0.2c0.1-0.3,0.2-0.5,0.3-0.8v-0.1c1.8-4,6.1-6.1,10.3-5.2c4.3,0.9,7.4,4.8,7.4,9.3
		c0.1,4.3,2,5.4,2.7,5.7l0,0c2.6,1.4,4.6,3.8,5.5,6.7C1844.8,368.5,1845.2,370.4,1845.5,372.2z M1741.5,331.5
		c1.1-1.5,2.7-2.5,4.5-2.8c0.5-0.1,1-0.1,1.4-0.2c2.8-0.3,5.5-0.6,5.4-6c-0.6-6.7-1.8-22.8,0.2-29.1c0-0.1,0-0.1,0.1-0.2
		c1-3.2,3.4-5.3,6.5-5.8c0.9-0.1,1.8-0.2,2.7-0.3c2.8-0.3,5.4-0.5,6.8-2.4c1.2-1.5,1.4-3.9,0.9-7.4c-0.3-2.1,0.2-4.2,1.4-6
		c1.3-1.7,3.1-2.9,5.2-3.2c2.5-0.4,5.1,0.4,6.9,2.3l0.5,0.5c3.6,3.1,6.4,4.4,8.6,3.9c1.5-0.3,2.7-1.4,3.6-3.3c0.2-0.4,0.4-0.7,0.6-1
		c2.8-4.9,4-6.4,4.5-6.8l0,0c1.6-1.5,3.3-2.4,5.1-2.7c2.6-0.4,5.2,0.3,7.3,2l0.1,0.1c2.7,1.8,5.4,1.1,8.4,0.3
		c1.1-0.3,2.3-0.6,3.5-0.8c1.8-0.3,3.6,0.1,5.1,1.2c0.4,0.3,1.6,1.1,4,0c2.4-1.2,5.4-0.6,7.1,1.6c1.6,2.1,1.6,5-0.1,7.1l-0.1,0.1
		l-0.4,0.4c-0.7,0.8-1.8,2.5-1.4,5c0.4,2.7-1.1,5.3-3.7,6.2l-0.4,0.2c-1.8,0.8-3.3,1.5-3.3,2.4c0,0.5,0.4,0.9,1.3,1.3l0,0
		c2.1,0.9,3.4,2.5,3.7,4.5c0.2,1.5-0.1,3-1,4.2s-2.2,2-3.7,2.3l-8.1,1.3l-9.3,1.5c-3.7,0.6-5.1,2.7-4.8,4.5c0.3,1.8,2.3,3.4,6,2.8
		c5-0.8,9.8,2.6,10.6,7.6c0.4,2.4-0.2,4.8-1.6,6.8s-3.6,3.3-6,3.7c-0.5,0.1-1,0.1-1.7,0.1c-0.1,0-0.2,0-0.3,0
		c-1.1,0-2.4-0.2-3.5-0.4c-2.6-0.3-4.8-0.6-5.8,0.4c-0.4,0.4-0.6,1.1-0.4,2c0.4,2.4-0.2,4.8-1.6,6.8s-3.6,3.3-6,3.7
		c-1.4,0.2-2.8,0.1-4.3-0.4h-0.1c-7.7-2.3-14.7-1.9-18.4,1.3c-2,1.7-2.8,4.1-2.3,6.9c0.3,2.1-0.2,4.2-1.4,6
		c-1.3,1.7-3.1,2.9-5.2,3.2c-7.6,1.2-13.2,6.4-16.5,15.1c3.3-25.4,15-49.2,33.2-67.1l-0.2-0.3c-20.7,17.9-34.4,42.7-38.4,69.8
		c-2-12.6-4.1-25.2-6.1-37.8C1740,334.8,1740.4,333,1741.5,331.5z M1589.6,295.1c4.1-2.3,9.3-2,13.2,0.7c1.9,1.4,4.3,1.6,6.4,0.7
		c2.7-1.2,7.4-5.4,8.8-19.8c0.2-5.7,3.3-10.8,8.2-13.6c5.7-3.2,12.7-2.7,17.8,1.4c3.3,2.8,6.5,3.8,9.7,3.3
		c4.1-0.8,8.1-4.4,11.5-10.5c1.2-2.8,3.2-5,5.8-6.4c6.5-3.7,14.9-1.3,18.5,5.2c1.6,2.9,2.1,6.4,1.4,9.7c-0.3,2,0,3.2,0.8,3.8
		c1.6,1.1,4.9,0,11.9-4c1.2-0.7,2.2-1,3.1-1.2c2.9-0.6,6.1,0,8.6,1.7l0.3,0.2c2.2,1.3,5.4,0.8,5.7,0.7c5.7-1.5,11.7,1.1,14.6,6.2
		s1.9,11.6-2.3,15.7c-0.3,0.3-2.4,2.7-2.4,5.2l0,0v0.4c0.1,3-1,6-3,8.2c-0.6,0.7-1.4,1.4-2.6,2c-7,3.9-9.7,6.2-9.6,8.1
		c0,1,1,1.9,2.8,2.7c3.2,1.1,5.9,3.3,7.6,6.2c3.7,6.5,1.3,14.9-5.2,18.5c-2.6,1.5-5.5,2-8.5,1.6c-7-0.3-12.2,1.2-14.9,4.4
		c-2.2,2.4-2.9,5.8-2.3,10c0.8,6.5-2.4,12.7-8.1,15.9c-5,2.8-10.9,2.8-15.9-0.1c-13-6.4-19.1-4.5-21.5-2.8c-1.9,1.3-2.9,3.4-2.8,5.7
		c0.3,4.9-2.1,9.5-6.3,11.8c-3.5,2-7.8,2.1-11.5,0.3l-0.2-0.1c-2-1-3.7-1.9-5.3-2.7c-4.3-2.2-6.6-3.5-8.8-3l-3,1.9
		c-0.9,0.9-1.8,2.1-2.9,3.7c-0.8,1.6-2,2.9-3.5,3.7c-2,1.1-4.3,1.4-6.5,0.8h-0.1c-0.7-0.2-1.2-0.4-1.7-0.7
		c-5.7-2.4-18-8.2-27.5-12.7c13-11.6,26.3-22.3,39.6-31.7c25.1-17.8,52.1-33,80.2-45.3l-0.1-0.3c-41.1,14-79.9,33.9-115.3,59
		c-4.6,3.3-9.4,6.9-15.6,11.6c0.6-6.1,3.3-31.9,4.6-41.2c0-0.6,0.1-1.1,0.3-1.7v-0.2c0.6-2.3,2.1-4.1,4.1-5.2c1.5-0.9,3.3-1.2,5-1.1
		c2-0.1,3.5-0.2,4.6-0.5l3.2-1.6c1.6-1.7,1.8-4.3,2.1-9.1c0.1-1.7,0.3-3.6,0.5-5.9C1583.8,300.6,1586.1,297,1589.6,295.1z
		 M1481.9,204.1c4.5-5.3,12.5-5.8,17.8-1.3c2.5,2.1,5,2.9,7.1,2.2c1.4-0.5,2.3-1.6,2.6-3c0.4-2.2-0.8-4.6-3.2-6.7l-8-6.9l-10.1-8.7
		c-1.6-1.4-2.5-3.3-2.7-5.3c-0.2-2.1,0.5-4.1,1.9-5.7c1.8-2.1,4.5-3,7.5-2.6l0,0c1.3,0.1,2.1-0.1,2.4-0.6c0.6-1-0.6-2.9-2.1-5.1
		l-0.3-0.5c-2.3-2.9-2.3-7.1,0.2-10c2.2-2.6,2.2-5.3,1.9-6.8v-0.2c-0.1-0.2-0.1-0.4-0.2-0.7v-0.1c-0.5-3.6,1.6-7.1,5-8.3
		c3.5-1.3,7.5,0.1,9.4,3.3c2,3,3.9,3,4.5,2.9l0,0c2.5-0.2,5,0.6,6.9,2.3c1.3,1.1,2.4,2.3,3.5,3.4c3,3.1,5.6,5.8,10,5.6h0.1
		c3.6-0.5,7.2,0.6,9.9,2.9c2,1.7,3.3,3.9,4,6.7l0,0c0.2,0.7,0.6,3.2,0.3,11.3c0,0.4,0,0.9,0,1.5c-0.3,2.8,0.3,5,1.8,6.4
		c2.2,2.1,6.4,2.5,12.9,1.5l0.6-0.1c3.5-0.8,7,0,9.7,2.3c2.2,1.9,3.6,4.6,3.8,7.5c0.2,2.9-0.7,5.8-2.6,8c-3.2,3.7-4.6,6.7-4.3,9.2
		c0.3,3.2,3.2,5.3,6.2,7.6c1,0.7,2,1.5,2.9,2.3c3.2,2.8,4.5,7.1,3.4,11.5c0,0.1,0,0.1-0.1,0.3c-2.1,8.6-15.1,26.6-20.6,33.9
		c-4,6.2-1.1,8.4,1.9,10.7c0.5,0.4,1,0.8,1.5,1.2c1.9,1.6,3.1,3.9,3.2,6.4c0.2,2.5-0.6,4.9-2.3,6.8c-11.5,13.3-22.9,26.6-34.4,39.8
		c14.8-34.6,16.8-73.2,5.6-108.9l-0.3,0.1c8.3,34,4.9,70.2-9.8,102.2c2.6-12.6-0.2-22.9-8.2-29.8c-2.2-1.9-3.6-4.6-3.8-7.5
		c-0.2-2.9,0.7-5.8,2.6-8c2.5-2.9,3.2-6.2,2.2-9.6c-2-6.2-9.8-11.8-20.3-14.6h-0.1c-2-0.5-3.8-1.4-5.2-2.6c-2.5-2.2-4.1-5.3-4.3-8.6
		c-0.2-3.4,0.8-6.6,3-9.2c0.8-0.9,1.1-1.7,0.9-2.5c-0.4-1.8-3.2-3.1-6.4-4.5c-1.5-0.7-3-1.3-4.4-2.1c-0.1,0-0.2-0.1-0.3-0.2
		c-0.8-0.5-1.4-0.9-1.9-1.3c-2.5-2.2-4.1-5.3-4.3-8.6C1478.6,209.9,1479.7,206.6,1481.9,204.1z M1126.5,441.7
		c-0.3-2,0.4-3.9,2.1-5.4l0,0c0.7-0.7,0.9-1.2,0.8-1.6c-0.3-0.8-1.9-1-3.9-1.2h-0.4c-2.7,0-5-2-5.5-4.7c-0.4-2.5-2-3.7-3-4.3
		c-0.1-0.1-0.3-0.1-0.5-0.2l-0.1-0.1c-2.3-1.4-3.2-4.1-2.4-6.7c0.9-2.6,3.5-4.1,6.2-3.7c2.7,0.3,3.5-0.8,3.8-1.2l0,0
		c1.1-1.5,2.6-2.5,4.5-2.8c1.2-0.2,2.4-0.3,3.5-0.4c3.2-0.2,5.9-0.4,7.9-3l0.1-0.1c1.4-2.3,3.7-3.8,6.3-4.2c1.9-0.3,3.8,0,5.7,0.9
		l0,0c0.5,0.3,2.2,1.3,6.5,5c0.2,0.2,0.5,0.4,0.8,0.7c1.5,1.5,3,2.2,4.5,2c2.2-0.3,4.4-2.4,6.8-6.5l0.3-0.6c1.2-2.3,3.3-3.9,5.8-4.4
		c4.4-0.7,8.5,2.2,9.3,6.6c0.6,3.5,1.7,5.7,3.2,6.7c2,1.3,4.5,0.7,7.2,0.1c0.9-0.2,1.8-0.4,2.7-0.6c3.1-0.5,6.1,0.7,8,3.5
		c0,0,0.1,0.1,0.1,0.2c3.9,5.2,8,20.9,9.6,27.4c1.7,5.2,4.3,4.6,7,4c0.5-0.1,0.9-0.2,1.4-0.3c3.7-0.6,7.3,1.9,7.9,5.6
		c2.1,12.6,4.3,25.1,6.4,37.7c-12.6-24.4-33.5-43.4-58.9-53.7l-0.1,0.3c23,11.1,41.8,29.8,53.1,52.8c-5.9-7.2-12.9-10.3-20.5-9
		c-4.4,0.7-8.5-2.2-9.3-6.6c-0.5-2.8-2-4.8-4.4-5.7c-4.5-1.8-11.2,0-17.8,4.7l-0.1,0.1c-1.2,0.9-2.5,1.5-3.9,1.7
		c-5,0.8-9.8-2.5-10.6-7.5c-0.1-0.9-0.5-1.4-1-1.7c-1.2-0.6-3.3,0.4-5.6,1.5c-1.1,0.5-2.2,1.1-3.4,1.5h-0.1
		c-0.6,0.2-1.2,0.4-1.6,0.5c-5,0.8-9.8-2.5-10.6-7.5c-0.4-2.4,0.1-4.8,1.6-6.8c1.4-2,3.5-3.3,6-3.8c2.4-0.4,4-1.5,4.6-3
		c0.4-1,0.2-2.1-0.5-2.9c-1-1.3-3-1.8-5.4-1.4l-11.9,2l-5.4,0.9C1129.9,446.9,1127,444.8,1126.5,441.7z M1329.7,685.4
		c-3.4,1.6-7.2,1.8-10.7,0.6c-3.5-1.3-6.4-3.8-8-7.2c-0.4-0.9-0.8-1.8-1.2-2.7c-2.1-5.2-4.1-10.1-14.5-6.9
		c-12.6,5-43.3,16.5-56.5,16.2h-0.1c-0.4,0-0.5,0-0.6,0c-6.5-0.1-12.2-3.6-14.9-9.3c-0.8-1.7-1.5-3.4-2.2-5.1
		c-2.1-5.2-4-10-8.4-11.7c-3.5-1.4-8.3-0.5-14.8,2.5c-3.9,1.9-8.4,2.1-12.5,0.7c-4.1-1.5-7.4-4.4-9.3-8.4
		c-2.2-4.7-2.1-10.3,0.4-14.9l0.3-0.6c4.2-9.1,5.2-15.2,3.1-19.2c-1.4-2.6-4.2-4.3-8.3-5c-0.9-0.1-1.6-0.3-2.2-0.5
		c-12-2.8-15.4-4.5-16.1-5l0,0c-3.6-2-6.2-4.9-7.9-8.3c-2.3-4.8-2.4-10.4-0.3-15.4v-0.1c2.1-6.2-0.8-10.9-4-16.4
		c-1.2-2-2.4-4-3.5-6.3c-1.6-3.4-1.8-7.2-0.5-10.7l0,0c0.4-0.8,1.2-3.5-2.3-7.5c-3.8-4-4.3-10.3-1-14.8c3.2-4.4,8.9-6,14-3.9h0.1
		c0.3,0.1,0.7,0.3,1,0.5l0.2,0.1c1.9,0.9,5.8,2.1,10.3-0.1c5-2.4,11.1-0.9,14.4,3.6l0.6,0.7c2.5,2.9,4.7,5.4,6.3,4.9
		c0.9-0.2,1.4-1.3,1.8-3.3l0,0c0.5-4.3,2.9-7.8,6.6-9.6c2.8-1.3,6-1.5,8.9-0.5s5.3,3.2,6.6,6l0.7,1.5l14.6,30.5
		c2,4.3,5.1,6.9,8.3,7.2c2.1,0.2,4-0.7,5.2-2.5c1.8-2.7,1.7-6.7-0.3-10.9c-4.4-9.3-0.5-20.5,8.8-25c4.5-2.2,9.6-2.4,14.3-0.8
		c4.7,1.7,8.5,5.1,10.7,9.6c0.4,0.9,0.8,2,1.2,3.3v0.2c0.7,2.6,1,5,1.4,7.4c0.8,4.9,1.5,9.6,3.9,10.9c1,0.5,2.3,0.5,3.9-0.3
		c4.5-2.2,9.6-2.4,14.3-0.8c4.7,1.7,8.5,5.1,10.7,9.6c1.2,2.6,1.8,5.5,1.7,8.5v0.1c-0.1,16.2,4.7,29.5,12.8,34.7
		c4.4,2.8,9.4,3,14.5,0.6c3.9-1.9,8.4-2.1,12.5-0.7c4.1,1.5,7.4,4.4,9.3,8.4c6.8,14.3,20.6,22.3,40,23.3
		c-51.7,8.6-105.1-0.5-150.6-25.8l-0.2,0.3c46.8,30.1,102.9,42.3,158.2,34.4C1376.9,662.9,1353.3,674.2,1329.7,685.4z M1422.1,491.2
		L1422.1,491.2c-0.2,0.9-0.4,1.6-0.6,2.3c-2.3,7.7-7.8,24.1-12.1,36.6c-16.5-14.7-31.9-30-45.8-45.5c-26-29.1-49.1-61-68.7-94.7
		l-0.3,0.2c23.6,49.9,54.2,96,91,137c4.8,5.4,10.1,11,17,18.1c-5.7,0.1-40.4,0.4-52.7,0.1c-0.7,0-1.5,0-2.2-0.1c-0.1,0-0.1,0-0.2,0
		c-2.9-0.5-5.5-2.1-7.2-4.4c-1.3-1.8-2-4-2.1-6.2c-0.4-2.5-0.8-4.3-1.3-5.8l-2.4-3.8c-2.3-1.7-5.7-1.6-11.8-1.3
		c-2.2,0.1-4.7,0.2-7.5,0.3c-5.4,0.1-10.3-2.4-13.3-6.5c-3.5-4.9-3.9-11.5-1-16.8l0.1-0.3c1.3-2.6,1.2-5.4-0.2-7.9
		c-1.9-3.2-7.9-8.6-26.3-8.2c-7.3,0.6-14.1-2.6-18.4-8.4c-4.9-6.7-5.2-15.7-0.8-22.8c3-4.5,3.9-8.8,2.7-12.7
		c-1.5-5.1-6.7-9.6-14.8-13c-3.7-1.1-6.8-3.3-9-6.4c-2.7-3.8-3.8-8.3-3.1-12.9c0.7-4.6,3.2-8.6,7-11.3c3.5-2.5,7.8-3.6,12.1-3.1
		c2.5,0.1,4-0.4,4.6-1.6c1.1-2.1-0.8-6.2-6.8-14.4c-1-1.4-1.6-2.6-1.9-3.7c-1.2-3.6-0.9-7.7,0.9-11.1l0.2-0.4c1.4-3,0.2-6.9,0.1-7.3
		c-2.7-7-0.3-15,5.8-19.4c6.1-4.4,14.4-4.1,20.2,0.7c0.6,0.5,3.8,2.6,7,2.3c4.2-0.7,8.1,0.3,11.1,2.6c1,0.6,2,1.6,3,3
		c6,8.3,9.2,11.4,11.6,11c1.3-0.2,2.2-1.5,3-3.9c0.9-4.2,3.3-8,6.8-10.5c7.8-5.6,18.6-3.8,24.2,3.9c2.2,3.1,3.3,6.7,3.3,10.5
		c0.7,8.9,3.3,15.1,7.6,18.2c3.4,2.4,7.7,2.9,12.9,1.4c8.1-1.9,16.5,1.2,21.3,8c4.2,5.9,5.1,13.4,2.2,20.1
		c-6.1,17.4-2.9,24.7-0.5,27.5c2,2.3,4.8,3.2,7.7,2.7c6-1.1,12.1,1.4,15.6,6.3c3,4.2,3.8,9.6,2.1,14.5l-0.1,0.2
		c-0.9,2.7-1.8,5-2.6,7.1c-2.2,5.7-3.4,8.9-2.5,11.5l2.8,3.5c1.2,0.9,2.8,1.9,5.1,3.1c2.1,0.8,3.9,2.1,5.2,3.9
		C1421.9,485.4,1422.6,488.3,1422.1,491.2z M1461.8,388.9c-4.2-0.5-7.9-2.6-10.5-5.9s-3.7-7.4-3.2-11.5c0.6-5.3-1.1-9.8-5-12.9
		c-7.2-5.8-20.8-6.1-35.4-1h-0.1c-2.8,1-5.5,1.4-8.3,1c-9.8-1.2-16.8-10.1-15.7-19.9c0.2-1.7-0.1-2.8-0.9-3.6
		c-1.9-1.8-6.1-1.1-11-0.2c-2.3,0.4-4.6,0.8-7.2,1h-0.2c-1.3,0.1-2.4,0-3.3-0.1c-4.8-0.6-9-3-12-6.7c-3-3.8-4.3-8.5-3.7-13.2
		c1.2-9.8,10.1-16.8,19.9-15.6c7.1,0.8,10.7-2.3,11.1-5.7c0.4-3.3-2.4-7.3-9.5-8.1l-1.5-0.2l-32.2-3.9c-6.1-0.7-10.5-6.3-9.7-12.4
		c0.5-3.9,2.9-7.1,6.7-8.9l0,0c1.7-0.9,2.5-1.7,2.5-2.6c-0.1-1.6-3-2.8-6.4-4.2l-0.8-0.3c-5.1-1.6-8.3-6.6-7.7-11.9
		c0.6-4.8-1.7-7.9-3.1-9.4l-0.2-0.2c-0.3-0.2-0.5-0.5-0.8-0.7l-0.1-0.1c-3.5-3.9-3.8-9.6-0.7-13.8c3.1-4.3,8.9-5.8,13.7-3.6
		c4.7,2,6.9,0.4,7.5-0.2l0,0c2.8-2.2,6.3-3.2,9.9-2.8c2.4,0.3,4.6,0.8,6.8,1.2c6,1.3,11.2,2.4,16.1-1.4l0.1-0.1
		c3.9-3.4,9-5.1,14-4.5c3.6,0.4,7,2,10,4.6l0,0c0.7,0.6,3.3,3.2,9.4,13.1c0.4,0.5,0.7,1.1,1.2,1.8c1.9,3.5,4.2,5.6,7.1,6
		c4.3,0.7,9.5-2.1,16.5-8.6l0.4-0.5c3.4-3.7,8.4-5.5,13.3-4.9c4.2,0.5,7.9,2.6,10.5,5.9c2.6,3.3,3.7,7.4,3.2,11.5
		c-0.8,6.8-0.1,11.4,2.2,14.2c2.9,3.4,7.9,3.7,13.2,4c1.7,0.1,3.5,0.2,5.3,0.4c6,0.7,11,4.8,13,10.6c0,0.1,0.1,0.2,0.2,0.6l0,0
		c4.4,11.9,3.3,43.2,2.6,56.1c0.2,10.4,5.3,10.7,10.7,11c0.9,0.1,1.9,0.1,2.8,0.2c3.5,0.4,6.7,2.2,8.9,5c2.2,2.8,3.2,6.3,2.8,9.9
		c-3,24.8-6,49.6-9,74.4c-9.8-52.5-38-99.6-79.6-132.8l-0.2,0.3c36.8,33.5,61.5,79.1,69.5,128.5
		C1488.3,400.7,1476.8,390.7,1461.8,388.9z M1570.1,532c-4.6,1.7-7.6,5.2-8.7,10.4c-1.8,8.3-9.9,13.6-18.2,11.8
		c-14.4-3.1-28.3,2.6-40.1,16.4c23-43.2,60.3-77.7,105-97.1l-0.1-0.3c-49,17.6-90.1,52.4-115.7,97.9c5.1-23.9,10.1-47.9,15.2-71.8
		c1.5-7.1,8.5-11.6,15.6-10.1c0.9,0.2,1.8,0.4,2.7,0.7c5.1,1.4,9.9,2.7,13.4-6.9c3.5-12.2,12.4-41.6,20.2-51.2l0,0
		c0.3-0.4,0.3-0.5,0.4-0.5c3.7-4.8,9.6-6.9,15.4-5.7c1.7,0.4,3.4,0.8,5,1.3c5,1.4,9.7,2.7,13.5,0.4c3-1.8,5.2-5.9,6.5-12.4
		c1.8-8.3,9.9-13.6,18.2-11.8c4.8,1,8.8,4.3,10.8,8.8l0.3,0.6c4.4,8.2,8.3,12.4,12.5,13.2c2.8,0.5,5.6-0.7,8.5-3.4
		c0.6-0.6,1.2-1,1.7-1.3c8.9-7.3,12.1-8.9,12.9-9.2l0,0c3.6-1.5,7.2-1.9,10.7-1.1c4.9,1,9.1,4.1,11.6,8.6l0.1,0.1
		c3.4,5.1,8.6,5.7,14.5,6.3c2.2,0.2,4.4,0.5,6.7,1c3.4,0.7,6.4,2.8,8.3,5.7l0,0c0.4,0.8,1.9,2.9,6.9,2.6c5.2-0.5,10.1,2.7,11.6,7.7
		c1.5,4.9-0.6,10.1-5,12.6h-0.1c-0.3,0.2-0.7,0.3-1,0.5l-0.2,0.1c-1.8,0.9-4.8,3.1-5.8,7.7c-1.1,5.1-5.7,8.7-10.9,8.6l-0.8,0.1
		c-3.6,0.2-6.7,0.4-7.3,1.9c-0.3,0.8,0.2,1.8,1.5,3.2l0,0c3,2.8,4.2,6.6,3.4,10.4c-1.2,5.9-7,9.6-12.9,8.4l-21.8-4.6l-10.7-2.3
		c-6.8-1.4-10.7,1.4-11.3,4.6c-0.7,3.2,1.7,7.3,8.5,8.8c4.6,1,8.5,3.7,11.1,7.6c2.6,3.9,3.4,8.6,2.5,13.2
		c-2,9.5-11.3,15.5-20.8,13.5c-0.9-0.2-1.9-0.5-3.1-1l-0.2-0.1c-2.3-1-4.3-2.1-6.3-3.2c-4.3-2.3-8-4.4-10.3-3.3
		c-1,0.5-1.7,1.5-2,3.1c-2,9.5-11.3,15.5-20.8,13.5c-2.6-0.6-5.1-1.8-7.3-3.6l-0.1-0.1C1591.3,532.9,1578.6,529,1570.1,532z
		 M1839.1,717.3c-2.1,4.2-6.8,6.3-11.3,5.1h-0.1c-0.3-0.1-0.6-0.2-0.8-0.3l-0.2-0.1c-1.7-0.5-5.2-1-8.8,1.4c-4,2.7-9.3,2.2-12.6-1.2
		l-0.6-0.5c-2.5-2.1-4.7-4-6-3.4c-0.7,0.3-1,1.3-1.1,3l0,0c0.2,3.8-1.5,7-4.3,9c-2.2,1.5-4.8,2-7.5,1.5c-2.6-0.5-4.9-2-6.4-4.2
		l-12.9-19l-4.2-6.1c-2.3-3.4-5.2-5.2-8-5c-1.8,0.1-3.3,1.2-4.1,2.8c-1.2,2.5-0.6,5.9,1.7,9.2c2.4,3.5,3.3,7.8,2.5,12
		s-3.2,7.8-6.7,10.3c-7.3,5-17.3,3.1-22.3-4.2c-0.5-0.7-0.9-1.6-1.4-2.6v-0.1c-0.9-2.1-1.6-4.2-2.2-6.1c-1.3-4.3-2.5-7.9-4.7-8.7
		c-1-0.3-2-0.1-3.3,0.8c-7.3,5-17.3,3.1-22.3-4.2c-1.4-2-2.3-4.4-2.6-7v-0.1c-2-13.7-7.8-24.3-15.4-27.7c-4.1-1.8-8.4-1.4-12.4,1.4
		c-6.4,4.3-15.1,2.7-19.5-3.7c-7.6-11.1-20.3-16.1-36.7-14.5c42.6-13.9,88.9-13.1,130.7,2.3l0.1-0.3c-43.5-19.4-92.5-22.4-138.3-8.6
		c18.5-12.6,37-25.1,55.4-37.7c2.6-1.8,5.8-2.5,9-1.9c3.1,0.6,5.9,2.4,7.7,5c0.5,0.7,0.9,1.4,1.3,2.1c2.5,4.1,4.8,8.1,13.2,3.9
		c10-5.9,34.5-19.6,45.7-21l0,0c0.4-0.1,0.5-0.1,0.6-0.1c5.5-0.8,10.7,1.5,13.8,5.9c0.9,1.3,1.7,2.7,2.5,4c2.4,4.1,4.7,8,8.6,8.8
		c3.2,0.7,7.2-0.6,12.2-4.1c6.4-4.3,15.1-2.7,19.5,3.7c2.5,3.7,3.1,8.4,1.6,12.6l-0.2,0.6c-2.3,8.2-2.4,13.5-0.1,16.6
		c1.5,2.1,4.1,3.1,7.7,3.1c0.8,0,1.4,0.1,1.9,0.2c10.6,0.8,13.6,1.8,14.3,2.1l0,0c3.3,1.3,5.9,3.3,7.8,6c2.5,3.8,3.4,8.5,2.2,13v0.1
		c-0.9,5.5,2.1,9.2,5.6,13.4c1.3,1.5,2.6,3.1,3.8,4.9c1.8,2.6,2.5,5.8,1.9,9l0,0c-0.2,0.8-0.6,3.1,2.9,6.1
		C1840.1,707.9,1841.2,713.1,1839.1,717.3z M1903.2,545.6c-2,1.9-1.6,3.3-1.5,3.6v0.2c0.5,1.8,0.2,3.6-0.7,5.2c-0.6,1.1-1.3,2-2,3
		c-1.8,2.6-3.4,4.8-2.7,8v0.1c0.8,2.5,0.6,5.3-0.7,7.5c-0.9,1.6-2.3,2.9-4.4,3.9l0,0c-0.6,0.3-2.6,0.9-7.9,1.7
		c-0.3,0.1-0.6,0.1-1.1,0.2c-2.1,0.2-3.6,0.9-4.4,2.2c-1.2,1.9-1,4.9,0.6,9.4l0.3,0.6c1.1,2.4,0.9,5.1-0.3,7.3
		c-1.1,1.9-2.8,3.2-4.9,3.8s-4.2,0.3-6.1-0.8c-3.1-1.8-5.5-2.4-7.3-1.8c-2.3,0.7-3.4,3-4.7,5.5c-0.4,0.8-0.8,1.6-1.3,2.4
		c-1.5,2.7-4.4,4.2-7.8,4c-0.1,0-0.1,0-0.2,0c-6.5-0.3-21.2-7.2-27.2-10.2c-5.1-2-6.3,0.3-7.5,2.9c-0.2,0.4-0.4,0.9-0.7,1.3
		c-0.9,1.6-2.4,2.7-4.2,3.2c-1.8,0.5-3.6,0.2-5.2-0.7c-11.1-6.4-22.1-12.8-33.2-19.1c26.9,5.8,54.9,1.9,79-11.1l-0.2-0.3
		c-23.2,10.6-49.6,13.2-74.5,7.2c9.3,0,16.1-3.4,20-10c1.1-1.9,2.8-3.2,4.9-3.8s4.2-0.3,6.1,0.8c2.4,1.4,4.9,1.5,7.2,0.2
		c4.2-2.3,7.2-8.7,7.7-16.7v-0.1c0.1-1.5,0.5-2.9,1.2-4.1c1.2-2.1,3.2-3.7,5.6-4.3s4.8-0.3,7,0.9c0.8,0.4,1.4,0.5,2,0.3
		c1.3-0.6,1.8-2.8,2.4-5.3c0.3-1.2,0.6-2.3,0.9-3.4l0.1-0.3c0.2-0.6,0.5-1.1,0.7-1.6c1.2-2.1,3.2-3.7,5.6-4.3s4.8-0.3,7,0.9
		c4.4,2.5,5.9,8.2,3.4,12.6c-1.9,3.3-1.1,5.7,0.5,6.6c1.5,0.9,4,0.4,5.9-2.9l8.3-14.5l0.5-0.8c0.8-1.3,2-2.3,3.4-2.7
		c1.5-0.4,3-0.2,4.3,0.6c1.7,1,2.8,2.8,2.9,5.1l0,0c0.1,1,0.3,1.5,0.8,1.7c0.8,0.3,2-0.9,3.4-2.2l0.3-0.3c1.8-2.1,4.8-2.6,7.1-1.2
		c2.2,1.3,4.2,0.8,5.3,0.4c0.1-0.1,0.3-0.1,0.5-0.2h0.1c2.5-0.8,5.3,0.2,6.6,2.4C1905.7,540.7,1905.3,543.7,1903.2,545.6z"/>
	<path class="st4" d="M1398.7,881.1c63.1-12,104.5-72.8,92.5-135.9c-7.8-41-36.3-72.9-72.6-86.8c22.7,16.8,39.3,41.8,45,71.7
		c12,63.1-29.4,123.9-92.5,135.9c-22,4.2-43.8,1.8-63.3-5.7C1333,878.9,1365.5,887.4,1398.7,881.1z"/>
	<path class="st4" d="M1496.7,443.8c0,0-7.3,3.4-14.2,7.9c-30.8,20.4-49.9,56.5-49.9,96.3c0,20.5,7,38.9,14.4,56.6
		c13.8,32.9,80.5,127.1,80.5,194.9l0.7-73.8c0-61.1-47.4-117.2-59.9-146.9c-6.7-15.9-13-32.5-13-51
		C1455.4,493.6,1471.5,463.2,1496.7,443.8z"/>
	<path class="st4" d="M1601,595.4h54.7c35.9,0,65-29.1,65-65c0-3.5-0.4-6.9-0.9-10.3c-4.9,31-31.7,54.7-64.1,54.7H1601
		c-35.9,0-65,29.1-65,65c0,3.5,0.4,6.9,0.9,10.3C1541.8,619.1,1568.6,595.4,1601,595.4z"/>
	<path class="st4" d="M1579.3,761.5c-12.5-37.8-8.3-77,8.5-109.8c-34.4,31.8-49.1,81.9-33.4,129.3c21.4,64.5,91.1,99.4,155.6,78
		c0.1,0,0.2-0.1,0.3-0.1C1652.2,857.3,1598.6,819.9,1579.3,761.5z"/>
	<path class="st4" d="M786.8,539c30.5,37.2,65.4,70.7,104.1,99.4c-26.8-36-51.1-63-69.4-103.6c49.3-37.3,93-81.6,129.6-131.4h0.1
		c4.3-5.7,11.2-9.4,18.9-9.4s14.5,3.7,18.9,9.4h0.1c12.6,17.1,26,33.5,40.2,49.3c46.4,51.8,122.8,43.3,122.8,43.3
		s-45.5-5.1-86.4-53.5c-17-19.7-32.8-40.4-47.4-62.2l0,0l0,0c-10.7-15-28.2-24.9-48.1-24.9c-20.2,0-38,10.2-48.6,25.7l0,0l0,0
		c-38.5,57.4-86.1,108.1-140.7,150.2c2.1,2.5,4.2,5,6.3,7.5L786.8,539z"/>
	<path class="st4" d="M696.3,486.3L696.3,486.3l-0.1,0.1c-17.5-24.7-46.4-40.9-79-40.9c-33.2,0-62.4,16.7-79.8,42.2h-0.1l-0.1-0.1
		c-124.7,186-307.5,329.7-522.3,405.3c66.4-7.2,137.2-22.3,196.9-52.1C360.3,766.1,488.5,657.1,586,524.2h0.1
		c7.1-9.3,18.4-15.4,31-15.4c12.7,0,23.9,6,31,15.4h0.1c190.5,259.4,497.6,427.8,844,427.8c12.5,0,24.9-0.3,37.2-0.7
		C1182,939.1,877.5,757.4,696.3,486.3z"/>
</g>
</svg>
