<svg id="b207696f-0bc4-48e7-bef9-8e58614c7c3b" data-name="Calque 1" xmlns="http://www.w3.org/2000/svg" width="73.1" height="48.7" viewBox="0 0 73.1 48.7">
  <path d="M27.8,17.6A22.4,22.4,0,1,1,5.5,40,22.5,22.5,0,0,1,27.8,17.6m0-2A24.4,24.4,0,1,0,52.2,40,24.3,24.3,0,0,0,27.8,15.6Z" transform="translate(-3.5 -15.6)" style="fill: #7ac843"/>
  <path d="M52.2,17.6A22.4,22.4,0,1,1,29.8,40,22.4,22.4,0,0,1,52.2,17.6m0-2A24.4,24.4,0,1,0,76.5,40,24.4,24.4,0,0,0,52.2,15.6Z" transform="translate(-3.5 -15.6)" style="fill: #c0272d"/>
</svg>
