<?xml version="1.0" encoding="utf-8"?>
<!-- Generator: Adobe Illustrator 25.4.3, SVG Export Plug-In . SVG Version: 6.00 Build 0)  -->
<svg version="1.0" id="Calque_1" xmlns="http://www.w3.org/2000/svg" xmlns:xlink="http://www.w3.org/1999/xlink" x="0px" y="0px"
	 viewBox="0 0 200 100" style="enable-background:new 0 0 200 100;" xml:space="preserve">
<style type="text/css">
	.st0{fill:url(#SVGID_1_);}
	.st1{fill:#FFFFFF;}
</style>
<g>
	<linearGradient id="SVGID_1_" gradientUnits="userSpaceOnUse" x1="75" y1="26.6875" x2="125" y2="26.6875">
		<stop  offset="0" style="stop-color:#D4B43E"/>
		<stop  offset="1" style="stop-color:#CDA038"/>
	</linearGradient>
	<circle class="st0" cx="100" cy="26.7" r="25"/>
</g>
<g>
	<rect x="36.8" y="-15" transform="matrix(0.3361 -0.9418 0.9418 0.3361 10.2138 45.3436)" class="st1" width="1" height="60.9"/>
	<g>
		<polygon class="st1" points="5.3,4 9.3,7.6 8.9,5.3 10.7,3.8 		"/>
	</g>
	<g>
		<path class="st1" d="M68.8,26.7c-1.5,0-3.5,0.3-4.8,0.8l1.6-2l0-2.5C66.3,24.3,67.6,25.7,68.8,26.7z"/>
	</g>
</g>
<g>
	<rect x="132.3" y="14.9" transform="matrix(0.9418 -0.3361 0.3361 0.9418 4.2811 55.5896)" class="st1" width="60.9" height="1"/>
	<g>
		<polygon class="st1" points="194.7,4 189.3,3.8 191.1,5.3 190.7,7.6 		"/>
	</g>
	<g>
		<path class="st1" d="M131.2,26.7c1.2-1,2.5-2.4,3.2-3.7l0,2.5l1.6,2C134.7,26.9,132.7,26.7,131.2,26.7z"/>
	</g>
</g>
<g>
	<rect x="99.5" y="57.3" class="st1" width="1" height="34.5"/>
	<g>
		<path class="st1" d="M100,54.3c-0.5,1.4-1.4,3.2-2.4,4.3l2.4-0.9l2.4,0.9C101.4,57.5,100.5,55.7,100,54.3z"/>
	</g>
	<g>
		<path class="st1" d="M100,94.9c-0.5-1.4-1.4-3.2-2.4-4.3l2.4,0.9l2.4-0.9C101.4,91.7,100.5,93.4,100,94.9z"/>
	</g>
</g>
<g>
	<path d="M91.5,21.9l1.8,6.3h0l1.6-6.3h2.2v8.8h-1.7V27l0.1-3.3h0l-1.8,7h-1.3l-2-7h0l0,3.3v3.7h-1.1v-8.8H91.5z"/>
	<path d="M98.1,21.9h6v0.9h-2.1v7.9h-1.8v-7.9h-2.1V21.9z"/>
	<path d="M106.3,21.9l1.8,7h0l1.9-7h1l-2.4,8.8H107l-2.4-8.8H106.3z"/>
</g>
</svg>
