<svg id="bbc4cc2d-e203-4671-a480-c97bc24d22af" data-name="MTV" xmlns="http://www.w3.org/2000/svg" width="98.3mm" height="98.3mm" viewBox="0 0 278.7 278.7">
  <path d="M141.7,3.4A138.4,138.4,0,1,1,3.4,141.7" transform="translate(-2.4 -2.4)" style="fill: none;stroke: #c28d03;stroke-miterlimit: 10;stroke-width: 2px"/>
  <path d="M141.7,17.2a124.6,124.6,0,1,1,0,249.1" transform="translate(-2.4 -2.4)" style="fill: none;stroke: #fff;stroke-miterlimit: 10;stroke-width: 2px"/>
  <path d="M141.7,31A110.7,110.7,0,1,1,31,141.7" transform="translate(-2.4 -2.4)" style="fill: none;stroke: #c28d03;stroke-miterlimit: 10;stroke-width: 2px"/>
  <path d="M141.7,44.9a96.8,96.8,0,0,1,96.9,96.8" transform="translate(-2.4 -2.4)" style="fill: none;stroke: #fff;stroke-miterlimit: 10;stroke-width: 2px"/>
  <path d="M105.6,141.4h3.3V121.3h-3.3v-.4h6.7l5.4,15.8h0l5.5-15.8h6.5v.4h-3.3v20.1h3.3v.4h-9.5v-.4h3.3V121.5h-.1l-7,20.4-7-20.2h-.1v19.7h3.3v.4h-7Z" transform="translate(-2.4 -2.4)" style="fill: #fff"/>
  <path d="M138.7,141.4h3.2V121.3h-3a4.7,4.7,0,0,0-1.5.6,5.1,5.1,0,0,0-1.4,1.5,8.1,8.1,0,0,0-1.2,2.8h-.3v-5.4h17.8v5.4H152a8.1,8.1,0,0,0-1.2-2.8,4.1,4.1,0,0,0-1.4-1.5,4.7,4.7,0,0,0-1.5-.6h-3v20.1h3.2v.4h-9.4Z" transform="translate(-2.4 -2.4)" style="fill: #fff"/>
  <path d="M156,120.9h9.1v.4h-3.2l6.5,17.1,6.4-17.1h-3.2v-.4H178v.4h-2.7l-7.9,21h-.7l-8-21H156Z" transform="translate(-2.4 -2.4)" style="fill: #fff"/>
  <path d="M115.1,160.3h1.7a1.6,1.6,0,0,0,1.8,1.6c1,0,1.7-.4,1.7-1.2h0c0-.8-.6-1.1-1.5-1.3l-1.4-.5c-1.3-.5-2.2-1.2-2.2-2.7h0c0-1.6,1.4-2.6,3.2-2.6s3.2.9,3.3,2.7h-1.8a1.4,1.4,0,0,0-1.5-1.4c-.8,0-1.5.4-1.5,1.2h0c0,.7.4,1.1,1.2,1.3l1.4.5c1.4.4,2.5,1,2.5,2.6h0c0,1.8-1.5,2.7-3.4,2.7S115.2,162.1,115.1,160.3Z" transform="translate(-2.4 -2.4)" style="fill: #c28d03"/>
  <path d="M125.8,150v2.1h-1.7V150Zm-1.7,3.8h1.7V163h-1.7Z" transform="translate(-2.4 -2.4)" style="fill: #c28d03"/>
  <path d="M127.9,158.3v-.2c0-3.1,1.5-4.6,3.4-4.6a3,3,0,0,1,2.6,1.4v-1.1h1.7v8.8c0,2.9-1.6,3.9-3.8,3.9s-3.5-1.2-3.6-3h1.7a1.8,1.8,0,0,0,2,1.7c1.1,0,2-.6,2-2.4v-1.3a2.9,2.9,0,0,1-2.6,1.3C129.4,162.8,127.9,161.3,127.9,158.3Zm6-.1h0c0-2.2-.8-3.2-2.1-3.2s-2,1-2,3.2h0c0,2.3.8,3.2,2,3.2S133.9,160.5,133.9,158.2Z" transform="translate(-2.4 -2.4)" style="fill: #c28d03"/>
  <path d="M138.2,153.8h1.7v.9a2.8,2.8,0,0,1,2.4-1.2c1.9,0,2.9,1.2,2.9,3.5v6h-1.8v-5.6c0-1.6-.6-2.5-1.7-2.5s-1.8.9-1.8,2.5V163h-1.7Z" transform="translate(-2.4 -2.4)" style="fill: #c28d03"/>
  <path d="M147,160.5h0c0-2.3,2.2-3,5.5-3.1v-.5c0-1.4-.7-2-1.7-2a1.5,1.5,0,0,0-1.6,1.7h-1.8c.1-1.9,1.4-3,3.5-3s3.4.9,3.3,3.5v3.2a19.1,19.1,0,0,0,.2,2.8h-1.7a5.3,5.3,0,0,0-.1-1.2,2.8,2.8,0,0,1-2.6,1.4A2.7,2.7,0,0,1,147,160.5Zm5.5-2c-2.4.1-3.6.5-3.6,1.9h0a1.4,1.4,0,0,0,1.6,1.5c1.1,0,2-.7,2-2.4Z" transform="translate(-2.4 -2.4)" style="fill: #c28d03"/>
  <path d="M156.7,150h1.7v13h-1.7Z" transform="translate(-2.4 -2.4)" style="fill: #c28d03"/>
  <path d="M160.5,160.3h1.8c0,1.1.7,1.6,1.8,1.6s1.6-.4,1.6-1.2h0c0-.8-.6-1.1-1.4-1.3l-1.4-.5c-1.4-.5-2.3-1.2-2.3-2.7h0c0-1.6,1.4-2.6,3.2-2.6s3.2.9,3.4,2.7h-1.8a1.4,1.4,0,0,0-1.6-1.4c-.8,0-1.4.4-1.4,1.2h0a1.3,1.3,0,0,0,1.1,1.3l1.4.5c1.4.4,2.5,1,2.5,2.6h0c0,1.8-1.4,2.7-3.4,2.7S160.6,162.1,160.5,160.3Z" transform="translate(-2.4 -2.4)" style="fill: #c28d03"/>
</svg>
