<svg id="f110acef-76cc-4416-847f-b57ba239e674" data-name="Calque 4" xmlns="http://www.w3.org/2000/svg" width="92.63mm" height="93.05mm" viewBox="0 0 262.58 263.77">
  <g>
    <g>
      <path d="M123.43,29.28a114.11,114.11,0,0,0-86,66.54" transform="translate(-11.42 -10.26)" style="fill: none;stroke: #fff;stroke-miterlimit: 10"/>
      <polygon points="108.71 15.79 110.79 19.24 109.75 23.12 117.92 18.22 108.71 15.79" style="fill: #fff"/>
    </g>
    <g>
      <path d="M240.3,84.53a114,114,0,0,0-86.18-56" transform="translate(-11.42 -10.26)" style="fill: none;stroke: #fff;stroke-miterlimit: 10"/>
      <polygon points="230.73 70.03 228.25 73.2 224.25 73.62 231.74 79.5 230.73 70.03" style="fill: #fff"/>
    </g>
    <g>
      <path d="M28.94,125.34a115.78,115.78,0,0,0-1.18,16.44A113.67,113.67,0,0,0,64.92,226" transform="translate(-11.42 -10.26)" style="fill: none;stroke: #fff;stroke-miterlimit: 10"/>
      <polygon points="13.46 117.26 17.37 116.31 20.77 118.46 18.53 109.2 13.46 117.26" style="fill: #fff"/>
    </g>
    <g>
      <path d="M223.76,220.89a114.12,114.12,0,0,0,28.25-108" transform="translate(-11.42 -10.26)" style="fill: none;stroke: #fff;stroke-miterlimit: 10"/>
      <polygon points="216.91 211.23 213.18 209.72 211.68 205.99 208.08 214.81 216.91 211.23" style="fill: #fff"/>
    </g>
    <g>
      <path d="M90.17,243.45a114.13,114.13,0,0,0,109.51-3.52" transform="translate(-11.42 -10.26)" style="fill: none;stroke: #fff;stroke-miterlimit: 10"/>
      <polygon points="79.5 237.74 79.86 233.74 82.99 231.21 73.5 230.34 79.5 237.74" style="fill: #fff"/>
    </g>
  </g>
  <g>
    <text transform="translate(18.69 82.36) rotate(-64.45)" style="font-size: 12px;fill: #c28d03;font-family: AntarcticaBeta-CnMdContrast, Antarctica Beta;font-weight: 500">R</text>
    <text transform="matrix(0.48, -0.88, 0.88, 0.48, 21.85, 75.76)" style="font-size: 12px;fill: #c28d03;font-family: AntarcticaBeta-CnMdContrast, Antarctica Beta;font-weight: 500">e</text>
    <text transform="translate(24.99 70.05) rotate(-58.18)" style="font-size: 12px;fill: #c28d03;font-family: AntarcticaBeta-CnMdContrast, Antarctica Beta;font-weight: 500">c</text>
    <text transform="matrix(0.57, -0.82, 0.82, 0.57, 28.29, 64.73)" style="font-size: 12px;fill: #c28d03;font-family: AntarcticaBeta-CnMdContrast, Antarctica Beta;font-weight: 500">o</text>
    <text transform="translate(31.87 59.56) rotate(-52.33)" style="font-size: 12px;fill: #c28d03;font-family: AntarcticaBeta-CnMdContrast, Antarctica Beta;font-weight: 500">v</text>
    <text transform="translate(35.43 54.93) rotate(-49.52)" style="font-size: 12px;fill: #c28d03;font-family: AntarcticaBeta-CnMdContrast, Antarctica Beta;font-weight: 500">e</text>
    <text transform="translate(39.69 49.98) rotate(-47)" style="font-size: 12px;fill: #c28d03;font-family: AntarcticaBeta-CnMdContrast, Antarctica Beta;font-weight: 500">r</text>
    <text transform="translate(42.54 46.88) rotate(-44.52)" style="font-size: 12px;fill: #c28d03;font-family: AntarcticaBeta-CnMdContrast, Antarctica Beta;font-weight: 500">y</text>
    <text transform="translate(143.51 10.27) rotate(7.89)" style="font-size: 12px;fill: #c28d03;font-family: AntarcticaBeta-CnMdContrast, Antarctica Beta;font-weight: 500">R</text>
    <text transform="matrix(0.98, 0.19, -0.19, 0.98, 150.78, 11.29)" style="font-size: 12px;fill: #c28d03;font-family: AntarcticaBeta-CnMdContrast, Antarctica Beta;font-weight: 500">e</text>
    <text transform="matrix(0.97, 0.24, -0.24, 0.97, 157.14, 12.54)" style="font-size: 12px;fill: #c28d03;font-family: AntarcticaBeta-CnMdContrast, Antarctica Beta;font-weight: 500">c</text>
    <text transform="translate(163.23 14.08) rotate(17.21)" style="font-size: 12px;fill: #c28d03;font-family: AntarcticaBeta-CnMdContrast, Antarctica Beta;font-weight: 500">o</text>
    <text transform="matrix(0.94, 0.34, -0.34, 0.94, 169.22, 15.93)" style="font-size: 12px;fill: #c28d03;font-family: AntarcticaBeta-CnMdContrast, Antarctica Beta;font-weight: 500">v</text>
    <text transform="matrix(0.92, 0.39, -0.39, 0.92, 174.73, 17.93)" style="font-size: 12px;fill: #c28d03;font-family: AntarcticaBeta-CnMdContrast, Antarctica Beta;font-weight: 500">e</text>
    <text transform="matrix(0.9, 0.43, -0.43, 0.9, 180.71, 20.48)" style="font-size: 12px;fill: #c28d03;font-family: AntarcticaBeta-CnMdContrast, Antarctica Beta;font-weight: 500">r</text>
    <text transform="translate(184.54 22.27) rotate(27.99)" style="font-size: 12px;fill: #c28d03;font-family: AntarcticaBeta-CnMdContrast, Antarctica Beta;font-weight: 500">y</text>
    <text transform="matrix(-0.72, -0.69, 0.69, -0.72, 48.15, 221.58)" style="font-size: 12px;fill: #c28d03;font-family: AntarcticaBeta-CnMdContrast, Antarctica Beta;font-weight: 500">E</text>
    <text transform="translate(43.28 216.87) rotate(-132.97)" style="font-size: 12px;fill: #c28d03;font-family: AntarcticaBeta-CnMdContrast, Antarctica Beta;font-weight: 500">a</text>
    <text transform="matrix(-0.65, -0.76, 0.76, -0.65, 39.03, 212.28)" style="font-size: 12px;fill: #c28d03;font-family: AntarcticaBeta-CnMdContrast, Antarctica Beta;font-weight: 500">r</text>
    <text transform="translate(36.28 209.04) rotate(-128.83)" style="font-size: 12px;fill: #c28d03;font-family: AntarcticaBeta-CnMdContrast, Antarctica Beta;font-weight: 500">l</text>
    <text transform="translate(34.37 206.73) rotate(-126.62)" style="font-size: 12px;fill: #c28d03;font-family: AntarcticaBeta-CnMdContrast, Antarctica Beta;font-weight: 500">y</text>
    <text transform="translate(30.54 201.51) rotate(-124.59)" style="font-size: 12px;fill: #c28d03;font-family: AntarcticaBeta-CnMdContrast, Antarctica Beta;font-weight: 500"> </text>
    <text transform="translate(29.28 199.72) rotate(-123.07)" style="font-size: 12px;fill: #c28d03;font-family: AntarcticaBeta-CnMdContrast, Antarctica Beta;font-weight: 500">r</text>
    <text transform="matrix(-0.51, -0.86, 0.86, -0.51, 27.06, 196.37)" style="font-size: 12px;fill: #c28d03;font-family: AntarcticaBeta-CnMdContrast, Antarctica Beta;font-weight: 500">e</text>
    <text transform="translate(23.75 190.78) rotate(-117.64)" style="font-size: 12px;fill: #c28d03;font-family: AntarcticaBeta-CnMdContrast, Antarctica Beta;font-weight: 500">c</text>
    <text transform="translate(20.84 185.24) rotate(-114.64)" style="font-size: 12px;fill: #c28d03;font-family: AntarcticaBeta-CnMdContrast, Antarctica Beta;font-weight: 500">e</text>
    <text transform="translate(18.14 179.34) rotate(-111.71)" style="font-size: 12px;fill: #c28d03;font-family: AntarcticaBeta-CnMdContrast, Antarctica Beta;font-weight: 500">s</text>
    <text transform="translate(15.95 173.83) rotate(-108.9)" style="font-size: 12px;fill: #c28d03;font-family: AntarcticaBeta-CnMdContrast, Antarctica Beta;font-weight: 500">s</text>
    <text transform="matrix(-0.29, -0.96, 0.96, -0.29, 14.05, 168.22)" style="font-size: 12px;fill: #c28d03;font-family: AntarcticaBeta-CnMdContrast, Antarctica Beta;font-weight: 500">i</text>
    <text transform="matrix(-0.25, -0.97, 0.97, -0.25, 13.16, 165.38)" style="font-size: 12px;fill: #c28d03;font-family: AntarcticaBeta-CnMdContrast, Antarctica Beta;font-weight: 500">o</text>
    <text transform="translate(11.51 159.03) rotate(-101.44)" style="font-size: 12px;fill: #c28d03;font-family: AntarcticaBeta-CnMdContrast, Antarctica Beta;font-weight: 500">n</text>
    <text transform="translate(248.27 100.56) rotate(76.97)" style="font-size: 12px;fill: #c28d03;font-family: AntarcticaBeta-CnMdContrast, Antarctica Beta;font-weight: 500">E</text>
    <text transform="matrix(0.17, 0.98, -0.98, 0.17, 249.8, 107.18)" style="font-size: 12px;fill: #c28d03;font-family: AntarcticaBeta-CnMdContrast, Antarctica Beta;font-weight: 500">a</text>
    <text transform="translate(250.86 113.35) rotate(82.52)" style="font-size: 12px;fill: #c28d03;font-family: AntarcticaBeta-CnMdContrast, Antarctica Beta;font-weight: 500">r</text>
    <text transform="matrix(0.1, 0.99, -0.99, 0.1, 251.41, 117.56)" style="font-size: 12px;fill: #c28d03;font-family: AntarcticaBeta-CnMdContrast, Antarctica Beta;font-weight: 500">l</text>
    <text transform="matrix(0.06, 1, -1, 0.06, 251.74, 120.54)" style="font-size: 12px;fill: #c28d03;font-family: AntarcticaBeta-CnMdContrast, Antarctica Beta;font-weight: 500">y</text>
    <text transform="matrix(0.03, 1, -1, 0.03, 252.11, 126.98)" style="font-size: 12px;fill: #c28d03;font-family: AntarcticaBeta-CnMdContrast, Antarctica Beta;font-weight: 500"> </text>
    <text transform="translate(252.18 129.18) rotate(89.85)" style="font-size: 12px;fill: #c28d03;font-family: AntarcticaBeta-CnMdContrast, Antarctica Beta;font-weight: 500">r</text>
    <text transform="translate(252.22 133.19) rotate(92.31)" style="font-size: 12px;fill: #c28d03;font-family: AntarcticaBeta-CnMdContrast, Antarctica Beta;font-weight: 500">e</text>
    <text transform="translate(251.95 139.69) rotate(95.29)" style="font-size: 12px;fill: #c28d03;font-family: AntarcticaBeta-CnMdContrast, Antarctica Beta;font-weight: 500">c</text>
    <text transform="translate(251.38 145.95) rotate(98.29)" style="font-size: 12px;fill: #c28d03;font-family: AntarcticaBeta-CnMdContrast, Antarctica Beta;font-weight: 500">e</text>
    <text transform="matrix(-0.19, 0.98, -0.98, -0.19, 250.44, 152.38)" style="font-size: 12px;fill: #c28d03;font-family: AntarcticaBeta-CnMdContrast, Antarctica Beta;font-weight: 500">s</text>
    <text transform="translate(249.3 158.15) rotate(104)" style="font-size: 12px;fill: #c28d03;font-family: AntarcticaBeta-CnMdContrast, Antarctica Beta;font-weight: 500">s</text>
    <text transform="translate(247.83 163.9) rotate(106.12)" style="font-size: 12px;fill: #c28d03;font-family: AntarcticaBeta-CnMdContrast, Antarctica Beta;font-weight: 500">i</text>
    <text transform="translate(247.04 166.79) rotate(108.39)" style="font-size: 12px;fill: #c28d03;font-family: AntarcticaBeta-CnMdContrast, Antarctica Beta;font-weight: 500">o</text>
    <text transform="translate(244.97 173.03) rotate(111.48)" style="font-size: 12px;fill: #c28d03;font-family: AntarcticaBeta-CnMdContrast, Antarctica Beta;font-weight: 500">n</text>
    <text transform="translate(192.34 236.47) rotate(150.9)" style="font-size: 12px;fill: #c28d03;font-family: AntarcticaBeta-CnMdContrast, Antarctica Beta;font-weight: 500">F</text>
    <text transform="translate(186.73 239.59) rotate(153.94)" style="font-size: 12px;fill: #c28d03;font-family: AntarcticaBeta-CnMdContrast, Antarctica Beta;font-weight: 500">u</text>
    <text transform="translate(180.86 242.42) rotate(156.18)" style="font-size: 12px;fill: #c28d03;font-family: AntarcticaBeta-CnMdContrast, Antarctica Beta;font-weight: 500">l</text>
    <text transform="matrix(-0.92, 0.38, -0.38, -0.92, 178.09, 243.65)" style="font-size: 12px;fill: #c28d03;font-family: AntarcticaBeta-CnMdContrast, Antarctica Beta;font-weight: 500">l</text>
    <text transform="matrix(-0.93, 0.36, -0.36, -0.93, 175.28, 244.8)" style="font-size: 12px;fill: #c28d03;font-family: AntarcticaBeta-CnMdContrast, Antarctica Beta;font-weight: 500"> </text>
    <text transform="translate(173.28 245.59) rotate(160.37)" style="font-size: 12px;fill: #c28d03;font-family: AntarcticaBeta-CnMdContrast, Antarctica Beta;font-weight: 500">r</text>
    <text transform="translate(169.48 246.98) rotate(162.82)" style="font-size: 12px;fill: #c28d03;font-family: AntarcticaBeta-CnMdContrast, Antarctica Beta;font-weight: 500">e</text>
    <text transform="translate(163.28 248.89) rotate(165.84)" style="font-size: 12px;fill: #c28d03;font-family: AntarcticaBeta-CnMdContrast, Antarctica Beta;font-weight: 500">c</text>
    <text transform="translate(157.18 250.44) rotate(168.87)" style="font-size: 12px;fill: #c28d03;font-family: AntarcticaBeta-CnMdContrast, Antarctica Beta;font-weight: 500">e</text>
    <text transform="translate(150.81 251.69) rotate(171.79)" style="font-size: 12px;fill: #c28d03;font-family: AntarcticaBeta-CnMdContrast, Antarctica Beta;font-weight: 500">s</text>
    <text transform="matrix(-1, 0.09, -0.09, -1, 144.99, 252.53)" style="font-size: 12px;fill: #c28d03;font-family: AntarcticaBeta-CnMdContrast, Antarctica Beta;font-weight: 500">s</text>
    <text transform="translate(139.08 253.07) rotate(176.64)" style="font-size: 12px;fill: #c28d03;font-family: AntarcticaBeta-CnMdContrast, Antarctica Beta;font-weight: 500">i</text>
    <text transform="translate(136.09 253.28) rotate(178.87)" style="font-size: 12px;fill: #c28d03;font-family: AntarcticaBeta-CnMdContrast, Antarctica Beta;font-weight: 500">o</text>
    <text transform="translate(129.53 253.41) rotate(-178.12)" style="font-size: 12px;fill: #c28d03;font-family: AntarcticaBeta-CnMdContrast, Antarctica Beta;font-weight: 500">n</text>
  </g>
  <path d="M224.9,111.23l-34.55-31.1v13c-64.76,0-114.45,39.36-114.45,104.12a117.5,117.5,0,0,0,.82,13.86c6.86-58.22,53.57-82.56,113.63-82.56v13.8Z" transform="translate(-11.42 -10.26)" style="fill: #101010"/>
  <g>
    <circle cx="97.9" cy="124.57" r="3.9" style="fill: none;stroke: #fff;stroke-miterlimit: 10;stroke-width: 2px"/>
    <circle cx="58.64" cy="162.15" r="2.43" style="fill: none;stroke: #fff;stroke-miterlimit: 10;stroke-width: 2px"/>
    <text transform="translate(107.08 127.56)" style="font-size: 10px;fill: #fff;font-family: AntarcticaBeta-CnMdContrast, Antarctica Beta;font-weight: 500">Time Horizon</text>
    <text transform="translate(66.23 164.58)" style="font-size: 10px;fill: #fff;font-family: AntarcticaBeta-CnMdContrast, Antarctica Beta;font-weight: 500">Exp<tspan x="16.93" y="0" style="letter-spacing: -0.000537109375em">e</tspan><tspan x="22.42" y="0" style="letter-spacing: -0.010009765625em">c</tspan><tspan x="27.65" y="0" style="letter-spacing: -0.0189453125em">t</tspan><tspan x="31.07" y="0" style="letter-spacing: -0.000537109375em">e</tspan><tspan x="36.56" y="0">d </tspan><tspan x="44.13" y="0" style="letter-spacing: -0.016943359375em">r</tspan><tspan x="47.56" y="0" style="letter-spacing: -0.010009765625em">e</tspan><tspan x="52.95" y="0">turn</tspan></text>
    <circle cx="155.94" cy="87.48" r="5.97" style="fill: none;stroke: #fff;stroke-miterlimit: 10;stroke-width: 2px"/>
    <text transform="translate(166.92 90.6)" style="font-size: 10px;fill: #fff;font-family: AntarcticaBeta-CnMdContrast, Antarctica Beta;font-weight: 500">Risk <tspan x="20.92" y="0" style="letter-spacing: -0.02099609375em">a</tspan><tspan x="26" y="0" style="letter-spacing: -0.02548828125em">v</tspan><tspan x="30.96" y="0">ersion</tspan></text>
  </g>
</svg>
