<svg id="ab623e8b-0be6-4088-85bf-6ce11843986e" data-name="Calque 4" xmlns="http://www.w3.org/2000/svg" width="92.6mm" height="93.1mm" viewBox="0 0 262.6 263.8">
  <g>
    <g>
      <path d="M123.4,29.3a113.9,113.9,0,0,0-86,66.5" transform="translate(-11.4 -10.3)" style="fill: none;stroke: #fff;stroke-miterlimit: 10"/>
      <polygon points="108.7 15.8 110.8 19.2 109.8 23.1 117.9 18.2 108.7 15.8" style="fill: #fff"/>
    </g>
    <g>
      <path d="M240.3,84.5a114.2,114.2,0,0,0-86.2-56" transform="translate(-11.4 -10.3)" style="fill: none;stroke: #fff;stroke-miterlimit: 10"/>
      <polygon points="230.7 70 228.3 73.2 224.3 73.6 231.7 79.5 230.7 70" style="fill: #fff"/>
    </g>
    <g>
      <path d="M28.9,125.3a128.2,128.2,0,0,0-1.1,16.5A113.9,113.9,0,0,0,64.9,226" transform="translate(-11.4 -10.3)" style="fill: none;stroke: #fff;stroke-miterlimit: 10"/>
      <polygon points="13.5 117.3 17.4 116.3 20.8 118.5 18.5 109.2 13.5 117.3" style="fill: #fff"/>
    </g>
    <g>
      <path d="M223.8,220.9a114.2,114.2,0,0,0,28.2-108" transform="translate(-11.4 -10.3)" style="fill: none;stroke: #fff;stroke-miterlimit: 10"/>
      <polygon points="216.9 211.2 213.2 209.7 211.7 206 208.1 214.8 216.9 211.2" style="fill: #fff"/>
    </g>
    <g>
      <path d="M90.2,243.4a113.5,113.5,0,0,0,109.5-3.5" transform="translate(-11.4 -10.3)" style="fill: none;stroke: #fff;stroke-miterlimit: 10"/>
      <polygon points="79.5 237.7 79.9 233.7 83 231.2 73.5 230.3 79.5 237.7" style="fill: #fff"/>
    </g>
  </g>
  <g>
    <text transform="translate(18.7 82.4) rotate(-64.5)" style="font-size: 12px;fill: #c28d03;font-family: AntarcticaBeta-CnMdContrast, Antarctica Beta;font-weight: 500">R</text>
    <text transform="matrix(0.48, -0.88, 0.88, 0.48, 21.85, 75.76)" style="font-size: 12px;fill: #c28d03;font-family: AntarcticaBeta-CnMdContrast, Antarctica Beta;font-weight: 500">e</text>
    <text transform="translate(25 70) rotate(-58.2)" style="font-size: 12px;fill: #c28d03;font-family: AntarcticaBeta-CnMdContrast, Antarctica Beta;font-weight: 500">c</text>
    <text transform="matrix(0.57, -0.82, 0.82, 0.57, 28.29, 64.73)" style="font-size: 12px;fill: #c28d03;font-family: AntarcticaBeta-CnMdContrast, Antarctica Beta;font-weight: 500">o</text>
    <text transform="translate(31.9 59.6) rotate(-52.3)" style="font-size: 12px;fill: #c28d03;font-family: AntarcticaBeta-CnMdContrast, Antarctica Beta;font-weight: 500">v</text>
    <text transform="translate(35.4 54.9) rotate(-49.5)" style="font-size: 12px;fill: #c28d03;font-family: AntarcticaBeta-CnMdContrast, Antarctica Beta;font-weight: 500">e</text>
    <text transform="translate(39.7 50) rotate(-47)" style="font-size: 12px;fill: #c28d03;font-family: AntarcticaBeta-CnMdContrast, Antarctica Beta;font-weight: 500">r</text>
    <text transform="translate(42.5 46.9) rotate(-44.5)" style="font-size: 12px;fill: #c28d03;font-family: AntarcticaBeta-CnMdContrast, Antarctica Beta;font-weight: 500">y</text>
    <text transform="translate(143.5 10.3) rotate(7.9)" style="font-size: 12px;fill: #c28d03;font-family: AntarcticaBeta-CnMdContrast, Antarctica Beta;font-weight: 500">R</text>
    <text transform="matrix(0.98, 0.19, -0.19, 0.98, 150.78, 11.29)" style="font-size: 12px;fill: #c28d03;font-family: AntarcticaBeta-CnMdContrast, Antarctica Beta;font-weight: 500">e</text>
    <text transform="matrix(0.97, 0.24, -0.24, 0.97, 157.14, 12.54)" style="font-size: 12px;fill: #c28d03;font-family: AntarcticaBeta-CnMdContrast, Antarctica Beta;font-weight: 500">c</text>
    <text transform="translate(163.2 14.1) rotate(17.2)" style="font-size: 12px;fill: #c28d03;font-family: AntarcticaBeta-CnMdContrast, Antarctica Beta;font-weight: 500">o</text>
    <text transform="matrix(0.94, 0.34, -0.34, 0.94, 169.22, 15.93)" style="font-size: 12px;fill: #c28d03;font-family: AntarcticaBeta-CnMdContrast, Antarctica Beta;font-weight: 500">v</text>
    <text transform="matrix(0.92, 0.39, -0.39, 0.92, 174.73, 17.93)" style="font-size: 12px;fill: #c28d03;font-family: AntarcticaBeta-CnMdContrast, Antarctica Beta;font-weight: 500">e</text>
    <text transform="matrix(0.9, 0.43, -0.43, 0.9, 180.71, 20.48)" style="font-size: 12px;fill: #c28d03;font-family: AntarcticaBeta-CnMdContrast, Antarctica Beta;font-weight: 500">r</text>
    <text transform="translate(184.5 22.3) rotate(28)" style="font-size: 12px;fill: #c28d03;font-family: AntarcticaBeta-CnMdContrast, Antarctica Beta;font-weight: 500">y</text>
    <text transform="matrix(-0.72, -0.69, 0.69, -0.72, 48.15, 221.58)" style="font-size: 12px;fill: #c28d03;font-family: AntarcticaBeta-CnMdContrast, Antarctica Beta;font-weight: 500">E</text>
    <text transform="translate(43.3 216.9) rotate(-133)" style="font-size: 12px;fill: #c28d03;font-family: AntarcticaBeta-CnMdContrast, Antarctica Beta;font-weight: 500">a</text>
    <text transform="matrix(-0.65, -0.76, 0.76, -0.65, 39.03, 212.28)" style="font-size: 12px;fill: #c28d03;font-family: AntarcticaBeta-CnMdContrast, Antarctica Beta;font-weight: 500">r</text>
    <text transform="translate(36.3 209) rotate(-128.8)" style="font-size: 12px;fill: #c28d03;font-family: AntarcticaBeta-CnMdContrast, Antarctica Beta;font-weight: 500">l</text>
    <text transform="translate(34.4 206.7) rotate(-126.6)" style="font-size: 12px;fill: #c28d03;font-family: AntarcticaBeta-CnMdContrast, Antarctica Beta;font-weight: 500">y</text>
    <text transform="translate(30.5 201.5) rotate(-124.6)" style="font-size: 12px;fill: #c28d03;font-family: AntarcticaBeta-CnMdContrast, Antarctica Beta;font-weight: 500"> </text>
    <text transform="translate(29.3 199.7) rotate(-123.1)" style="font-size: 12px;fill: #c28d03;font-family: AntarcticaBeta-CnMdContrast, Antarctica Beta;font-weight: 500">r</text>
    <text transform="matrix(-0.51, -0.86, 0.86, -0.51, 27.06, 196.37)" style="font-size: 12px;fill: #c28d03;font-family: AntarcticaBeta-CnMdContrast, Antarctica Beta;font-weight: 500">e</text>
    <text transform="translate(23.8 190.8) rotate(-117.6)" style="font-size: 12px;fill: #c28d03;font-family: AntarcticaBeta-CnMdContrast, Antarctica Beta;font-weight: 500">c</text>
    <text transform="translate(20.8 185.2) rotate(-114.6)" style="font-size: 12px;fill: #c28d03;font-family: AntarcticaBeta-CnMdContrast, Antarctica Beta;font-weight: 500">e</text>
    <text transform="translate(18.1 179.3) rotate(-111.7)" style="font-size: 12px;fill: #c28d03;font-family: AntarcticaBeta-CnMdContrast, Antarctica Beta;font-weight: 500">s</text>
    <text transform="translate(16 173.8) rotate(-108.9)" style="font-size: 12px;fill: #c28d03;font-family: AntarcticaBeta-CnMdContrast, Antarctica Beta;font-weight: 500">s</text>
    <text transform="matrix(-0.29, -0.96, 0.96, -0.29, 14.05, 168.22)" style="font-size: 12px;fill: #c28d03;font-family: AntarcticaBeta-CnMdContrast, Antarctica Beta;font-weight: 500">i</text>
    <text transform="matrix(-0.25, -0.97, 0.97, -0.25, 13.16, 165.38)" style="font-size: 12px;fill: #c28d03;font-family: AntarcticaBeta-CnMdContrast, Antarctica Beta;font-weight: 500">o</text>
    <text transform="translate(11.5 159) rotate(-101.4)" style="font-size: 12px;fill: #c28d03;font-family: AntarcticaBeta-CnMdContrast, Antarctica Beta;font-weight: 500">n</text>
    <text transform="translate(248.3 100.6) rotate(77)" style="font-size: 12px;fill: #c28d03;font-family: AntarcticaBeta-CnMdContrast, Antarctica Beta;font-weight: 500">E</text>
    <text transform="matrix(0.17, 0.98, -0.98, 0.17, 249.8, 107.18)" style="font-size: 12px;fill: #c28d03;font-family: AntarcticaBeta-CnMdContrast, Antarctica Beta;font-weight: 500">a</text>
    <text transform="translate(250.9 113.3) rotate(82.5)" style="font-size: 12px;fill: #c28d03;font-family: AntarcticaBeta-CnMdContrast, Antarctica Beta;font-weight: 500">r</text>
    <text transform="matrix(0.1, 0.99, -0.99, 0.1, 251.41, 117.56)" style="font-size: 12px;fill: #c28d03;font-family: AntarcticaBeta-CnMdContrast, Antarctica Beta;font-weight: 500">l</text>
    <text transform="matrix(0.06, 1, -1, 0.06, 251.74, 120.54)" style="font-size: 12px;fill: #c28d03;font-family: AntarcticaBeta-CnMdContrast, Antarctica Beta;font-weight: 500">y</text>
    <text transform="matrix(0.03, 1, -1, 0.03, 252.11, 126.98)" style="font-size: 12px;fill: #c28d03;font-family: AntarcticaBeta-CnMdContrast, Antarctica Beta;font-weight: 500"> </text>
    <text transform="translate(252.2 129.2) rotate(89.9)" style="font-size: 12px;fill: #c28d03;font-family: AntarcticaBeta-CnMdContrast, Antarctica Beta;font-weight: 500">r</text>
    <text transform="translate(252.2 133.2) rotate(92.3)" style="font-size: 12px;fill: #c28d03;font-family: AntarcticaBeta-CnMdContrast, Antarctica Beta;font-weight: 500">e</text>
    <text transform="translate(252 139.7) rotate(95.3)" style="font-size: 12px;fill: #c28d03;font-family: AntarcticaBeta-CnMdContrast, Antarctica Beta;font-weight: 500">c</text>
    <text transform="translate(251.4 145.9) rotate(98.3)" style="font-size: 12px;fill: #c28d03;font-family: AntarcticaBeta-CnMdContrast, Antarctica Beta;font-weight: 500">e</text>
    <text transform="matrix(-0.19, 0.98, -0.98, -0.19, 250.44, 152.38)" style="font-size: 12px;fill: #c28d03;font-family: AntarcticaBeta-CnMdContrast, Antarctica Beta;font-weight: 500">s</text>
    <text transform="translate(249.3 158.1) rotate(104)" style="font-size: 12px;fill: #c28d03;font-family: AntarcticaBeta-CnMdContrast, Antarctica Beta;font-weight: 500">s</text>
    <text transform="translate(247.8 163.9) rotate(106.1)" style="font-size: 12px;fill: #c28d03;font-family: AntarcticaBeta-CnMdContrast, Antarctica Beta;font-weight: 500">i</text>
    <text transform="translate(247 166.8) rotate(108.4)" style="font-size: 12px;fill: #c28d03;font-family: AntarcticaBeta-CnMdContrast, Antarctica Beta;font-weight: 500">o</text>
    <text transform="translate(245 173) rotate(111.5)" style="font-size: 12px;fill: #c28d03;font-family: AntarcticaBeta-CnMdContrast, Antarctica Beta;font-weight: 500">n</text>
    <text transform="translate(192.3 236.5) rotate(150.9)" style="font-size: 12px;fill: #c28d03;font-family: AntarcticaBeta-CnMdContrast, Antarctica Beta;font-weight: 500">F</text>
    <text transform="translate(186.7 239.6) rotate(153.9)" style="font-size: 12px;fill: #c28d03;font-family: AntarcticaBeta-CnMdContrast, Antarctica Beta;font-weight: 500">u</text>
    <text transform="translate(180.9 242.4) rotate(156.2)" style="font-size: 12px;fill: #c28d03;font-family: AntarcticaBeta-CnMdContrast, Antarctica Beta;font-weight: 500">l</text>
    <text transform="matrix(-0.92, 0.38, -0.38, -0.92, 178.09, 243.65)" style="font-size: 12px;fill: #c28d03;font-family: AntarcticaBeta-CnMdContrast, Antarctica Beta;font-weight: 500">l</text>
    <text transform="matrix(-0.93, 0.36, -0.36, -0.93, 175.28, 244.8)" style="font-size: 12px;fill: #c28d03;font-family: AntarcticaBeta-CnMdContrast, Antarctica Beta;font-weight: 500"> </text>
    <text transform="translate(173.3 245.6) rotate(160.4)" style="font-size: 12px;fill: #c28d03;font-family: AntarcticaBeta-CnMdContrast, Antarctica Beta;font-weight: 500">r</text>
    <text transform="translate(169.5 247) rotate(162.8)" style="font-size: 12px;fill: #c28d03;font-family: AntarcticaBeta-CnMdContrast, Antarctica Beta;font-weight: 500">e</text>
    <text transform="translate(163.3 248.9) rotate(165.8)" style="font-size: 12px;fill: #c28d03;font-family: AntarcticaBeta-CnMdContrast, Antarctica Beta;font-weight: 500">c</text>
    <text transform="translate(157.2 250.4) rotate(168.9)" style="font-size: 12px;fill: #c28d03;font-family: AntarcticaBeta-CnMdContrast, Antarctica Beta;font-weight: 500">e</text>
    <text transform="translate(150.8 251.7) rotate(171.8)" style="font-size: 12px;fill: #c28d03;font-family: AntarcticaBeta-CnMdContrast, Antarctica Beta;font-weight: 500">s</text>
    <text transform="matrix(-1, 0.09, -0.09, -1, 144.99, 252.53)" style="font-size: 12px;fill: #c28d03;font-family: AntarcticaBeta-CnMdContrast, Antarctica Beta;font-weight: 500">s</text>
    <text transform="translate(139.1 253.1) rotate(176.6)" style="font-size: 12px;fill: #c28d03;font-family: AntarcticaBeta-CnMdContrast, Antarctica Beta;font-weight: 500">i</text>
    <text transform="translate(136.1 253.3) rotate(178.9)" style="font-size: 12px;fill: #c28d03;font-family: AntarcticaBeta-CnMdContrast, Antarctica Beta;font-weight: 500">o</text>
    <text transform="translate(129.5 253.4) rotate(-178.1)" style="font-size: 12px;fill: #c28d03;font-family: AntarcticaBeta-CnMdContrast, Antarctica Beta;font-weight: 500">n</text>
  </g>
  <path d="M224.9,111.2,190.3,80.1v13c-64.7,0-114.4,39.4-114.4,104.1a128.1,128.1,0,0,0,.8,13.9c6.9-58.2,53.6-82.6,113.6-82.6v13.8Z" transform="translate(-11.4 -10.3)" style="fill: #959595"/>
  <g>
    <circle cx="97.9" cy="124.6" r="3.9" style="fill: none;stroke: #fff;stroke-miterlimit: 10;stroke-width: 2px"/>
    <circle cx="58.6" cy="162.1" r="2.4" style="fill: none;stroke: #fff;stroke-miterlimit: 10;stroke-width: 2px"/>
    <text transform="translate(107.1 127.6)" style="font-size: 10px;fill: #fff;font-family: AntarcticaBeta-CnMdContrast, Antarctica Beta;font-weight: 500">Time Horizon</text>
    <text transform="translate(66.2 164.6)" style="font-size: 10px;fill: #fff;font-family: AntarcticaBeta-CnMdContrast, Antarctica Beta;font-weight: 500">Exp<tspan x="16.9" y="0" style="letter-spacing: -0.000537109375em">e</tspan><tspan x="22.4" y="0" style="letter-spacing: -0.010009765625em">c</tspan><tspan x="27.6" y="0" style="letter-spacing: -0.0189453125em">t</tspan><tspan x="31.1" y="0" style="letter-spacing: -0.000537109375em">e</tspan><tspan x="36.6" y="0">d </tspan><tspan x="44.1" y="0" style="letter-spacing: -0.016943359375em">r</tspan><tspan x="47.6" y="0" style="letter-spacing: -0.010009765625em">e</tspan><tspan x="53" y="0">turn</tspan></text>
    <circle cx="155.9" cy="87.5" r="6" style="fill: none;stroke: #fff;stroke-miterlimit: 10;stroke-width: 2px"/>
    <text transform="translate(166.9 90.6)" style="font-size: 10px;fill: #fff;font-family: AntarcticaBeta-CnMdContrast, Antarctica Beta;font-weight: 500">Risk <tspan x="20.9" y="0" style="letter-spacing: -0.02099609375em">a</tspan><tspan x="26" y="0" style="letter-spacing: -0.02548828125em">v</tspan><tspan x="31" y="0">ersion</tspan></text>
  </g>
</svg>
