<?xml version="1.0" encoding="utf-8"?>
<!-- Generator: Adobe Illustrator 25.4.1, SVG Export Plug-In . SVG Version: 6.00 Build 0)  -->
<svg version="1.1" id="Calque_1" xmlns="http://www.w3.org/2000/svg" xmlns:xlink="http://www.w3.org/1999/xlink" x="0px" y="0px"
	 viewBox="0 0 1502.4 566.9" style="enable-background:new 0 0 1502.4 566.9;" xml:space="preserve">
<style type="text/css">
	.st0{fill:#FFFFFF;}
	.st1{fill:#C48F03;}
</style>
<g>
	<path class="st0" d="M305,134.1h10.3c6.8,0,12.2-5.5,12.2-12.2c0-0.7-0.1-1.3-0.2-1.9c-0.9,5.8-6,10.3-12.1,10.3H305
		c-6.8,0-12.2,5.5-12.2,12.2c0,0.7,0.1,1.3,0.2,1.9C293.9,138.6,299,134.1,305,134.1z"/>
	<path class="st0" d="M301,165.4c-2.4-7.1-1.6-14.5,1.6-20.7c-6.5,6-9.2,15.4-6.3,24.3c4,12.1,17.1,18.7,29.3,14.7c0,0,0,0,0.1,0
		C314.7,183.4,304.6,176.4,301,165.4z"/>
	<path class="st1" d="M349.3,154.7c-0.7-0.6-0.6-1-0.5-1.1c0.1-0.6,0-1.2-0.4-1.7c-0.2-0.3-0.5-0.6-0.7-0.9
		c-0.7-0.8-1.2-1.5-1.1-2.5v0c0.2-0.8,0.1-1.7-0.4-2.4c-0.4-0.5-0.8-0.9-1.5-1.1c-0.1-0.1-0.7-0.2-2.7-0.4c-0.1,0-0.2,0-0.4,0
		c-0.7,0-1.2-0.2-1.4-0.6c-0.4-0.6-0.4-1.6,0-3.1l0-0.1c0.3-0.8,0.2-1.7-0.3-2.4c-0.8-1.2-2.5-1.5-3.7-0.7c-0.9,0.7-1.7,0.9-2.3,0.8
		c-0.7-0.2-1.2-0.9-1.6-1.7c-0.2-0.2-0.3-0.5-0.5-0.8c-0.6-0.8-1.6-1.3-2.6-1.1c0,0,0,0-0.1,0c-2.1,0.3-6.7,2.8-8.6,3.9
		c-1.6,0.8-2,0-2.5-0.7c-0.1-0.1-0.2-0.3-0.2-0.4c-0.3-0.5-0.9-0.8-1.4-0.9c-0.6-0.1-1.2,0-1.7,0.4c-3.5,2.4-6.9,4.7-10.4,7.1
		c8.6-2.6,17.8-2,26,1.6l0,0.1c-7.9-2.9-16.6-3-24.6-0.4c3.1-0.3,5.5,0.6,6.9,2.7c0.8,1.2,2.5,1.5,3.7,0.7c0.8-0.5,1.6-0.6,2.3-0.3
		c1.4,0.6,2.5,2.6,2.9,5.2v0c0.1,0.5,0.2,0.9,0.5,1.3c0.9,1.4,2.8,1.7,4.2,0.8c0.2-0.2,0.4-0.2,0.6-0.2c0.4,0.2,0.6,0.8,0.9,1.6
		c0.1,0.4,0.2,0.8,0.4,1.1v0c0.1,0.2,0.2,0.4,0.3,0.5c0.9,1.4,2.8,1.7,4.2,0.8c0.7-0.5,1.1-1.1,1.3-1.9c0.2-0.8,0-1.6-0.5-2.3
		c-0.4-0.6-0.5-1.3-0.3-1.7c0.2-0.3,0.4-0.5,0.8-0.5c0.5,0,1.1,0.3,1.5,0.9l0.8,1.1l2.4,3.6c0.3,0.4,0.7,0.7,1.2,0.8
		c0.5,0.1,1,0,1.4-0.3c0.5-0.4,0.8-1,0.8-1.7c0-0.3,0.1-0.5,0.2-0.6c0.2-0.1,0.7,0.2,1.1,0.6l0.1,0.1c0.6,0.6,1.6,0.7,2.4,0.2
		c0.7-0.5,1.3-0.4,1.7-0.3l0,0c0,0,0.1,0,0.2,0.1h0c0.8,0.2,1.7-0.2,2.1-1C350.2,156.3,350,155.3,349.3,154.7z"/>
	<path class="st1" d="M349.7,89.8c-0.1-0.1-0.5-0.3-0.5-1.1c0-0.8-0.6-1.6-1.4-1.7c-0.8-0.2-1.6,0.2-1.9,1v0c0,0.1,0,0.1-0.1,0.2
		l0,0c-0.1,0.3-0.4,0.8-1.2,1.1c-0.8,0.3-1.3,1-1.2,1.9v0.1c0,0.6,0,1.1-0.2,1.2c-0.1,0.1-0.3,0-0.5-0.2c-0.5-0.4-1.1-0.6-1.7-0.4
		c-0.9,0.3-1.4,1.3-1.2,2.2l0.5,1.6l1.1,3.5c0.3,1.1-0.1,1.7-0.6,1.9c-0.5,0.2-1.2-0.2-1.5-1.2c-0.2-0.7-0.7-1.3-1.4-1.7
		c-0.7-0.4-1.4-0.4-2.1-0.2c-1.5,0.5-2.3,2-1.9,3.5c0.1,0.2,0.1,0.3,0.2,0.5l0,0c0.2,0.3,0.4,0.7,0.6,1c0.5,0.7,0.8,1.2,0.7,1.6
		c-0.1,0.2-0.2,0.3-0.5,0.4c-1.5,0.5-2.3,2-1.9,3.5c0.1,0.4,0.4,0.8,0.7,1.1l0,0c1.7,1.8,2.5,3.8,2.1,5.2c-0.2,0.8-0.7,1.3-1.5,1.5
		c-1.3,0.4-2,1.8-1.6,3.1c0.7,2.3,0,4.6-2,6.7c6.6-4.3,11.6-10.8,14-18.2l0.1,0c-2.1,8.1-7.1,15.2-14,20c3.7-1.1,7.5-2.3,11.2-3.5
		c1.1-0.3,1.7-1.5,1.4-2.6c-0.1-0.1-0.1-0.3-0.2-0.4c-0.3-0.8-0.6-1.6,0.9-2.3c1.9-0.7,6.5-2.6,7.9-4c0,0,0,0,0,0
		c0.8-0.7,1-1.7,0.7-2.6c-0.1-0.3-0.2-0.5-0.3-0.8c-0.3-0.8-0.6-1.5-0.3-2.2c0.2-0.5,0.9-0.9,1.9-1.2c1.3-0.4,2-1.8,1.6-3.1
		c-0.2-0.8-0.8-1.4-1.6-1.6l-0.1,0c-1.4-0.6-2.1-1.2-2.3-1.8c-0.1-0.4,0-0.9,0.4-1.4c0.1-0.1,0.2-0.2,0.2-0.3
		c1.1-1.5,1.2-2.1,1.3-2.2c0.2-0.6,0.2-1.2,0-1.7c-0.2-0.8-0.8-1.4-1.5-1.7h0c-0.9-0.5-1-1.3-1.2-2.3c-0.1-0.3-0.1-0.7-0.3-1.1
		C350.6,90.5,350.2,90.1,349.7,89.8z"/>
	<path class="st1" d="M355.5,122.8l-0.1,0.2l-1.6,2.7c-0.4,0.6-0.8,0.7-1.1,0.5c-0.3-0.2-0.5-0.6-0.1-1.2c0.5-0.8,0.2-1.9-0.6-2.4
		c-0.4-0.2-0.9-0.3-1.3-0.2c-0.5,0.1-0.8,0.4-1.1,0.8c0,0.1-0.1,0.2-0.1,0.3l0,0.1c-0.1,0.2-0.1,0.4-0.2,0.6c-0.1,0.5-0.2,0.9-0.5,1
		c-0.1,0-0.2,0-0.4-0.1c-0.4-0.2-0.9-0.3-1.3-0.2c-0.5,0.1-0.8,0.4-1.1,0.8c-0.1,0.2-0.2,0.5-0.2,0.8v0c-0.1,1.5-0.7,2.7-1.4,3.1
		c-0.4,0.2-0.9,0.2-1.4,0c-0.4-0.2-0.8-0.3-1.1-0.2c-0.4,0.1-0.7,0.4-0.9,0.7c-0.7,1.2-2,1.9-3.8,1.9c4.7,1.1,9.6,0.6,14-1.4l0,0.1
		c-4.5,2.4-9.8,3.2-14.9,2.1c2.1,1.2,4.2,2.4,6.2,3.6c0.3,0.2,0.6,0.2,1,0.1c0.3-0.1,0.6-0.3,0.8-0.6c0.1-0.1,0.1-0.2,0.1-0.2
		c0.2-0.5,0.5-0.9,1.4-0.5c1.1,0.6,3.9,1.9,5.1,1.9c0,0,0,0,0,0c0.6,0,1.2-0.2,1.5-0.8c0.1-0.2,0.2-0.3,0.2-0.5
		c0.2-0.5,0.5-0.9,0.9-1c0.3-0.1,0.8,0,1.4,0.3c0.4,0.2,0.8,0.3,1.1,0.2c0.4-0.1,0.7-0.4,0.9-0.7c0.2-0.4,0.3-0.9,0.1-1.4l-0.1-0.1
		c-0.3-0.8-0.3-1.4-0.1-1.8c0.2-0.2,0.4-0.4,0.8-0.4c0.1,0,0.2,0,0.2,0c1-0.2,1.4-0.3,1.5-0.3c0.4-0.2,0.7-0.4,0.8-0.7
		c0.2-0.4,0.3-0.9,0.1-1.4v0c-0.1-0.6,0.2-1,0.5-1.5c0.1-0.2,0.3-0.4,0.4-0.6c0.2-0.3,0.2-0.6,0.1-1v0c0-0.1-0.1-0.3,0.3-0.7
		c0.4-0.4,0.5-0.9,0.2-1.3c-0.2-0.4-0.8-0.6-1.2-0.5h0c0,0-0.1,0-0.1,0c-0.2,0.1-0.6,0.2-1-0.1c-0.4-0.3-1-0.2-1.3,0.2l-0.1,0.1
		c-0.3,0.2-0.5,0.5-0.6,0.4c-0.1,0-0.1-0.1-0.2-0.3c0-0.4-0.2-0.8-0.5-1c-0.2-0.2-0.5-0.2-0.8-0.1
		C355.9,122.4,355.7,122.5,355.5,122.8z"/>
	<path class="st1" d="M225.2,142.4c-0.5,0.9-0.5,1.9-0.1,2.8c0.4,0.8,1,1.3,1.7,1.6c0.8,0.3,1.6,0.2,2.4-0.1
		c1.2-0.6,2.1-0.7,2.8-0.5c0.8,0.3,1.2,1.2,1.6,2.2c0.1,0.3,0.3,0.6,0.4,1c0.5,1.1,1.6,1.7,2.8,1.7c0,0,0,0,0.1,0h0
		c2.5,0.1,8.3-2.1,10.6-3c2-0.6,2.3,0.3,2.7,1.3c0.1,0.2,0.2,0.3,0.2,0.5c0.3,0.6,0.8,1.1,1.5,1.4c0.7,0.2,1.4,0.2,2-0.1
		c4.4-2.1,8.9-4.2,13.3-6.4c-10.4,1.5-21-0.8-29.8-6.5l0-0.1c8.6,4.8,18.6,6.5,28.3,4.9c-3.6-0.2-6.2-1.7-7.5-4.4
		c-0.4-0.8-1-1.3-1.7-1.6c-0.8-0.3-1.6-0.2-2.4,0.1c-1,0.5-1.9,0.4-2.7-0.1c-1.5-1-2.4-3.5-2.4-6.5v0c0-0.6-0.1-1.1-0.3-1.6
		c-0.4-0.8-1.1-1.5-2-1.8c-0.9-0.3-1.8-0.3-2.7,0.2c-0.3,0.2-0.5,0.2-0.7,0.1c-0.5-0.2-0.6-1.1-0.7-2c-0.1-0.5-0.1-0.9-0.3-1.4v0
		c-0.1-0.2-0.2-0.5-0.2-0.6c-0.4-0.8-1.1-1.5-2-1.8c-0.9-0.3-1.8-0.3-2.7,0.2c-1.7,0.8-2.5,3-1.7,4.7c0.4,0.8,0.4,1.5,0.1,2
		c-0.2,0.3-0.6,0.5-1,0.5c-0.6-0.1-1.2-0.5-1.6-1.4l-2.7-5.7l-0.1-0.3c-0.2-0.5-0.7-0.9-1.2-1.1c-0.5-0.2-1.1-0.2-1.7,0.1
		c-0.7,0.3-1.1,1-1.2,1.8c-0.1,0.4-0.2,0.6-0.3,0.6c-0.3,0.1-0.7-0.4-1.2-0.9l-0.1-0.1c-0.6-0.8-1.8-1.1-2.7-0.7
		c-0.8,0.4-1.6,0.2-1.9,0l0,0c-0.1,0-0.1-0.1-0.2-0.1h0c-1-0.4-2-0.1-2.6,0.7c-0.6,0.8-0.5,2,0.2,2.8c0.7,0.8,0.5,1.3,0.4,1.4
		c-0.2,0.7-0.2,1.4,0.1,2c0.2,0.4,0.4,0.8,0.7,1.2c0.6,1,1.1,1.9,0.8,3.1v0c-0.4,0.9-0.4,2,0.1,2.9c0.3,0.6,0.8,1.2,1.5,1.6
		c0.1,0.1,0.8,0.4,3,0.9c0.1,0,0.2,0.1,0.4,0.1c0.8,0.1,1.3,0.5,1.6,0.9c0.4,0.8,0.2,1.9-0.6,3.6L225.2,142.4z"/>
	<path class="st0" d="M267,187.9c11.9-2.3,19.7-13.7,17.4-25.6c-1.5-7.7-6.8-13.7-13.7-16.3c4.3,3.2,7.4,7.9,8.5,13.5
		c2.3,11.9-5.5,23.3-17.4,25.6c-4.1,0.8-8.2,0.3-11.9-1.1C254.6,187.4,260.8,189,267,187.9z"/>
	<path class="st1" d="M294.3,126.4c1.6,0.3,3.1-0.7,3.4-2.2c0.2-1,0.8-1.6,1.6-2c1.6-0.6,4,0.2,6.2,1.9l0,0c0.4,0.3,0.9,0.6,1.4,0.7
		c1.8,0.4,3.5-0.8,3.9-2.5c0.1-0.3,0.2-0.5,0.4-0.6c0.4-0.2,1.1,0.2,1.9,0.6c0.4,0.2,0.8,0.4,1.2,0.6l0,0c0.2,0.1,0.4,0.2,0.6,0.2
		c1.8,0.4,3.5-0.8,3.9-2.5c0.2-0.9,0-1.7-0.5-2.5c-0.5-0.7-1.2-1.2-2.1-1.4c-1.3-0.3-1.7-1.1-1.6-1.7c0.1-0.6,0.8-1.1,2.1-0.9l2,0.4
		l4.1,0.9c1.1,0.2,2.2-0.5,2.4-1.6c0.2-0.7-0.1-1.4-0.6-2c-0.2-0.3-0.3-0.5-0.3-0.6c0.1-0.3,0.7-0.3,1.4-0.4l0.2,0
		c1,0,1.8-0.7,2-1.6c0.2-0.9,0.8-1.3,1.1-1.4l0,0c0.1,0,0.1-0.1,0.2-0.1h0c0.8-0.5,1.2-1.4,0.9-2.4c-0.3-0.9-1.2-1.5-2.2-1.4
		c-0.9,0.1-1.2-0.3-1.3-0.5c-0.4-0.5-0.9-0.9-1.6-1.1c-0.4-0.1-0.8-0.2-1.3-0.2c-1.1-0.1-2.1-0.2-2.7-1.2l0,0
		c-0.5-0.8-1.3-1.4-2.2-1.6c-0.7-0.2-1.3-0.1-2,0.2c-0.2,0.1-0.8,0.4-2.4,1.7c-0.1,0.1-0.2,0.1-0.3,0.2c-0.5,0.5-1.1,0.7-1.6,0.6
		c-0.8-0.2-1.5-0.9-2.4-2.5l-0.1-0.1c-0.4-0.8-1.1-1.5-2-1.7c-1.6-0.3-3.1,0.7-3.4,2.2c-0.2,1.2-0.7,2-1.2,2.3
		c-0.7,0.4-1.6,0.2-2.5-0.1c-0.3-0.1-0.6-0.2-0.9-0.2c-1.1-0.2-2.2,0.2-2.9,1.1c0,0,0,0-0.1,0.1c-1.5,1.8-3.1,7.3-3.8,9.6
		c-0.7,1.8-1.6,1.6-2.5,1.3c-0.2-0.1-0.3-0.1-0.5-0.1c-1.3-0.3-2.7,0.6-2.9,1.9c-1,4.5-1.9,9-2.9,13.5c4.8-8.6,12.5-15.1,21.8-18.4
		l0,0.1c-8.4,3.6-15.4,10.1-19.7,18.3C288.9,126.9,291.5,125.8,294.3,126.4z"/>
	<path class="st0" d="M291.4,158.6c0-11.5-8.9-22-11.3-27.6c-1.3-3-2.4-6.1-2.4-9.6c0-6.4,3-12.1,7.8-15.8c0,0-1.4,0.6-2.7,1.5
		c-5.8,3.8-9.4,10.6-9.4,18.1c0,3.9,1.3,7.3,2.7,10.6c2.6,6.2,15.1,23.9,15.1,36.7L291.4,158.6z"/>
	<path class="st1" d="M213.9,102L213.9,102c0.1,0,0.1,0,0.1,0.1c0.2,0.1,0.5,0.3,0.6,0.8c0.1,0.5,0.5,0.9,1,0.9h0.1
		c0.4,0,0.7,0.1,0.7,0.2c0,0.1,0,0.2-0.2,0.3c-0.3,0.3-0.5,0.6-0.4,1c0.1,0.6,0.7,1,1.2,0.9l1-0.2l2.2-0.4c0.5-0.1,0.8,0,1,0.3
		c0.1,0.2,0.2,0.4,0.1,0.5c-0.1,0.3-0.4,0.5-0.9,0.6c-0.5,0.1-0.9,0.3-1.1,0.7c-0.3,0.4-0.4,0.8-0.3,1.3c0.2,0.9,1.1,1.6,2,1.4
		c0.1,0,0.2-0.1,0.3-0.1h0c0.2-0.1,0.4-0.2,0.6-0.3c0.4-0.2,0.8-0.4,1.1-0.3c0.1,0.1,0.2,0.2,0.2,0.3c0.2,0.9,1.1,1.6,2,1.4
		c0.3,0,0.5-0.2,0.7-0.3l0,0c1.2-0.9,2.5-1.2,3.3-0.9c0.5,0.2,0.7,0.5,0.8,1.1c0.2,0.8,0.9,1.4,1.7,1.2c1.4-0.2,2.7,0.3,3.9,1.7
		c-2.1-4.3-5.7-7.8-10-9.9l0-0.1c4.8,1.9,8.7,5.5,11.1,10.1c-0.4-2.4-0.8-4.7-1.2-7.1c-0.1-0.7-0.8-1.2-1.5-1.1
		c-0.1,0-0.2,0-0.3,0.1c-0.5,0.1-1,0.2-1.3-0.8c-0.3-1.2-1.1-4.2-1.8-5.2c0,0,0,0,0,0c-0.4-0.5-0.9-0.8-1.5-0.7
		c-0.2,0-0.3,0.1-0.5,0.1c-0.5,0.1-1,0.2-1.4,0c-0.3-0.2-0.5-0.6-0.6-1.3c-0.2-0.8-0.9-1.4-1.7-1.2c-0.5,0.1-0.9,0.4-1.1,0.8
		l-0.1,0.1c-0.5,0.8-0.9,1.2-1.3,1.2c-0.3,0-0.6-0.1-0.8-0.4c-0.1-0.1-0.1-0.1-0.2-0.1c-0.8-0.7-1.1-0.9-1.2-0.9
		c-0.4-0.2-0.7-0.2-1.1-0.2c-0.5,0.1-0.9,0.4-1.2,0.8l0,0c-0.4,0.5-0.9,0.5-1.5,0.6c-0.2,0-0.4,0-0.7,0.1c-0.4,0.1-0.6,0.2-0.8,0.5
		c-0.1,0.1-0.2,0.3-0.7,0.2c-0.5-0.1-1,0.2-1.2,0.7C213.2,101.2,213.4,101.7,213.9,102z"/>
	<path class="st1" d="M237.8,102.5c1.5,0.6,2.5,1.5,2.8,2.4c0.2,0.7,0.1,1.5-0.5,2.4c-0.8,1.3-0.8,3,0.2,4.3
		c0.8,1.1,2.1,1.7,3.5,1.6c3.5-0.1,4.6,0.9,4.9,1.5c0.3,0.5,0.3,1,0,1.5l0,0.1c-0.5,1-0.5,2.2,0.2,3.2c0.6,0.8,1.5,1.2,2.5,1.2
		c0.5,0,1,0,1.4-0.1c1.1-0.1,1.8-0.1,2.2,0.2l0.5,0.7c0.1,0.3,0.2,0.6,0.2,1.1c0,0.4,0.2,0.8,0.4,1.2c0.3,0.4,0.8,0.7,1.4,0.8
		c0,0,0,0,0,0c0.1,0,0.3,0,0.4,0c2.3,0.1,8.8,0,9.9,0c-1.3-1.3-2.3-2.4-3.2-3.4c-6.9-7.7-12.7-16.4-17.1-25.8l0.1,0
		c3.7,6.3,8,12.3,12.9,17.8c2.6,2.9,5.5,5.8,8.6,8.6c0.8-2.4,1.8-5.4,2.3-6.9c0-0.1,0.1-0.2,0.1-0.4v0c0.1-0.5,0-1.1-0.4-1.5
		c-0.2-0.3-0.6-0.6-1-0.7c-0.4-0.2-0.7-0.4-1-0.6l-0.5-0.7c-0.2-0.5,0.1-1.1,0.5-2.2c0.2-0.4,0.3-0.8,0.5-1.3l0,0
		c0.3-0.9,0.2-1.9-0.4-2.7c-0.7-0.9-1.8-1.4-2.9-1.2c-0.5,0.1-1.1-0.1-1.4-0.5c-0.5-0.5-1.1-1.9,0.1-5.2c0.5-1.3,0.4-2.7-0.4-3.8
		c-0.9-1.3-2.5-1.9-4-1.5c-1,0.3-1.8,0.2-2.4-0.3c-0.8-0.6-1.3-1.7-1.4-3.4c0-0.7-0.2-1.4-0.6-2c-1.1-1.4-3.1-1.8-4.6-0.7
		c-0.7,0.5-1.1,1.2-1.3,2c-0.2,0.5-0.3,0.7-0.6,0.7c-0.5,0.1-1.1-0.5-2.2-2.1c-0.2-0.3-0.4-0.5-0.6-0.6c-0.6-0.4-1.3-0.6-2.1-0.5
		c-0.6,0.1-1.2-0.3-1.3-0.4c-1.1-0.9-2.7-1-3.8-0.1c-1.1,0.8-1.6,2.3-1.1,3.6c0,0.1,0.2,0.8,0,1.4l0,0.1c-0.3,0.6-0.4,1.4-0.2,2.1
		c0.1,0.2,0.2,0.4,0.4,0.7c1.1,1.5,1.5,2.3,1.3,2.7c-0.1,0.2-0.4,0.3-0.9,0.3c-0.8-0.1-1.6,0.1-2.3,0.6c-0.7,0.5-1.2,1.3-1.3,2.1
		c-0.2,0.8,0.1,1.7,0.6,2.5C236.5,101.9,237.1,102.3,237.8,102.5z"/>
	<path class="st0" d="M151.9,123.6c5.7,7,12.3,13.3,19.6,18.7c-5-6.8-9.6-11.8-13.1-19.5c9.3-7,17.5-15.3,24.4-24.7h0
		c0.8-1.1,2.1-1.8,3.6-1.8c1.4,0,2.7,0.7,3.6,1.8h0c2.4,3.2,4.9,6.3,7.6,9.3c8.7,9.7,23.1,8.1,23.1,8.1s-8.6-1-16.2-10.1
		c-3.2-3.7-6.2-7.6-8.9-11.7c-2-2.8-5.3-4.7-9-4.7c-3.8,0-7.1,1.9-9.2,4.8c-7.2,10.8-16.2,20.3-26.5,28.3
		C151.1,122.6,151.5,123.1,151.9,123.6L151.9,123.6z"/>
	<path class="st0" d="M114.2,120.8L114.2,120.8c1.4-1.8,3.5-2.9,5.9-2.9c2.4,0,4.5,1.1,5.8,2.9h0c35.8,48.8,93.6,80.5,158.7,80.5
		c2.4,0,4.7-0.1,7-0.1c-65.4-2.3-122.6-36.5-156.7-87.5h0h0c-3.3-4.7-8.7-7.7-14.9-7.7c-6.2,0-11.7,3.2-15,7.9h0l0,0
		c-23.5,35-57.8,62-98.2,76.2c12.5-1.4,25.8-4.2,37-9.8C71.7,166.2,95.8,145.7,114.2,120.8z"/>
	<path class="st1" d="M282.9,63.9c0.1,0.1,0.2,0.2,0.4,0.2c0,0,0,0,0.1,0c0.3,0.2,0.5,0.3,0.8,0.4c0.6,0.3,1.1,0.5,1.2,0.8
		c0,0.2,0,0.3-0.2,0.5c-0.4,0.5-0.6,1.1-0.6,1.7c0,0.6,0.3,1.2,0.8,1.6c0.3,0.2,0.6,0.4,1,0.5h0c2,0.5,3.4,1.6,3.8,2.7
		c0.2,0.6,0.1,1.3-0.4,1.8c-0.4,0.4-0.5,1-0.5,1.5c0,0.5,0.3,1.1,0.7,1.4c1.5,1.3,2,3.2,1.5,5.6c2.8-6,3.4-12.8,1.8-19.2l0.1,0
		c2.1,6.7,1.7,14-1.1,20.5c2.2-2.5,4.3-5,6.5-7.5c0.3-0.4,0.5-0.8,0.4-1.3c0-0.5-0.2-0.9-0.6-1.2c-0.1-0.1-0.2-0.2-0.3-0.2
		c-0.6-0.4-1.1-0.8-0.4-2c1-1.4,3.5-4.8,3.9-6.4c0,0,0,0,0-0.1c0.2-0.8,0-1.6-0.6-2.2c-0.2-0.2-0.4-0.3-0.5-0.4
		c-0.6-0.4-1.1-0.8-1.2-1.4c-0.1-0.5,0.2-1,0.8-1.7c0.4-0.4,0.5-1,0.5-1.5c0-0.5-0.3-1.1-0.7-1.4c-0.5-0.4-1.2-0.6-1.8-0.4l-0.1,0
		c-1.2,0.2-2,0.1-2.4-0.3c-0.3-0.3-0.4-0.7-0.3-1.2c0-0.1,0-0.2,0-0.3c0.1-1.5,0-2-0.1-2.1c-0.1-0.5-0.4-0.9-0.8-1.3
		c-0.5-0.4-1.2-0.6-1.9-0.5h0c-0.8,0-1.3-0.5-1.9-1.1c-0.2-0.2-0.4-0.4-0.7-0.6c-0.4-0.3-0.8-0.5-1.3-0.4c-0.1,0-0.5,0-0.8-0.5
		c-0.4-0.6-1.1-0.9-1.8-0.6c-0.6,0.2-1,0.9-0.9,1.6v0c0,0.1,0,0.1,0,0.1v0c0.1,0.3,0.1,0.8-0.4,1.3c-0.5,0.5-0.5,1.3,0,1.9l0.1,0.1
		c0.3,0.4,0.5,0.8,0.4,1c-0.1,0.1-0.2,0.1-0.5,0.1c-0.6-0.1-1.1,0.1-1.4,0.5c-0.3,0.3-0.4,0.7-0.4,1.1c0,0.4,0.2,0.7,0.5,1l1.9,1.6
		l1.5,1.3c0.5,0.4,0.7,0.8,0.6,1.3c-0.1,0.3-0.2,0.5-0.5,0.6c-0.4,0.1-0.9,0-1.3-0.4c-1-0.8-2.5-0.8-3.3,0.2
		c-0.4,0.5-0.6,1.1-0.6,1.7C282.1,62.9,282.4,63.5,282.9,63.9z"/>
	<path class="st1" d="M301.6,80.6c-0.1,0.9-0.1,1.4-0.4,1.7l-0.6,0.3c-0.2,0.1-0.5,0.1-0.9,0.1c-0.3,0-0.7,0-0.9,0.2
		c-0.4,0.2-0.7,0.5-0.8,1v0c0,0.1-0.1,0.2-0.1,0.3c-0.2,1.7-0.8,6.6-0.9,7.7c1.2-0.9,2.1-1.6,2.9-2.2c6.7-4.7,14-8.5,21.7-11.1
		l0,0.1c-5.3,2.3-10.4,5.2-15.1,8.5c-2.5,1.8-5,3.8-7.4,6c1.8,0.8,4.1,1.9,5.2,2.4c0.1,0.1,0.2,0.1,0.3,0.1h0
		c0.4,0.1,0.8,0.1,1.2-0.2c0.3-0.2,0.5-0.4,0.7-0.7c0.2-0.3,0.4-0.5,0.5-0.7l0.6-0.4c0.4-0.1,0.8,0.2,1.7,0.6c0.3,0.2,0.6,0.3,1,0.5
		l0,0c0.7,0.3,1.5,0.3,2.2-0.1c0.8-0.4,1.2-1.3,1.2-2.2c0-0.4,0.2-0.8,0.5-1.1c0.5-0.3,1.6-0.7,4,0.5c0.9,0.5,2,0.5,3,0
		c1.1-0.6,1.7-1.8,1.5-3c-0.1-0.8,0-1.4,0.4-1.9c0.5-0.6,1.5-0.9,2.8-0.8c0.6,0.1,1.1,0,1.6-0.3c1.2-0.7,1.7-2.3,1-3.5
		c-0.3-0.5-0.8-1-1.4-1.2c-0.3-0.2-0.5-0.3-0.5-0.5c0-0.4,0.5-0.8,1.8-1.5c0.2-0.1,0.4-0.2,0.5-0.4c0.4-0.4,0.6-1,0.6-1.5v-0.1
		c0-0.5,0.4-0.9,0.5-1c0.8-0.8,1-2,0.4-3c-0.5-1-1.7-1.4-2.7-1.2c-0.1,0-0.7,0.1-1.1-0.1l-0.1,0c-0.5-0.3-1.1-0.4-1.6-0.3
		c-0.2,0-0.4,0.1-0.6,0.2c-1.3,0.8-1.9,1-2.2,0.8c-0.2-0.1-0.2-0.3-0.2-0.7c0.1-0.6,0-1.3-0.3-1.8c-0.7-1.2-2.3-1.7-3.5-1
		c-0.5,0.3-0.9,0.7-1.1,1.2c-0.6,1.1-1.4,1.8-2.2,2c-0.6,0.1-1.2-0.1-1.8-0.6c-1-0.8-2.3-0.9-3.3-0.3c-0.9,0.5-1.5,1.5-1.5,2.6
		c-0.3,2.7-1.1,3.5-1.7,3.7c-0.4,0.2-0.8,0.1-1.2-0.1c-0.7-0.5-1.7-0.6-2.5-0.1c-0.7,0.4-1.1,1-1.2,1.8
		C301.6,79.9,301.6,80.3,301.6,80.6z"/>
	<path class="st1" d="M332.4,92.6c0.8-5.1,3.3-9.8,7.2-13.1l0,0.1c-3.4,3.4-5.6,7.8-6.2,12.6c0.6-1.6,1.7-2.6,3.1-2.8
		c0.4-0.1,0.7-0.3,1-0.6c0.2-0.3,0.3-0.7,0.3-1.1c-0.1-0.5,0.1-1,0.4-1.3c0.7-0.6,2-0.7,3.5-0.2h0c0.3,0.1,0.5,0.1,0.8,0.1
		c0.5-0.1,0.9-0.3,1.1-0.7c0.3-0.4,0.4-0.8,0.3-1.3c0-0.2,0-0.3,0.1-0.4c0.2-0.2,0.6-0.1,1.1-0.1c0.2,0,0.5,0.1,0.7,0.1
		c0,0,0,0,0.1,0c0.1,0,0.2,0,0.3,0c0.5-0.1,0.9-0.3,1.1-0.7c0.3-0.4,0.4-0.8,0.3-1.3c-0.2-0.9-1.1-1.6-2-1.4
		c-0.7,0.1-1.1-0.2-1.1-0.5c-0.1-0.3,0.2-0.7,0.9-0.8l1.7-0.3l1.5-0.2c0.3-0.1,0.5-0.2,0.7-0.4c0.2-0.2,0.2-0.5,0.2-0.8
		c-0.1-0.4-0.3-0.7-0.7-0.8c-0.2-0.1-0.2-0.2-0.2-0.2c0-0.2,0.3-0.3,0.6-0.5l0.1,0c0.5-0.2,0.8-0.7,0.7-1.2
		c-0.1-0.5,0.1-0.8,0.3-0.9l0.1-0.1l0,0c0.3-0.4,0.3-0.9,0-1.3c-0.3-0.4-0.9-0.5-1.3-0.3c-0.5,0.2-0.7,0.1-0.8,0
		c-0.3-0.2-0.6-0.3-1-0.2c-0.2,0-0.5,0.1-0.7,0.2c-0.6,0.2-1.1,0.3-1.6-0.1l0,0c-0.4-0.3-0.9-0.5-1.4-0.4c-0.3,0.1-0.7,0.2-1,0.5
		c-0.1,0.1-0.3,0.4-0.8,1.3c0,0.1-0.1,0.1-0.1,0.2c-0.2,0.4-0.4,0.6-0.7,0.6c-0.4,0.1-0.9-0.2-1.6-0.7l-0.1-0.1
		c-0.3-0.4-0.8-0.5-1.3-0.4c-0.4,0.1-0.7,0.3-1,0.6c-0.2,0.3-0.3,0.7-0.3,1.1c0.1,0.7,0.1,1.1-0.2,1.4c-0.3,0.4-0.8,0.4-1.3,0.5
		c-0.2,0-0.3,0-0.5,0.1c-0.6,0.1-1,0.5-1.2,1.1c0,0,0,0,0,0c-0.4,1.2-0.2,4.2,0,5.5c0,1-0.5,1.1-1,1.1c-0.1,0-0.2,0-0.3,0
		c-0.3,0.1-0.6,0.2-0.8,0.5s-0.3,0.6-0.2,1C331.7,87.8,332.1,90.2,332.4,92.6z"/>
	<path class="st1" d="M251,65.7c0.1,0,0.1,0.1,0.2,0.1l0,0c0.3,0.3,0.7,0.9,0.6,1.8c-0.1,1,0.5,1.9,1.4,2.2l0.2,0.1
		c0.6,0.3,1.2,0.5,1.2,0.8c0,0.2-0.2,0.3-0.5,0.5c-0.7,0.3-1.2,0.9-1.3,1.7c-0.2,1.1,0.7,2.2,1.8,2.3l6.1,0.7l0.3,0
		c1.3,0.2,1.9,0.9,1.8,1.5c-0.1,0.6-0.8,1.2-2.1,1.1c-1.8-0.2-3.5,1.1-3.7,2.9c-0.1,0.9,0.1,1.8,0.7,2.5c0.6,0.7,1.4,1.1,2.3,1.3
		c0.2,0,0.4,0,0.6,0h0c0.5,0,0.9-0.1,1.4-0.2c0.9-0.2,1.7-0.3,2.1,0c0.2,0.2,0.2,0.4,0.2,0.7c-0.2,1.8,1.1,3.5,3,3.7
		c0.5,0.1,1,0,1.6-0.2h0c2.7-1,5.3-0.9,6.7,0.2c0.7,0.6,1.1,1.4,0.9,2.4c-0.1,0.8,0.1,1.5,0.6,2.2s1.2,1,2,1.1
		c2.8,0.3,5,2.2,6.3,5.5c-1.5-9.3-6.1-17.9-13.1-24.2l0-0.1c7.8,6.2,13.1,15.1,15,25c0.6-4.7,1.1-9.3,1.7-14
		c0.1-0.7-0.1-1.3-0.5-1.9c-0.4-0.5-1-0.9-1.7-0.9c-0.2,0-0.4,0-0.5,0c-1-0.1-2-0.1-2-2.1c0.1-2.4,0.3-8.3-0.5-10.6
		c0-0.1,0-0.1,0-0.1c-0.4-1.1-1.3-1.9-2.4-2c-0.3,0-0.7-0.1-1-0.1c-1-0.1-1.9-0.1-2.5-0.8c-0.4-0.5-0.6-1.4-0.4-2.7
		c0.1-0.8-0.1-1.5-0.6-2.2s-1.2-1-2-1.1c-0.9-0.1-1.9,0.2-2.5,0.9l-0.1,0.1c-1.3,1.2-2.3,1.7-3.1,1.6c-0.5-0.1-1-0.5-1.3-1.1
		c-0.1-0.1-0.2-0.2-0.2-0.3c-1.1-1.9-1.6-2.4-1.8-2.5c-0.6-0.5-1.2-0.8-1.9-0.9c-0.9-0.1-1.9,0.2-2.6,0.8l0,0
		c-0.9,0.7-1.9,0.5-3,0.3c-0.4-0.1-0.8-0.2-1.3-0.2c-0.7-0.1-1.3,0.1-1.9,0.5c-0.1,0.1-0.5,0.4-1.4,0c-0.9-0.4-2-0.1-2.6,0.7
		C250.3,63.9,250.4,65,251,65.7L251,65.7z"/>
</g>
<g>
	<path class="st0" d="M279.7,279.1c3.5-10.8,8.1-21.1,14-30.8c5.9-9.7,12.9-18.7,21-26.9c8.1-8.2,16.7-15.3,25.9-21.2
		c9.2-6,18.6-10.6,28.5-14c9.8-3.4,19.6-5.1,29.2-5.1c12.5,0,23.1,2.6,31.7,7.7c8.6,5.1,15.5,11.7,20.8,19.8
		c5.3,8.1,9.1,17.1,11.4,27c2.3,9.9,3.5,19.7,3.5,29.3c0,10.4-1.6,20.9-4.8,31.4c-3.2,10.5-7.6,20.5-13.3,30.1
		c-5.7,9.5-12.5,18.5-20.4,26.7c-7.9,8.3-16.5,15.5-25.7,21.7c-9.3,6.2-19,11-29.3,14.5c-10.3,3.5-20.9,5.2-31.7,5.2
		c-9.6,0-18.5-1.8-26.6-5.3c-8.1-3.6-15-8.8-20.8-15.8s-10.3-15.6-13.6-25.9c-3.3-10.3-4.9-22.2-4.9-35.7
		C274.5,300.8,276.2,289.9,279.7,279.1z M298.5,362.4c1.3,5.6,3.8,10.5,7.2,14.6c3.5,4.1,8.1,7.5,14,10c5.9,2.5,13.3,3.8,22.4,3.8
		c11.4,0,21.7-2.9,31.1-8.7c9.3-5.8,17.7-13.3,25.2-22.6c7.4-9.3,13.9-19.7,19.5-31.2c5.6-11.6,10.2-23.2,13.7-35
		c3.6-11.8,6.3-23,8.1-33.7c1.8-10.7,2.7-19.7,2.7-27c0-15-3.6-26.7-10.7-35c-7.1-8.3-18.5-12.4-34.1-12.4
		c-10.8,0-20.8,2.8-29.9,8.4c-9.2,5.6-17.5,12.9-25,22c-7.5,9.1-14.2,19.3-19.9,30.8c-5.8,11.5-10.6,23.1-14.5,35
		c-3.9,11.9-6.8,23.4-8.8,34.5c-2,11.2-3,20.9-3,29.2C296.4,351,297.1,356.8,298.5,362.4z"/>
	<path class="st0" d="M582.5,368.8c-1.3,4.6-1.9,8.8-1.9,12.4c0,5,2.4,7.5,7.2,7.5c3.9,0,7.3-1.1,10.4-3.3c3.1-2.2,5.7-4.7,8-7.5
		c2.2-2.8,4-5.6,5.5-8.4c1.4-2.8,2.5-4.8,3-5.9l3.8,2c-1,2.1-2.4,4.8-4.3,8.1c-1.9,3.3-4.4,6.4-7.5,9.4c-3.1,3-6.6,5.6-10.7,7.8
		s-8.8,3.3-14.2,3.3c-12.7,0-19.1-5.8-19.1-17.3c0-1.3,0.3-3.7,0.9-7.1c0.6-3.4,1.3-6.4,2.3-9.1h-0.6c-2.7,3.3-5.8,6.9-9.3,10.8
		c-3.5,4-7.4,7.6-11.7,11c-4.3,3.4-9.1,6.2-14.3,8.4s-11,3.3-17.3,3.3c-4,0-8-0.7-11.7-2.2c-3.8-1.4-7.1-3.7-10-6.6
		c-2.9-3-5.2-6.8-6.8-11.4c-1.6-4.6-2.5-10.1-2.5-16.5c0-7.7,1.5-15.4,4.6-23.1c3.1-7.7,7.1-15.1,12-22.1c4.9-7,10.6-13.5,17.1-19.5
		c6.5-6,13-11.2,19.7-15.6c6.6-4.4,13.2-7.9,19.7-10.4c6.5-2.5,12.2-3.8,17.2-3.8c5.8,0,10.7,1.6,14.7,4.9c4,3.3,6.1,7.6,6.1,13h0.6
		l4.9-14.2h20.2L587,354.3C585.3,359.3,583.8,364.1,582.5,368.8z M589.2,291.4c0.7-2.6,1-4.9,1-6.8c0-1.7-0.2-3.6-0.7-5.6
		c-0.5-2-1.4-3.9-2.6-5.6c-1.3-1.7-2.9-3.2-5.1-4.5c-2.1-1.3-4.9-1.9-8.4-1.9c-6.4,0-12.6,1.8-18.6,5.3c-6.1,3.6-11.8,8.2-17.1,14
		c-5.3,5.8-10.2,12.4-14.6,19.8c-4.4,7.4-8.2,14.9-11.4,22.6c-3.2,7.6-5.6,15-7.4,22.1c-1.7,7.1-2.6,13.4-2.6,18.8
		c0,6.2,1.2,11.2,3.6,15c2.4,3.9,6.4,5.8,12,5.8c5.6,0,11.3-1.7,17.1-5.2s11.1-7.6,15.9-12.4c4.8-4.8,9-9.6,12.4-14.5
		c3.5-4.8,5.7-8.6,6.6-11.3l15.3-42.5C587,298.4,588.5,294,589.2,291.4z"/>
	<path class="st0" d="M687.6,175.1l1.2-4H735l-49.7,139.4h6.1c6.7,0,13-2.6,18.8-7.8s11.1-11.2,15.9-17.9
		c10.8-14.5,21.3-21.7,31.5-21.7c4.2,0,7.8,1.2,10.6,3.6c2.8,2.4,4.2,6.5,4.2,12.3c0,4.4-1.2,7.9-3.5,10.3c-2.3,2.4-5.2,3.6-8.7,3.6
		c-6.9,0-10.4-2.6-10.4-7.8c0-2.5,0.4-4.3,1.2-5.3c0.8-1.1,1.2-2.6,1.2-4.5c0-2.3-1.5-3.5-4.6-3.5c-2.3,0-4.8,1.3-7.4,3.9
		c-2.6,2.6-5.7,6.1-9.4,10.6l-7.2,8.7c-3.7,4.6-7.3,8.4-10.8,11.4c-3.6,3-6.5,4.9-8.8,5.6v0.9c2.1,0.4,4.4,0.8,6.8,1.3
		c2.4,0.5,4.7,1.5,6.9,3c2.2,1.5,4.3,3.8,6.2,6.6c1.9,2.9,3.4,6.9,4.3,12.1l7.5,38.5c0.8,3.7,1.8,7,3.2,10c1.3,3,3.6,4.5,6.6,4.5
		c2.7,0,5.2-1.1,7.7-3.2c2.4-2.1,4.6-4.6,6.5-7.5c1.9-2.9,3.6-5.8,4.9-8.7c1.3-2.9,2.3-5.1,2.9-6.6l4,1.2c-1.4,3.1-2.9,6.4-4.8,10
		c-1.8,3.6-4.1,6.8-6.8,9.8c-2.7,3-5.9,5.5-9.5,7.5c-3.7,2-8,3-13,3c-5.4,0-9.8-1.3-13.3-3.9c-3.5-2.6-6.2-8.1-8.1-16.6l-7.8-36.1
		c-0.6-3.1-1.2-6-1.9-8.8c-0.7-2.8-1.6-5.2-2.9-7.4c-1.3-2.1-2.9-3.8-5.1-5.1c-2.1-1.3-4.9-1.9-8.4-1.9h-6.4l-27.2,76.3h-19.9
		l76.9-215.7H687.6z"/>
	<path class="st0" d="M793.7,386.7l70.8-197.8h-33l1.2-4h89.3l-1.2,4h-30.1L857,283.5h93.1l34.1-94.5H951l1.2-4h89l-1.2,4h-29.8
		l-71.1,197.8h33.2l-1.2,4h-89.6l1.2-4h30.1l35.8-99.2h-93.1l-35.8,99.2H853l-1.2,4h-88.8l1.2-4H793.7z"/>
	<path class="st0" d="M1030.8,270.8l1.2-4h46l-34.1,98c-1,2.9-1.9,5.8-2.9,8.8c-1,3-1.4,5.8-1.4,8.5c0,2.3,0.7,4.3,2,5.9
		c1.3,1.6,3.4,2.5,6.1,2.5c3.1,0,6.1-1.1,9.1-3.2c3-2.1,5.7-4.6,8.2-7.4c2.5-2.8,4.6-5.6,6.4-8.5c1.7-2.9,3-5.2,3.8-6.9l3.5,1.4
		c-0.8,1.5-2,3.9-3.6,7.1c-1.6,3.2-3.9,6.4-6.8,9.5c-2.9,3.2-6.5,5.9-10.7,8.2c-4.2,2.3-9.3,3.5-15,3.5c-6.4,0-11.4-1.3-15.2-3.9
		c-3.8-2.6-5.6-7-5.6-13.2c0-3.3,0.6-6.9,1.7-10.8c1.2-3.9,2.3-7.6,3.5-10.8l29.8-84.7H1030.8z M1078.3,188.8
		c2.6-2.6,5.8-3.9,9.7-3.9c3.9,0,7.1,1.3,9.7,3.9c2.6,2.6,3.9,5.8,3.9,9.7c0,3.9-1.3,7.1-3.9,9.7c-2.6,2.6-5.8,3.9-9.7,3.9
		c-3.9,0-7.1-1.3-9.7-3.9c-2.6-2.6-3.9-5.8-3.9-9.7C1074.4,194.6,1075.7,191.4,1078.3,188.8z"/>
	<path class="st0" d="M1124.2,364.7c-1,2.9-1.9,5.8-2.9,8.8c-1,3-1.4,5.8-1.4,8.5c0,2.3,0.7,4.3,2,5.9c1.3,1.6,3.4,2.5,6.1,2.5
		c3.1,0,6.1-1.1,9.1-3.2c3-2.1,5.7-4.6,8.2-7.4c2.5-2.8,4.6-5.6,6.4-8.5c1.7-2.9,3-5.2,3.8-6.9l3.5,1.4c-0.8,1.5-2,3.9-3.6,7.1
		c-1.6,3.2-3.9,6.4-6.8,9.5c-2.9,3.2-6.5,5.9-10.7,8.2c-4.2,2.3-9.3,3.5-15,3.5c-6.4,0-11.4-1.3-15.2-3.9c-3.8-2.6-5.6-7-5.6-13.2
		c0-3.3,0.6-6.9,1.7-10.8c1.2-3.9,2.3-7.6,3.5-10.8l64.5-180.4h-25.7l1.2-4h46L1124.2,364.7z"/>
	<path class="st0" d="M1204.5,364.7c-1,2.9-1.9,5.8-2.9,8.8c-1,3-1.4,5.8-1.4,8.5c0,2.3,0.7,4.3,2,5.9c1.3,1.6,3.4,2.5,6.1,2.5
		c3.1,0,6.1-1.1,9.1-3.2c3-2.1,5.7-4.6,8.2-7.4c2.5-2.8,4.6-5.6,6.4-8.5c1.7-2.9,3-5.2,3.8-6.9l3.5,1.4c-0.8,1.5-2,3.9-3.6,7.1
		c-1.6,3.2-3.9,6.4-6.8,9.5c-2.9,3.2-6.5,5.9-10.7,8.2c-4.2,2.3-9.3,3.5-15,3.5c-6.4,0-11.4-1.3-15.2-3.9c-3.8-2.6-5.6-7-5.6-13.2
		c0-3.3,0.6-6.9,1.7-10.8c1.2-3.9,2.3-7.6,3.5-10.8l64.5-180.4h-25.7l1.2-4h46L1204.5,364.7z"/>
</g>
</svg>
