<svg id="a42fbbe6-37e5-4e0d-99f0-d220c33e6f1c" data-name="arrows" xmlns="http://www.w3.org/2000/svg" width="100mm" height="100mm" viewBox="0 0 283.46 283.46">
  <g>
    <g>
      <path d="M260.32,64.1A142.59,142.59,0,0,0,212.6,19" style="fill: none;stroke: #fff;stroke-miterlimit: 10"/>
      <polygon points="264.04 70.1 262.17 59.52 259.99 63.68 255.29 63.86 264.04 70.1" style="fill: #fff"/>
    </g>
    <g>
      <path d="M64.85,22.67A142.42,142.42,0,0,0,19.42,70.1" style="fill: none;stroke: #fff;stroke-miterlimit: 10"/>
      <polygon points="70.87 18.98 60.27 20.79 64.42 22.99 64.57 27.69 70.87 18.98" style="fill: #fff"/>
    </g>
  </g>
  <g>
    <g>
      <path d="M22.18,217.88a142.5,142.5,0,0,0,48.69,46.6" style="fill: none;stroke: #fff;stroke-miterlimit: 10"/>
      <polygon points="18.53 211.83 20.28 222.44 22.51 218.29 27.2 218.18 18.53 211.83" style="fill: #fff"/>
    </g>
    <g>
      <path d="M218.62,260.79a142.29,142.29,0,0,0,46.31-49" style="fill: none;stroke: #fff;stroke-miterlimit: 10"/>
      <polygon points="212.6 264.48 223.19 262.66 219.04 260.46 218.89 255.77 212.6 264.48" style="fill: #fff"/>
    </g>
  </g>
</svg>
