<svg id="f52142d3-adc6-4ff0-bfff-28f5669b65e0" data-name="MTV" xmlns="http://www.w3.org/2000/svg" width="100mm" height="100mm" viewBox="0 0 283.46 283.46">
  <path d="M141.73,0A141.73,141.73,0,1,1,0,141.73" style="fill: none;stroke: #c28d03;stroke-miterlimit: 10;stroke-width: 2px"/>
  <path d="M141.73,14.17a127.56,127.56,0,0,1,0,255.12" style="fill: none;stroke: #fff;stroke-miterlimit: 10;stroke-width: 2px"/>
  <path d="M141.73,28.35A113.39,113.39,0,1,1,28.35,141.73" style="fill: none;stroke: #c28d03;stroke-miterlimit: 10;stroke-width: 2px"/>
  <path d="M141.73,42.52a99.21,99.21,0,0,1,99.21,99.21" style="fill: none;stroke: #fff;stroke-miterlimit: 10;stroke-width: 2px"/>
  <path d="M104.76,141.41h3.34V120.83h-3.34v-.42h6.77l5.57,16.18h.06l5.57-16.18h6.64v.42H126v20.58h3.34v.42h-9.68v-.42H123V121H123l-7.19,20.85-7.17-20.64h-.06v20.19h3.34v.42h-7.13Z" style="fill: #fff"/>
  <path d="M138.61,141.41H142V120.83h-1.74a9.79,9.79,0,0,0-1.36.1,3.9,3.9,0,0,0-1.52.59,5.23,5.23,0,0,0-1.47,1.52,9.87,9.87,0,0,0-1.22,2.87h-.33v-5.5H152.6v5.5h-.33a9.87,9.87,0,0,0-1.22-2.87,5.23,5.23,0,0,0-1.47-1.52,3.9,3.9,0,0,0-1.52-.59,9.9,9.9,0,0,0-1.36-.1H145v20.58h3.34v.42h-9.69Z" style="fill: #fff"/>
  <path d="M156.39,120.41h9.3v.42h-3.34L169,138.28l6.59-17.45h-3.28v-.42h6.5v.42h-2.71L168,142.28h-.76l-8.18-21.45h-2.71Z" style="fill: #fff"/>
  <path d="M114.4,160.73h1.8a1.66,1.66,0,0,0,1.86,1.7c1,0,1.67-.46,1.67-1.29v0c0-.86-.57-1.14-1.46-1.42l-1.44-.5c-1.41-.45-2.29-1.18-2.29-2.74v0c0-1.64,1.44-2.61,3.28-2.61s3.27.91,3.39,2.73h-1.79a1.45,1.45,0,0,0-1.61-1.43c-.85,0-1.51.43-1.51,1.23v0c0,.69.42,1.05,1.18,1.3l1.45.49c1.46.46,2.57,1.06,2.57,2.72V161c0,1.86-1.48,2.79-3.46,2.79C115.76,163.74,114.5,162.59,114.4,160.73Z" style="fill: #c28d03"/>
  <path d="M125.42,150.21v2.15h-1.8v-2.15Zm-1.8,3.87h1.8v9.41h-1.8Z" style="fill: #c28d03"/>
  <path d="M127.57,158.68v-.19c0-3.15,1.53-4.66,3.5-4.66a2.81,2.81,0,0,1,2.59,1.35v-1.1h1.81v9c0,2.95-1.63,4-3.89,4s-3.57-1.26-3.71-3.08h1.78a1.8,1.8,0,0,0,2,1.72c1.15,0,2-.61,2-2.5V162a2.79,2.79,0,0,1-2.59,1.36C129.1,163.34,127.57,161.82,127.57,158.68Zm6.15-.06v-.07c0-2.3-.82-3.3-2.12-3.3s-2.1,1-2.1,3.3v.07c0,2.3.81,3.3,2.1,3.3S133.72,160.92,133.72,158.62Z" style="fill: #c28d03"/>
  <path d="M138.09,154.08h1.8v1a2.73,2.73,0,0,1,2.41-1.23c1.93,0,3,1.15,3,3.58v6.08h-1.81v-5.67c0-1.72-.59-2.55-1.79-2.55s-1.78.83-1.78,2.55v5.67h-1.8Z" style="fill: #c28d03"/>
  <path d="M147.18,160.94v-.06c0-2.36,2.19-3.12,5.57-3.22v-.49c0-1.48-.66-2.06-1.7-2.06s-1.65.58-1.68,1.8h-1.8c.06-2,1.45-3.11,3.52-3.11s3.48.89,3.46,3.6l0,3.28a15.38,15.38,0,0,0,.17,2.81H153c0-.37-.06-.73-.08-1.18a3,3,0,0,1-2.73,1.42A2.69,2.69,0,0,1,147.18,160.94Zm5.62-2c-2.46.08-3.74.51-3.74,1.87v0a1.45,1.45,0,0,0,1.61,1.57c1.2,0,2.13-.75,2.13-2.49Z" style="fill: #c28d03"/>
  <path d="M157,150.21h1.8v13.28H157Z" style="fill: #c28d03"/>
  <path d="M161,160.73h1.8a1.65,1.65,0,0,0,1.86,1.7c1,0,1.67-.46,1.67-1.29v0c0-.86-.58-1.14-1.46-1.42l-1.45-.5c-1.4-.45-2.29-1.18-2.29-2.74v0c0-1.64,1.45-2.61,3.28-2.61s3.27.91,3.4,2.73H166a1.44,1.44,0,0,0-1.6-1.43c-.85,0-1.51.43-1.51,1.23v0c0,.69.41,1.05,1.18,1.3l1.44.49c1.47.46,2.58,1.06,2.58,2.72V161c0,1.86-1.48,2.79-3.47,2.79C162.31,163.74,161.06,162.59,161,160.73Z" style="fill: #c28d03"/>
</svg>
