<?xml version="1.0" encoding="utf-8"?>
<!-- Generator: Adobe Illustrator 25.2.3, SVG Export Plug-In . SVG Version: 6.00 Build 0)  -->
<svg version="1.0" xmlns="http://www.w3.org/2000/svg" xmlns:xlink="http://www.w3.org/1999/xlink" x="0px" y="0px"
	 viewBox="0 0 1920 1080" style="enable-background:new 0 0 1920 1080;" xml:space="preserve">
<style type="text/css">
	.st0{display:none;}
	.st1{display:inline;}
	.st2{fill:#FFFFFF;}
</style>
<g id="TYPO" class="st0">
	<g class="st1">
		<path d="M264.4,342.5c-21.9,0-42,5.7-60.6,17c-18.5,11.3-35.4,26.1-50.6,44.5c-15.2,18.3-28.7,39.1-40.4,62.3
			c-11.7,23.2-21.5,46.8-29.3,70.8c-7.8,24-13.8,47.3-17.8,69.9c-4.1,22.6-6.1,42.3-6.1,59.1c0,12.1,1.4,23.8,4.1,35.1
			c2.7,11.3,7.6,21.2,14.6,29.5c7,8.4,16.5,15.1,28.4,20.2c11.9,5.1,27,7.6,45.3,7.6c23,0,44-5.9,62.9-17.6
			c18.9-11.7,35.9-26.9,50.9-45.6c15-18.7,28.2-39.8,39.5-63.2c11.3-23.4,20.6-47,27.8-70.8c7.2-23.8,12.7-46.5,16.4-68.2
			c3.7-21.7,5.6-39.9,5.6-54.7c0-30.4-7.2-54-21.7-70.8C319,350.9,296,342.5,264.4,342.5z"/>
		<path d="M622.8,557.6c1.4-5.3,2-9.8,2-13.8c0-3.5-0.5-7.3-1.5-11.4c-1-4.1-2.7-7.9-5.3-11.4c-2.5-3.5-6-6.5-10.2-9.1
			c-4.3-2.5-9.9-3.8-17-3.8c-12.9,0-25.5,3.6-37.7,10.8c-12.3,7.2-23.8,16.7-34.5,28.4c-10.7,11.7-20.6,25.1-29.5,40.1
			c-9,15-16.7,30.2-23.1,45.6c-6.4,15.4-11.4,30.3-14.9,44.8c-3.5,14.4-5.3,27.1-5.3,38c0,12.5,2.4,22.6,7.3,30.4
			c4.9,7.8,13,11.7,24.3,11.7c11.3,0,22.8-3.5,34.5-10.5c11.7-7,22.4-15.4,32.2-25.2c9.7-9.7,18.1-19.5,25.2-29.3
			c7-9.7,11.5-17.4,13.5-22.8l31-86C618.4,571.7,621.4,562.8,622.8,557.6z"/>
		<path d="M0,0v1080h1920V0H0z M1568.9,349.8c5.3-5.3,11.8-7.9,19.6-7.9c7.8,0,14.3,2.6,19.6,7.9c5.3,5.3,7.9,11.8,7.9,19.6
			c0,7.8-2.6,14.3-7.9,19.6c-5.3,5.3-11.8,7.9-19.6,7.9c-7.8,0-14.3-2.6-19.6-7.9s-7.9-11.8-7.9-19.6
			C1561,361.6,1563.7,355.1,1568.9,349.8z M392.2,567.5c-6.4,21.3-15.4,41.5-26.9,60.9c-11.5,19.3-25.3,37.4-41.3,54.1
			c-16,16.8-33.4,31.4-52.1,43.9c-18.7,12.5-38.5,22.2-59.4,29.3c-20.9,7-42.2,10.5-64.1,10.5c-19.5,0-37.4-3.6-53.8-10.8
			c-16.4-7.2-30.4-17.8-42.1-31.9c-11.7-14-20.9-31.5-27.5-52.4c-6.6-20.9-9.9-45-9.9-72.3c0-22.2,3.5-44.3,10.5-66.1
			c7-21.8,16.5-42.6,28.4-62.3c11.9-19.7,26-37.8,42.4-54.4c16.4-16.6,33.8-30.9,52.4-43c18.5-12.1,37.7-21.5,57.6-28.4
			c19.9-6.8,39.6-10.2,59.1-10.2c25.4,0,46.7,5.2,64.1,15.5c17.4,10.3,31.4,23.7,42.1,40.1c10.7,16.4,18.4,34.6,23.1,54.7
			c4.7,20.1,7,39.9,7,59.4C401.9,525.1,398.7,546.2,392.2,567.5z M620.1,754.5c7.8,0,14.8-2.2,21.1-6.7c6.2-4.5,11.6-9.6,16.1-15.2
			c4.5-5.7,8.2-11.3,11.1-17c2.9-5.6,5-9.7,6.1-12l7.6,4.1c-2,4.3-4.9,9.8-8.8,16.4c-3.9,6.6-9,13-15.2,19
			c-6.2,6.1-13.5,11.3-21.7,15.8c-8.2,4.5-17.8,6.7-28.7,6.7c-25.7,0-38.6-11.7-38.6-35.1c0-2.7,0.6-7.5,1.8-14.3
			c1.2-6.8,2.7-13,4.7-18.4h-1.2c-5.5,6.6-11.7,14-18.7,21.9c-7,8-14.9,15.4-23.7,22.2c-8.8,6.8-18.4,12.5-29,17
			c-10.5,4.5-22.2,6.7-35.1,6.7c-8.2,0-16.1-1.5-23.7-4.4c-7.6-2.9-14.3-7.4-20.2-13.5c-5.9-6-10.4-13.8-13.8-23.1
			c-3.3-9.4-5-20.5-5-33.4c0-15.6,3.1-31.2,9.4-46.8c6.2-15.6,14.3-30.5,24.3-44.8c9.9-14.2,21.4-27.4,34.5-39.5
			c13.1-12.1,26.3-22.6,39.8-31.6c13.5-9,26.7-16,39.8-21.1c13.1-5.1,24.7-7.6,34.8-7.6c11.7,0,21.7,3.3,29.8,9.9
			c8.2,6.6,12.3,15.4,12.3,26.3h1.2l9.9-28.7h41l-63.8,177.3c-3.5,10.1-6.5,19.9-9.1,29.3c-2.5,9.4-3.8,17.8-3.8,25.2
			C605.5,749.4,610.4,754.5,620.1,754.5z M939,744.2c-5.5,6.1-11.9,11.1-19.3,15.2c-7.4,4.1-16.2,6.1-26.3,6.1
			c-10.9,0-19.9-2.6-26.9-7.9c-7-5.3-12.5-16.5-16.4-33.6l-15.8-73.1c-1.2-6.2-2.4-12.2-3.8-17.8c-1.4-5.6-3.3-10.6-5.9-14.9
			c-2.5-4.3-6-7.7-10.2-10.2c-4.3-2.5-10-3.8-17-3.8h-12.9l-55,154.5h-40.4L844.8,322h-52.1l2.3-8.2h93.6l-100.6,282h12.3
			c13.7,0,26.3-5.3,38-15.8c11.7-10.5,22.4-22.6,32.2-36.3c21.8-29.3,43.1-43.9,63.8-43.9c8.6,0,15.7,2.4,21.4,7.3
			c5.6,4.9,8.5,13.2,8.5,24.9c0,9-2.3,15.9-7,20.8c-4.7,4.9-10.5,7.3-17.6,7.3c-14,0-21.1-5.3-21.1-15.8c0-5.1,0.8-8.7,2.3-10.8
			c1.6-2.1,2.3-5.2,2.3-9.1c0-4.7-3.1-7-9.4-7c-4.7,0-9.7,2.6-14.9,7.9c-5.3,5.3-11.6,12.4-19,21.4l-14.6,17.6
			c-7.4,9.4-14.7,17.1-21.9,23.1c-7.2,6.1-13.2,9.9-17.8,11.4v1.8c4.3,0.8,8.9,1.7,13.8,2.6c4.9,1,9.6,3,14,6.1
			c4.5,3.1,8.7,7.6,12.6,13.5c3.9,5.9,6.8,14,8.8,24.6l15.2,77.8c1.6,7.4,3.7,14.1,6.4,20.2c2.7,6.1,7.2,9.1,13.5,9.1
			c5.5,0,10.6-2.1,15.5-6.4c4.9-4.3,9.3-9.4,13.2-15.2c3.9-5.9,7.2-11.7,9.9-17.6c2.7-5.9,4.7-10.3,5.9-13.5l8.2,2.3
			c-2.7,6.2-6,13-9.7,20.2C949.1,731.5,944.5,738.2,939,744.2z M1381.4,758.6H1200l2.3-8.2h60.9l72.6-200.7h-188.4l-72.6,200.7h67.3
			l-2.3,8.2H960.1l2.3-8.2h59.7l143.4-400.2h-66.7l2.3-8.2h180.8l-2.3,8.2h-60.9l-68.5,191.3h188.4l69-191.3h-67.3l2.3-8.2H1523
			l-2.3,8.2h-60.3l-143.9,400.2h67.3L1381.4,758.6z M1561.9,722.6c-3.3,6.4-7.9,12.9-13.8,19.3s-13.1,12-21.7,16.7
			c-8.6,4.7-18.7,7-30.4,7c-12.9,0-23.1-2.6-30.7-7.9c-7.6-5.3-11.4-14.1-11.4-26.6c0-6.6,1.2-13.9,3.5-21.9c2.3-8,4.7-15.3,7-21.9
			l60.3-171.4h-52.1l2.3-8.2h93l-69,198.4c-2,5.9-3.9,11.8-5.9,17.8c-2,6.1-2.9,11.8-2.9,17.3c0,4.7,1.4,8.7,4.1,12
			c2.7,3.3,6.8,5,12.3,5c6.2,0,12.4-2.1,18.4-6.4c6-4.3,11.6-9.3,16.7-14.9c5.1-5.6,9.4-11.4,12.9-17.3c3.5-5.9,6-10.5,7.6-14l7,2.9
			C1567.7,711.4,1565.2,716.1,1561.9,722.6z M1695.3,722.6c-3.3,6.4-7.9,12.9-13.7,19.3c-5.9,6.4-13.1,12-21.7,16.7
			c-8.6,4.7-18.7,7-30.4,7c-12.9,0-23.1-2.6-30.7-7.9c-7.6-5.3-11.4-14.1-11.4-26.6c0-6.6,1.2-13.9,3.5-21.9c2.3-8,4.7-15.3,7-21.9
			L1728.4,322h-52.1l2.3-8.2h93l-139.3,392c-2,5.9-3.9,11.8-5.8,17.8c-2,6.1-2.9,11.8-2.9,17.3c0,4.7,1.4,8.7,4.1,12
			c2.7,3.3,6.8,5,12.3,5c6.2,0,12.4-2.1,18.4-6.4c6-4.3,11.6-9.3,16.7-14.9c5.1-5.6,9.4-11.4,12.9-17.3c3.5-5.9,6-10.5,7.6-14l7,2.9
			C1701.1,711.4,1698.6,716.1,1695.3,722.6z M1761.2,753c2.7,3.3,6.8,5,12.3,5c6.2,0,12.4-2.1,18.4-6.4c6-4.3,11.6-9.3,16.7-14.9
			c5.1-5.6,9.4-11.4,12.9-17.3c3.5-5.9,6-10.5,7.6-14l7,2.9c-1.6,3.1-4,7.9-7.3,14.3c-3.3,6.4-7.9,12.9-13.8,19.3
			c-5.9,6.4-13.1,12-21.7,16.7c-8.6,4.7-18.7,7-30.4,7c-12.9,0-23.1-2.6-30.7-7.9c-7.6-5.3-11.4-14.1-11.4-26.6
			c0-6.6,1.2-13.9,3.5-21.9c2.3-8,4.7-15.3,7-21.9L1861.8,322h-52.1l2.3-8.2h93l-139.3,392c-2,5.9-3.9,11.8-5.9,17.8
			c-2,6.1-2.9,11.8-2.9,17.3C1757.1,745.7,1758.4,749.7,1761.2,753z"/>
	</g>
</g>
<g id="FULL" class="st0">
	<path class="st1" d="M0,2.7v1080h1920V2.7H0z M1845.5,372.2c1,5,1.9,9.4,6.5,12l0.1,0c3.9,1.8,6.9,5.2,8.1,9.3
		c0.9,2.9,0.9,6.1-0.2,9.3h0c-0.2,0.7-1.2,3.5-6.8,11.7c-0.2,0.5-0.6,0.9-1,1.5c-2.1,2.7-2.8,5.2-2.2,7.5c0.9,3.5,4.8,6.6,12.1,9.7
		l0.6,0.2c4,1.4,7,4.5,8.3,8.6c2.1,6.9-1.8,14.3-8.7,16.4c-5.5,1.7-8.8,3.8-10.1,6.5c-1.7,3.4-0.2,7.4,1.4,11.6
		c0.5,1.4,1,2.8,1.5,4.2c1.5,4.9,0.1,10-3.9,13.7c-0.1,0.1-0.1,0.1-0.2,0.2c-7.6,7.4-31.9,17.2-42.1,21.1c-7.9,3.7-6.4,7.7-4.9,12
		c0.3,0.7,0.5,1.5,0.8,2.2c1.8,5.9-1.5,12.2-7.4,14c-19.9,6.1-39.9,12.3-59.8,18.4c36.8-25.4,63.3-63.1,74.6-106.3l-0.3-0.1
		c-13.2,39.7-39.7,74.1-74.7,97c10.8-11.1,14.5-23.3,10.8-35.4c-2.1-6.9,1.8-14.3,8.7-16.4c4.3-1.3,7.1-4.2,8.2-8.2
		c2-7.5-2.3-18.1-11.2-27.6l-0.1-0.1c-1.7-1.8-2.9-3.8-3.6-6c-2.4-7.9,2-16.4,9.9-18.8c1.3-0.4,2.1-1,2.5-2c0.8-2.1-1.2-5.1-3.6-8.6
		c-1.1-1.6-2.2-3.3-3.2-5.1l-0.1-0.2c-0.5-1-0.8-1.8-1.1-2.6c-2.4-7.9,2-16.4,9.9-18.8c3.8-1.2,7.8-0.8,11.4,1.1
		c3.5,1.9,6.1,5,7.3,8.9c1.7,5.7,5.4,7.5,8.1,6.6c2.7-0.8,4.8-4.3,3.1-10.1l-5.7-18.7l-2.6-8.6c-1.5-4.9,1.3-10.2,6.2-11.7
		c3.1-1,6.4-0.2,9.1,2.1l0,0c1.2,1,2.2,1.3,2.8,1c1.2-0.6,1.2-3.3,1.1-6.4l0-0.7c-0.5-4.5,2.2-8.6,6.5-10c3.9-1.2,5.5-4,6.2-5.6
		l0.1-0.2c0.1-0.3,0.2-0.5,0.3-0.8l0-0.1c1.8-4,6.1-6.1,10.3-5.2c4.3,0.9,7.4,4.8,7.4,9.3c0.1,4.3,2,5.4,2.7,5.7l0,0
		c2.6,1.4,4.6,3.8,5.5,6.7C1844.8,368.5,1845.2,370.4,1845.5,372.2z M1741.5,331.5c1.1-1.5,2.7-2.5,4.5-2.8c0.5-0.1,1-0.1,1.4-0.2
		c2.8-0.3,5.5-0.6,5.4-6c-0.6-6.7-1.8-22.8,0.2-29.1c0-0.1,0-0.1,0.1-0.2c1-3.2,3.4-5.3,6.5-5.8c0.9-0.1,1.8-0.2,2.7-0.3
		c2.8-0.3,5.4-0.5,6.8-2.4c1.2-1.5,1.4-3.9,0.9-7.4c-0.3-2.1,0.2-4.2,1.4-6c1.3-1.7,3.1-2.9,5.2-3.2c2.5-0.4,5.1,0.4,6.9,2.3
		l0.5,0.5c3.6,3.1,6.4,4.4,8.6,3.9c1.5-0.3,2.7-1.4,3.6-3.3c0.2-0.4,0.4-0.7,0.6-1c2.8-4.9,4-6.4,4.5-6.8l0,0
		c1.6-1.5,3.3-2.4,5.1-2.7c2.6-0.4,5.2,0.3,7.3,2l0.1,0.1c2.7,1.8,5.4,1.1,8.4,0.3c1.1-0.3,2.3-0.6,3.5-0.8c1.8-0.3,3.6,0.1,5.1,1.2
		c0.4,0.3,1.6,1.1,4,0c2.4-1.2,5.4-0.6,7.1,1.6c1.6,2.1,1.6,5-0.1,7.1l-0.1,0.1l-0.4,0.4c-0.7,0.8-1.8,2.5-1.4,5
		c0.4,2.7-1.1,5.3-3.7,6.2l-0.4,0.2c-1.8,0.8-3.3,1.5-3.3,2.4c0,0.5,0.4,0.9,1.3,1.3c0,0,0,0,0,0c2.1,0.9,3.4,2.5,3.7,4.5
		c0.2,1.5-0.1,3-1,4.2c-0.9,1.2-2.2,2-3.7,2.3l-8.1,1.3l-9.3,1.5c-3.7,0.6-5.1,2.7-4.8,4.5c0.3,1.8,2.3,3.4,6,2.8
		c5-0.8,9.8,2.6,10.6,7.6c0.4,2.4-0.2,4.8-1.6,6.8c-1.4,2-3.6,3.3-6,3.7c-0.5,0.1-1,0.1-1.7,0.1c-0.1,0-0.2,0-0.3,0
		c-1.1,0-2.4-0.2-3.5-0.4c-2.6-0.3-4.8-0.6-5.8,0.4c-0.4,0.4-0.6,1.1-0.4,2c0.4,2.4-0.2,4.8-1.6,6.8c-1.4,2-3.6,3.3-6,3.7
		c-1.4,0.2-2.8,0.1-4.3-0.4l-0.1,0c-7.7-2.3-14.7-1.9-18.4,1.3c-2,1.7-2.8,4.1-2.3,6.9c0.3,2.1-0.2,4.2-1.4,6
		c-1.3,1.7-3.1,2.9-5.2,3.2c-7.6,1.2-13.2,6.4-16.5,15.1c3.3-25.4,15-49.2,33.2-67.1l-0.2-0.3c-20.7,17.9-34.4,42.7-38.4,69.8
		c-2-12.6-4.1-25.2-6.1-37.8C1740,334.8,1740.4,333,1741.5,331.5z M1589.6,295.1c4.1-2.3,9.3-2,13.2,0.7c1.9,1.4,4.3,1.6,6.4,0.7
		c2.7-1.2,7.4-5.4,8.8-19.8c0.2-5.7,3.3-10.8,8.2-13.6c5.7-3.2,12.7-2.7,17.8,1.4c3.3,2.8,6.5,3.8,9.7,3.3
		c4.1-0.8,8.1-4.4,11.5-10.5c1.2-2.8,3.2-5,5.8-6.4c6.5-3.7,14.9-1.3,18.5,5.2c1.6,2.9,2.1,6.4,1.4,9.7c-0.3,2,0,3.2,0.8,3.8
		c1.6,1.1,4.9,0,11.9-4c1.2-0.7,2.2-1,3.1-1.2c2.9-0.6,6.1,0,8.6,1.7l0.3,0.2c2.2,1.3,5.4,0.8,5.7,0.7c5.7-1.5,11.7,1.1,14.6,6.2
		c2.9,5.1,1.9,11.6-2.3,15.7c-0.3,0.3-2.4,2.7-2.4,5.2c0,0,0,0,0,0l0,0.4c0.1,3-1,6-3,8.2c-0.6,0.7-1.4,1.4-2.6,2
		c-7,3.9-9.7,6.2-9.6,8.1c0,1,1,1.9,2.8,2.7c3.2,1.1,5.9,3.3,7.6,6.2c3.7,6.5,1.3,14.9-5.2,18.5c-2.6,1.5-5.5,2-8.5,1.6
		c-7-0.3-12.2,1.2-14.9,4.4c-2.2,2.4-2.9,5.8-2.3,10c0.8,6.5-2.4,12.7-8.1,15.9c-5,2.8-10.9,2.8-15.9-0.1c-13-6.4-19.1-4.5-21.5-2.8
		c-1.9,1.3-2.9,3.4-2.8,5.7c0.3,4.9-2.1,9.5-6.3,11.8c-3.5,2-7.8,2.1-11.5,0.3l-0.2-0.1c-2-1-3.7-1.9-5.3-2.7
		c-4.3-2.2-6.6-3.5-8.8-3l-3,1.9c-0.9,0.9-1.8,2.1-2.9,3.7c-0.8,1.6-2,2.9-3.5,3.7c-2,1.1-4.3,1.4-6.5,0.8l-0.1,0
		c-0.7-0.2-1.2-0.4-1.7-0.7c-5.7-2.4-18-8.2-27.5-12.7c13-11.6,26.3-22.3,39.6-31.7c25.1-17.8,52.1-33,80.2-45.3l-0.1-0.3
		c-41.1,14-79.9,33.9-115.3,59c-4.6,3.3-9.4,6.9-15.6,11.6c0.6-6.1,3.3-31.9,4.6-41.2c0-0.6,0.1-1.1,0.3-1.7l0-0.2
		c0.6-2.3,2.1-4.1,4.1-5.2c1.5-0.9,3.3-1.2,5-1.1c2-0.1,3.5-0.2,4.6-0.5l3.2-1.6c1.6-1.7,1.8-4.3,2.1-9.1c0.1-1.7,0.3-3.6,0.5-5.9
		C1583.8,300.6,1586.1,297,1589.6,295.1z M1481.9,204.1c4.5-5.3,12.5-5.8,17.8-1.3c2.5,2.1,5,2.9,7.1,2.2c1.4-0.5,2.3-1.6,2.6-3
		c0.4-2.2-0.8-4.6-3.2-6.7l-8-6.9l-10.1-8.7c-1.6-1.4-2.5-3.3-2.7-5.3c-0.2-2.1,0.5-4.1,1.9-5.7c1.8-2.1,4.5-3,7.5-2.6v0
		c1.3,0.1,2.1-0.1,2.4-0.6c0.6-1-0.6-2.9-2.1-5.1l-0.3-0.5c-2.3-2.9-2.3-7.1,0.2-10c2.2-2.6,2.2-5.3,1.9-6.8l0-0.2
		c-0.1-0.2-0.1-0.4-0.2-0.7l0-0.1c-0.5-3.6,1.6-7.1,5-8.3c3.5-1.3,7.5,0.1,9.4,3.3c2,3,3.9,3,4.5,2.9h0c2.5-0.2,5,0.6,6.9,2.3
		c1.3,1.1,2.4,2.3,3.5,3.4c3,3.1,5.6,5.8,10,5.6l0.1,0c3.6-0.5,7.2,0.6,9.9,2.9c2,1.7,3.3,3.9,4,6.7c0,0,0,0,0,0
		c0.2,0.7,0.6,3.2,0.3,11.3c0,0.4,0,0.9,0,1.5c-0.3,2.8,0.3,5,1.8,6.4c2.2,2.1,6.4,2.5,12.9,1.5l0.6-0.1c3.5-0.8,7,0,9.7,2.3
		c2.2,1.9,3.6,4.6,3.8,7.5c0.2,2.9-0.7,5.8-2.6,8c-3.2,3.7-4.6,6.7-4.3,9.2c0.3,3.2,3.2,5.3,6.2,7.6c1,0.7,2,1.5,2.9,2.3
		c3.2,2.8,4.5,7.1,3.4,11.5c0,0.1,0,0.1-0.1,0.3c-2.1,8.6-15.1,26.6-20.6,33.9c-4,6.2-1.1,8.4,1.9,10.7c0.5,0.4,1,0.8,1.5,1.2
		c1.9,1.6,3.1,3.9,3.2,6.4c0.2,2.5-0.6,4.9-2.3,6.8c-11.5,13.3-22.9,26.6-34.4,39.8c14.8-34.6,16.8-73.2,5.6-108.9l-0.3,0.1
		c8.3,34,4.9,70.2-9.8,102.2c2.6-12.6-0.2-22.9-8.2-29.8c-2.2-1.9-3.6-4.6-3.8-7.5c-0.2-2.9,0.7-5.8,2.6-8c2.5-2.9,3.2-6.2,2.2-9.6
		c-2-6.2-9.8-11.8-20.3-14.6l-0.1,0c-2-0.5-3.8-1.4-5.2-2.6c-2.5-2.2-4.1-5.3-4.3-8.6c-0.2-3.4,0.8-6.6,3-9.2
		c0.8-0.9,1.1-1.7,0.9-2.5c-0.4-1.8-3.2-3.1-6.4-4.5c-1.5-0.7-3-1.3-4.4-2.1c-0.1,0-0.2-0.1-0.3-0.2c-0.8-0.5-1.4-0.9-1.9-1.3
		c-2.5-2.2-4.1-5.3-4.3-8.6C1478.6,209.9,1479.7,206.6,1481.9,204.1z M1313,217.8c3.1-4.3,8.9-5.8,13.7-3.6c4.7,2,6.9,0.4,7.5-0.2
		l0,0c2.8-2.2,6.3-3.2,9.9-2.8c2.4,0.3,4.6,0.8,6.8,1.2c6,1.3,11.2,2.4,16.1-1.4l0.1-0.1c3.9-3.4,9-5.1,14-4.5c3.6,0.4,7,2,10,4.6
		l0,0c0.7,0.6,3.3,3.2,9.4,13.1c0.4,0.5,0.7,1.1,1.2,1.8c1.9,3.5,4.2,5.6,7.1,6c4.3,0.7,9.5-2.1,16.5-8.6l0.4-0.5
		c3.4-3.7,8.4-5.5,13.3-4.9c4.2,0.5,7.9,2.6,10.5,5.9c2.6,3.3,3.7,7.4,3.2,11.5c-0.8,6.8-0.1,11.4,2.2,14.2c2.9,3.4,7.9,3.7,13.2,4
		c1.7,0.1,3.5,0.2,5.3,0.4c6,0.7,11,4.8,13,10.6c0,0.1,0.1,0.2,0.2,0.6v0c4.4,11.9,3.3,43.2,2.6,56.1c0.2,10.4,5.3,10.7,10.7,11
		c0.9,0.1,1.9,0.1,2.8,0.2c3.5,0.4,6.7,2.2,8.9,5c2.2,2.8,3.2,6.3,2.8,9.9c-3,24.8-6,49.6-9,74.4c-9.8-52.5-38-99.6-79.6-132.8
		l-0.2,0.3c36.8,33.5,61.5,79.1,69.5,128.5c-6.9-17.3-18.4-27.3-33.3-29.1c-4.2-0.5-7.9-2.6-10.5-5.9c-2.6-3.3-3.7-7.4-3.2-11.5
		c0.6-5.3-1.1-9.8-5-12.9c-7.2-5.8-20.8-6.1-35.4-1l-0.1,0c-2.8,1-5.5,1.4-8.3,1c-9.8-1.2-16.8-10.1-15.7-19.9
		c0.2-1.7-0.1-2.8-0.9-3.6c-1.9-1.8-6.1-1.1-11-0.2c-2.3,0.4-4.6,0.8-7.2,1l-0.2,0c-1.3,0.1-2.4,0-3.3-0.1c-4.8-0.6-9-3-12-6.7
		c-3-3.8-4.3-8.5-3.7-13.2c1.2-9.8,10.1-16.8,19.9-15.6c7.1,0.8,10.7-2.3,11.1-5.7c0.4-3.3-2.4-7.3-9.5-8.1l-1.5-0.2l-32.2-3.9
		c-6.1-0.7-10.5-6.3-9.7-12.4c0.5-3.9,2.9-7.1,6.7-8.9l0,0c1.7-0.9,2.5-1.7,2.5-2.6c-0.1-1.6-3-2.8-6.4-4.2l-0.8-0.3
		c-5.1-1.6-8.3-6.6-7.7-11.9c0.6-4.8-1.7-7.9-3.1-9.4l-0.2-0.2c-0.3-0.2-0.5-0.5-0.8-0.7l-0.1-0.1
		C1310.2,227.7,1309.9,222,1313,217.8z M1468.4,578.8c12.5,29.7,59.9,85.8,59.9,146.9l-0.7,73.8c0-67.8-66.7-161.9-80.5-194.9
		c-7.4-17.7-14.4-36.1-14.4-56.6c0-39.8,19.1-75.9,49.9-96.3c6.9-4.5,14.2-7.9,14.2-7.9c-25.1,19.4-41.3,49.8-41.3,84
		C1455.4,546.3,1461.7,562.9,1468.4,578.8z M1180,619.4c-1.4-2.6-4.2-4.3-8.3-5c-0.9-0.1-1.6-0.3-2.2-0.5c-12-2.8-15.4-4.5-16.1-5
		l0,0c-3.6-2-6.2-4.9-7.9-8.3c-2.3-4.8-2.4-10.4-0.3-15.4l0-0.1c2.1-6.2-0.8-10.9-4-16.4c-1.2-2-2.4-4-3.5-6.3
		c-1.6-3.4-1.8-7.2-0.5-10.7l0,0c0.4-0.8,1.2-3.5-2.3-7.5c-3.8-4-4.3-10.3-1-14.8c3.2-4.4,8.9-6,14-3.9l0.1,0c0.3,0.1,0.7,0.3,1,0.5
		l0.2,0.1c1.9,0.9,5.8,2.1,10.3-0.1c5-2.4,11.1-0.9,14.4,3.6l0.6,0.7c2.5,2.9,4.7,5.4,6.3,4.9c0.9-0.2,1.4-1.3,1.8-3.3l0,0
		c0.5-4.3,2.9-7.8,6.6-9.6c2.8-1.3,6-1.5,8.9-0.5c2.9,1,5.3,3.2,6.6,6l0.7,1.5l14.6,30.5c2,4.3,5.1,6.9,8.3,7.2
		c2.1,0.2,4-0.7,5.2-2.5c1.8-2.7,1.7-6.7-0.3-10.9c-4.4-9.3-0.5-20.5,8.8-25c4.5-2.2,9.6-2.4,14.3-0.8c4.7,1.7,8.5,5.1,10.7,9.6
		c0.4,0.9,0.8,2,1.2,3.3l0,0.2c0.7,2.6,1,5,1.4,7.4c0.8,4.9,1.5,9.6,3.9,10.9c1,0.5,2.3,0.5,3.9-0.3c4.5-2.2,9.6-2.4,14.3-0.8
		c4.7,1.7,8.5,5.1,10.7,9.6c1.2,2.6,1.8,5.5,1.7,8.5v0.1c-0.1,16.2,4.7,29.5,12.8,34.7c4.4,2.8,9.4,3,14.5,0.6
		c3.9-1.9,8.4-2.1,12.5-0.7c4.1,1.5,7.4,4.4,9.3,8.4c6.8,14.3,20.6,22.3,40,23.3c-51.7,8.6-105.1-0.5-150.6-25.8l-0.2,0.3
		c46.8,30.1,102.9,42.3,158.2,34.4c-23.6,11.3-47.2,22.5-70.8,33.8c-3.4,1.6-7.2,1.8-10.7,0.6c-3.5-1.3-6.4-3.8-8-7.2
		c-0.4-0.9-0.8-1.8-1.2-2.7c-2.1-5.2-4.1-10.1-14.5-6.9c-12.6,5-43.3,16.5-56.5,16.2h-0.1c-0.4,0-0.5,0-0.6,0
		c-6.5-0.1-12.2-3.6-14.9-9.3c-0.8-1.7-1.5-3.4-2.2-5.1c-2.1-5.2-4-10-8.4-11.7c-3.5-1.4-8.3-0.5-14.8,2.5
		c-3.9,1.9-8.4,2.1-12.5,0.7c-4.1-1.5-7.4-4.4-9.3-8.4c-2.2-4.7-2.1-10.3,0.4-14.9l0.3-0.6C1181.1,629.6,1182.1,623.4,1180,619.4z
		 M1371.1,865.9c63.1-12,104.5-72.8,92.5-135.9c-5.7-29.9-22.3-54.9-45-71.7c36.3,14,64.8,45.8,72.6,86.8
		c12,63.1-29.4,123.9-92.5,135.9c-33.2,6.3-65.7-2.2-90.9-20.8C1327.3,867.7,1349.1,870.1,1371.1,865.9z M1231.3,407.8
		c0.7-4.6,3.2-8.6,7-11.3c3.5-2.5,7.8-3.6,12.1-3.1c2.5,0.1,4-0.4,4.6-1.6c1.1-2.1-0.8-6.2-6.8-14.4c-1-1.4-1.6-2.6-1.9-3.7
		c-1.2-3.6-0.9-7.7,0.9-11.1l0.2-0.4c1.4-3,0.2-6.9,0.1-7.3c-2.7-7-0.3-15,5.8-19.4c6.1-4.4,14.4-4.1,20.2,0.7
		c0.6,0.5,3.8,2.6,7,2.3c4.2-0.7,8.1,0.3,11.1,2.6c1,0.6,2,1.6,3,3c6,8.3,9.2,11.4,11.6,11c1.3-0.2,2.2-1.5,3-3.9
		c0.9-4.2,3.3-8,6.8-10.5c7.8-5.6,18.6-3.8,24.2,3.9c2.2,3.1,3.3,6.7,3.3,10.5c0.7,8.9,3.3,15.1,7.6,18.2c3.4,2.4,7.7,2.9,12.9,1.4
		c8.1-1.9,16.5,1.2,21.3,8c4.2,5.9,5.1,13.4,2.2,20.1c-6.1,17.4-2.9,24.7-0.5,27.5c2,2.3,4.8,3.2,7.7,2.7c6-1.1,12.1,1.4,15.6,6.3
		c3,4.2,3.8,9.6,2.1,14.5l-0.1,0.2c-0.9,2.7-1.8,5-2.6,7.1c-2.2,5.7-3.4,8.9-2.5,11.5l2.8,3.5c1.2,0.9,2.8,1.9,5.1,3.1
		c2.1,0.8,3.9,2.1,5.2,3.9c1.7,2.4,2.4,5.3,1.9,8.1l0,0.1c-0.2,0.9-0.4,1.6-0.6,2.2c-2.3,7.7-7.8,24.1-12.1,36.6
		c-16.5-14.7-31.9-30-45.8-45.5c-26-29.1-49.1-61-68.7-94.7l-0.3,0.2c23.6,49.9,54.2,96,91,137c4.8,5.4,10.1,11,17,18.1
		c-5.7,0.1-40.4,0.4-52.7,0.1c-0.7,0-1.5,0-2.2-0.1c-0.1,0-0.1,0-0.2,0c-2.9-0.5-5.5-2.1-7.2-4.4c-1.3-1.8-2-4-2.1-6.2
		c-0.4-2.5-0.8-4.3-1.3-5.8l-2.4-3.8c-2.3-1.7-5.7-1.6-11.8-1.3c-2.2,0.1-4.7,0.2-7.5,0.3c-5.4,0.1-10.3-2.4-13.3-6.5
		c-3.5-4.9-3.9-11.5-1-16.8l0.1-0.3c1.3-2.6,1.2-5.4-0.2-7.9c-1.9-3.2-7.9-8.6-26.3-8.2c-7.3,0.6-14.1-2.6-18.4-8.4
		c-4.9-6.7-5.2-15.7-0.8-22.8c3-4.5,3.9-8.8,2.7-12.7c-1.5-5.1-6.7-9.6-14.8-13c-3.7-1.1-6.8-3.3-9-6.4
		C1231.6,416.9,1230.5,412.3,1231.3,407.8z M1113.5,417.4c0.9-2.6,3.5-4.1,6.2-3.7c2.7,0.3,3.5-0.8,3.8-1.2l0,0
		c1.1-1.5,2.6-2.5,4.5-2.8c1.2-0.2,2.4-0.3,3.5-0.4c3.2-0.2,5.9-0.4,7.9-3l0.1-0.1c1.4-2.3,3.7-3.8,6.3-4.2c1.9-0.3,3.8,0,5.7,0.9v0
		c0.5,0.3,2.2,1.3,6.5,5c0.2,0.2,0.5,0.4,0.8,0.7c1.5,1.5,3,2.2,4.5,2c2.2-0.3,4.4-2.4,6.8-6.5l0.3-0.6c1.2-2.3,3.3-3.9,5.8-4.4
		c4.4-0.7,8.5,2.2,9.3,6.6c0.6,3.5,1.7,5.7,3.2,6.7c2,1.3,4.5,0.7,7.2,0.1c0.9-0.2,1.8-0.4,2.7-0.6c3.1-0.5,6.1,0.7,8,3.5
		c0,0,0.1,0.1,0.1,0.2c3.9,5.2,8,20.9,9.6,27.4c1.7,5.2,4.3,4.6,7,4c0.5-0.1,0.9-0.2,1.4-0.3c3.7-0.6,7.3,1.9,7.9,5.6
		c2.1,12.6,4.3,25.1,6.4,37.7c-12.6-24.4-33.5-43.4-58.9-53.7l-0.1,0.3c23,11.1,41.8,29.8,53.1,52.8c-5.9-7.2-12.9-10.3-20.5-9
		c-4.4,0.7-8.5-2.2-9.3-6.6c-0.5-2.8-2-4.8-4.4-5.7c-4.5-1.8-11.2,0-17.8,4.7l-0.1,0.1c-1.2,0.9-2.5,1.5-3.9,1.7
		c-5,0.8-9.8-2.5-10.6-7.5c-0.1-0.9-0.5-1.4-1-1.7c-1.2-0.6-3.3,0.4-5.6,1.5c-1.1,0.5-2.2,1.1-3.4,1.5l-0.1,0
		c-0.6,0.2-1.2,0.4-1.6,0.5c-5,0.8-9.8-2.5-10.6-7.5c-0.4-2.4,0.1-4.8,1.6-6.8c1.4-2,3.5-3.3,6-3.8c2.4-0.4,4-1.5,4.6-3
		c0.4-1,0.2-2.1-0.5-2.9c-1-1.3-3-1.8-5.4-1.4l-11.9,2l-5.4,0.9c-3.1,0.5-6-1.6-6.6-4.6c-0.3-2,0.4-3.9,2.1-5.4l0,0
		c0.7-0.7,0.9-1.2,0.8-1.6c-0.3-0.8-1.9-1-3.9-1.2l-0.4,0c-2.7,0-5-2-5.5-4.7c-0.4-2.5-2-3.7-3-4.3c-0.1-0.1-0.3-0.1-0.5-0.2
		l-0.1-0.1C1113.6,422.7,1112.7,420,1113.5,417.4z M921.3,381.1L921.3,381.1L921.3,381.1c10.7-15.4,28.5-25.6,48.7-25.6
		c19.8,0,37.4,9.8,48.1,24.9l0,0l0,0c14.5,21.7,30.4,42.4,47.4,62.2c40.9,48.4,86.4,53.5,86.4,53.5s-76.4,8.5-122.8-43.3
		c-14.2-15.7-27.6-32.2-40.2-49.3h-0.1c-4.3-5.7-11.2-9.4-18.9-9.4c-7.7,0-14.5,3.7-18.9,9.4h-0.1c-36.6,49.8-80.3,94.1-129.6,131.4
		c18.3,40.6,42.6,67.6,69.4,103.6c-38.6-28.8-73.6-62.2-104.1-99.4l0.2-0.1c-2.1-2.5-4.3-5-6.3-7.5
		C835.3,489.3,882.9,438.5,921.3,381.1z M1492.4,952c-346.5,0-653.6-168.4-844-427.8h-0.1c-7.1-9.3-18.4-15.4-31-15.4
		c-12.7,0-23.9,6-31,15.4H586c-97.6,132.9-225.8,241.9-374.2,316.6c-59.8,29.8-130.5,44.9-196.9,52.1
		c214.9-75.6,397.6-219.4,522.3-405.3l0.1,0.1l0.1,0c17.4-25.4,46.7-42.2,79.8-42.2c32.6,0,61.4,16.1,79,40.9l0.1,0l0.1,0
		c181.2,271.1,485.7,452.8,833.3,465C1517.3,951.7,1504.9,952,1492.4,952z M1503.1,570.6c23-43.2,60.3-77.7,105-97.1l-0.1-0.3
		c-49,17.6-90.1,52.4-115.7,97.9c5.1-23.9,10.1-47.9,15.2-71.8c1.5-7.1,8.5-11.6,15.6-10.1c0.9,0.2,1.8,0.4,2.7,0.7
		c5.1,1.4,9.9,2.7,13.4-6.9c3.5-12.2,12.4-41.6,20.2-51.2l0,0c0.3-0.4,0.3-0.5,0.4-0.5c3.7-4.8,9.6-6.9,15.4-5.7
		c1.7,0.4,3.4,0.8,5,1.3c5,1.4,9.7,2.7,13.5,0.4c3-1.8,5.2-5.9,6.5-12.4c1.8-8.3,9.9-13.6,18.2-11.8c4.8,1,8.8,4.3,10.8,8.8l0.3,0.6
		c4.4,8.2,8.3,12.4,12.5,13.2c2.8,0.5,5.6-0.7,8.5-3.4c0.6-0.6,1.2-1,1.7-1.3c8.9-7.3,12.1-8.9,12.9-9.2v0c3.6-1.5,7.2-1.9,10.7-1.1
		c4.9,1,9.1,4.1,11.6,8.6l0.1,0.1c3.4,5.1,8.6,5.7,14.5,6.3c2.2,0.2,4.4,0.5,6.7,1c3.4,0.7,6.4,2.8,8.3,5.7l0,0
		c0.4,0.8,1.9,2.9,6.9,2.6c5.2-0.5,10.1,2.7,11.6,7.7c1.5,4.9-0.6,10.1-5,12.6l-0.1,0c-0.3,0.2-0.7,0.3-1,0.5l-0.2,0.1
		c-1.8,0.9-4.8,3.1-5.8,7.7c-1.1,5.1-5.7,8.7-10.9,8.6l-0.8,0.1c-3.6,0.2-6.7,0.4-7.3,1.9c-0.3,0.8,0.2,1.8,1.5,3.2l0,0
		c3,2.8,4.2,6.6,3.4,10.4c-1.2,5.9-7,9.6-12.9,8.4l-21.8-4.6l-10.7-2.3c-6.8-1.4-10.7,1.4-11.3,4.6c-0.7,3.2,1.7,7.3,8.5,8.8
		c4.6,1,8.5,3.7,11.1,7.6c2.6,3.9,3.4,8.6,2.5,13.2c-2,9.5-11.3,15.5-20.8,13.5c-0.9-0.2-1.9-0.5-3.1-1l-0.2-0.1
		c-2.3-1-4.3-2.1-6.3-3.2c-4.3-2.3-8-4.4-10.3-3.3c-1,0.5-1.7,1.5-2,3.1c-2,9.5-11.3,15.5-20.8,13.5c-2.6-0.6-5.1-1.8-7.3-3.6
		l-0.1-0.1c-12-9.3-24.6-13.3-33.1-10.2c-4.6,1.7-7.6,5.2-8.7,10.4c-1.8,8.3-9.9,13.6-18.2,11.8
		C1528.8,551.2,1514.9,556.8,1503.1,570.6z M1536,639.8c0-35.9,29.1-65,65-65h54.7c32.4,0,59.1-23.7,64.1-54.7
		c0.5,3.3,0.9,6.8,0.9,10.3c0,35.9-29.1,65-65,65H1601c-32.4,0-59.1,23.7-64.1,54.7C1536.4,646.7,1536,643.3,1536,639.8z M1710,859
		c-64.5,21.4-134.2-13.5-155.6-78c-15.7-47.4-1-97.5,33.4-129.3c-16.9,32.8-21.1,72.1-8.5,109.8c19.4,58.4,72.9,95.8,131,97.4
		C1710.2,858.9,1710.1,859,1710,859z M1839.1,717.3c-2.1,4.2-6.8,6.3-11.3,5.1l-0.1,0c-0.3-0.1-0.6-0.2-0.8-0.3l-0.2-0.1
		c-1.7-0.5-5.2-1-8.8,1.4c-4,2.7-9.3,2.2-12.6-1.2l-0.6-0.5c-2.5-2.1-4.7-4-6-3.4c-0.7,0.3-1,1.3-1.1,3l0,0c0.2,3.8-1.5,7-4.3,9
		c-2.2,1.5-4.8,2-7.5,1.5c-2.6-0.5-4.9-2-6.4-4.2l-12.9-19l-4.2-6.1c-2.3-3.4-5.2-5.2-8-5c-1.8,0.1-3.3,1.2-4.1,2.8
		c-1.2,2.5-0.6,5.9,1.7,9.2c2.4,3.5,3.3,7.8,2.5,12c-0.8,4.2-3.2,7.8-6.7,10.3c-7.3,5-17.3,3.1-22.3-4.2c-0.5-0.7-0.9-1.6-1.4-2.6
		l0-0.1c-0.9-2.1-1.6-4.2-2.2-6.1c-1.3-4.3-2.5-7.9-4.7-8.7c-1-0.3-2-0.1-3.3,0.8c-7.3,5-17.3,3.1-22.3-4.2c-1.4-2-2.3-4.4-2.6-7
		l0-0.1c-2-13.7-7.8-24.3-15.4-27.7c-4.1-1.8-8.4-1.4-12.4,1.4c-6.4,4.3-15.1,2.7-19.5-3.7c-7.6-11.1-20.3-16.1-36.7-14.5
		c42.6-13.9,88.9-13.1,130.7,2.3l0.1-0.3c-43.5-19.4-92.5-22.4-138.3-8.6c18.5-12.6,37-25.1,55.4-37.7c2.6-1.8,5.8-2.5,9-1.9
		c3.1,0.6,5.9,2.4,7.7,5c0.5,0.7,0.9,1.4,1.3,2.1c2.5,4.1,4.8,8.1,13.2,3.9c10-5.9,34.5-19.6,45.7-21h0c0.4-0.1,0.5-0.1,0.6-0.1
		c5.5-0.8,10.7,1.5,13.8,5.9c0.9,1.3,1.7,2.7,2.5,4c2.4,4.1,4.7,8,8.6,8.8c3.2,0.7,7.2-0.6,12.2-4.1c6.4-4.3,15.1-2.7,19.5,3.7
		c2.5,3.7,3.1,8.4,1.6,12.6l-0.2,0.6c-2.3,8.2-2.4,13.5-0.1,16.6c1.5,2.1,4.1,3.1,7.7,3.1c0.8,0,1.4,0.1,1.9,0.2
		c10.6,0.8,13.6,1.8,14.3,2.1l0,0c3.3,1.3,5.9,3.3,7.8,6c2.5,3.8,3.4,8.5,2.2,13l0,0.1c-0.9,5.5,2.1,9.2,5.6,13.4
		c1.3,1.5,2.6,3.1,3.8,4.9c1.8,2.6,2.5,5.8,1.9,9c0,0,0,0,0,0c-0.2,0.8-0.6,3.1,2.9,6.1C1840.1,707.9,1841.2,713.1,1839.1,717.3z
		 M1903.2,545.6c-2,1.9-1.6,3.3-1.5,3.6l0,0.2c0.5,1.8,0.2,3.6-0.7,5.2c-0.6,1.1-1.3,2-2,3c-1.8,2.6-3.4,4.8-2.7,8l0,0.1
		c0.8,2.5,0.6,5.3-0.7,7.5c-0.9,1.6-2.3,2.9-4.4,3.9l0,0c-0.6,0.3-2.6,0.9-7.9,1.7c-0.3,0.1-0.6,0.1-1.1,0.2
		c-2.1,0.2-3.6,0.9-4.4,2.2c-1.2,1.9-1,4.9,0.6,9.4l0.3,0.6c1.1,2.4,0.9,5.1-0.3,7.3c-1.1,1.9-2.8,3.2-4.9,3.8
		c-2.1,0.6-4.2,0.3-6.1-0.8c-3.1-1.8-5.5-2.4-7.3-1.8c-2.3,0.7-3.4,3-4.7,5.5c-0.4,0.8-0.8,1.6-1.3,2.4c-1.5,2.7-4.4,4.2-7.8,4
		c-0.1,0-0.1,0-0.2,0c-6.5-0.3-21.2-7.2-27.2-10.2c-5.1-2-6.3,0.3-7.5,2.9c-0.2,0.4-0.4,0.9-0.7,1.3c-0.9,1.6-2.4,2.7-4.2,3.2
		c-1.8,0.5-3.6,0.2-5.2-0.7c-11.1-6.4-22.1-12.8-33.2-19.1c26.9,5.8,54.9,1.9,79-11.1l-0.2-0.3c-23.2,10.6-49.6,13.2-74.5,7.2
		c9.3,0,16.1-3.4,20-10c1.1-1.9,2.8-3.2,4.9-3.8c2.1-0.6,4.2-0.3,6.1,0.8c2.4,1.4,4.9,1.5,7.2,0.2c4.2-2.3,7.2-8.7,7.7-16.7l0-0.1
		c0.1-1.5,0.5-2.9,1.2-4.1c1.2-2.1,3.2-3.7,5.6-4.3c2.4-0.6,4.8-0.3,7,0.9c0.8,0.4,1.4,0.5,2,0.3c1.3-0.6,1.8-2.8,2.4-5.3
		c0.3-1.2,0.6-2.3,0.9-3.4l0.1-0.3c0.2-0.6,0.5-1.1,0.7-1.6c1.2-2.1,3.2-3.7,5.6-4.3c2.4-0.6,4.8-0.3,7,0.9
		c4.4,2.5,5.9,8.2,3.4,12.6c-1.9,3.3-1.1,5.7,0.5,6.6c1.5,0.9,4,0.4,5.9-2.9l8.3-14.5l0.5-0.8c0.8-1.3,2-2.3,3.4-2.7
		c1.5-0.4,3-0.2,4.3,0.6c1.7,1,2.8,2.8,2.9,5.1l0,0c0.1,1,0.3,1.5,0.8,1.7c0.8,0.3,2-0.9,3.4-2.2l0.3-0.3c1.8-2.1,4.8-2.6,7.1-1.2
		c2.2,1.3,4.2,0.8,5.3,0.4c0.1-0.1,0.3-0.1,0.5-0.2l0.1,0c2.5-0.8,5.3,0.2,6.6,2.4C1905.7,540.7,1905.3,543.7,1903.2,545.6z"/>
</g>
<g id="SEMI">
	<path d="M0,2.7v1080h1920V2.7H0z M1845.5,372.2c1,5,1.9,9.4,6.5,12l0.1,0c3.9,1.8,6.9,5.2,8.1,9.3c0.9,2.9,0.9,6.1-0.2,9.3h0
		c-0.2,0.7-1.2,3.5-6.8,11.7c-0.2,0.5-0.6,0.9-1,1.5c-2.1,2.7-2.8,5.2-2.2,7.5c0.9,3.5,4.8,6.6,12.1,9.7l0.6,0.2
		c4,1.4,7,4.5,8.3,8.6c2.1,6.9-1.8,14.3-8.7,16.4c-5.5,1.7-8.8,3.8-10.1,6.5c-1.7,3.4-0.2,7.4,1.4,11.6c0.5,1.4,1,2.8,1.5,4.2
		c1.5,4.9,0.1,10-3.9,13.7c-0.1,0.1-0.1,0.1-0.2,0.2c-7.6,7.4-31.9,17.2-42.1,21.1c-7.9,3.7-6.4,7.7-4.9,12c0.3,0.7,0.5,1.5,0.8,2.2
		c1.8,5.9-1.5,12.2-7.4,14c-19.9,6.1-39.9,12.3-59.8,18.4c36.8-25.4,63.3-63.1,74.6-106.3l-0.3-0.1c-13.2,39.7-39.7,74.1-74.7,97
		c10.8-11.1,14.5-23.3,10.8-35.4c-2.1-6.9,1.8-14.3,8.7-16.4c4.3-1.3,7.1-4.2,8.2-8.2c2-7.5-2.3-18.1-11.2-27.6l-0.1-0.1
		c-1.7-1.8-2.9-3.8-3.6-6c-2.4-7.9,2-16.4,9.9-18.8c1.3-0.4,2.1-1,2.5-2c0.8-2.1-1.2-5.1-3.6-8.6c-1.1-1.6-2.2-3.3-3.2-5.1l-0.1-0.2
		c-0.5-1-0.8-1.8-1.1-2.6c-2.4-7.9,2-16.4,9.9-18.8c3.8-1.2,7.8-0.8,11.4,1.1c3.5,1.9,6.1,5,7.3,8.9c1.7,5.7,5.4,7.5,8.1,6.6
		c2.7-0.8,4.8-4.3,3.1-10.1l-5.7-18.7l-2.6-8.6c-1.5-4.9,1.3-10.2,6.2-11.7c3.1-1,6.4-0.2,9.1,2.1l0,0c1.2,1,2.2,1.3,2.8,1
		c1.2-0.6,1.2-3.3,1.1-6.4l0-0.7c-0.5-4.5,2.2-8.6,6.5-10c3.9-1.2,5.5-4,6.2-5.6l0.1-0.2c0.1-0.3,0.2-0.5,0.3-0.8l0-0.1
		c1.8-4,6.1-6.1,10.3-5.2c4.3,0.9,7.4,4.8,7.4,9.3c0.1,4.3,2,5.4,2.7,5.7l0,0c2.6,1.4,4.6,3.8,5.5,6.7
		C1844.8,368.5,1845.2,370.4,1845.5,372.2z M1741.5,331.5c1.1-1.5,2.7-2.5,4.5-2.8c0.5-0.1,1-0.1,1.4-0.2c2.8-0.3,5.5-0.6,5.4-6
		c-0.6-6.7-1.8-22.8,0.2-29.1c0-0.1,0-0.1,0.1-0.2c1-3.2,3.4-5.3,6.5-5.8c0.9-0.1,1.8-0.2,2.7-0.3c2.8-0.3,5.4-0.5,6.8-2.4
		c1.2-1.5,1.4-3.9,0.9-7.4c-0.3-2.1,0.2-4.2,1.4-6c1.3-1.7,3.1-2.9,5.2-3.2c2.5-0.4,5.1,0.4,6.9,2.3l0.5,0.5
		c3.6,3.1,6.4,4.4,8.6,3.9c1.5-0.3,2.7-1.4,3.6-3.3c0.2-0.4,0.4-0.7,0.6-1c2.8-4.9,4-6.4,4.5-6.8l0,0c1.6-1.5,3.3-2.4,5.1-2.7
		c2.6-0.4,5.2,0.3,7.3,2l0.1,0.1c2.7,1.8,5.4,1.1,8.4,0.3c1.1-0.3,2.3-0.6,3.5-0.8c1.8-0.3,3.6,0.1,5.1,1.2c0.4,0.3,1.6,1.1,4,0
		c2.4-1.2,5.4-0.6,7.1,1.6c1.6,2.1,1.6,5-0.1,7.1l-0.1,0.1l-0.4,0.4c-0.7,0.8-1.8,2.5-1.4,5c0.4,2.7-1.1,5.3-3.7,6.2l-0.4,0.2
		c-1.8,0.8-3.3,1.5-3.3,2.4c0,0.5,0.4,0.9,1.3,1.3c0,0,0,0,0,0c2.1,0.9,3.4,2.5,3.7,4.5c0.2,1.5-0.1,3-1,4.2c-0.9,1.2-2.2,2-3.7,2.3
		l-8.1,1.3l-9.3,1.5c-3.7,0.6-5.1,2.7-4.8,4.5c0.3,1.8,2.3,3.4,6,2.8c5-0.8,9.8,2.6,10.6,7.6c0.4,2.4-0.2,4.8-1.6,6.8
		c-1.4,2-3.6,3.3-6,3.7c-0.5,0.1-1,0.1-1.7,0.1c-0.1,0-0.2,0-0.3,0c-1.1,0-2.4-0.2-3.5-0.4c-2.6-0.3-4.8-0.6-5.8,0.4
		c-0.4,0.4-0.6,1.1-0.4,2c0.4,2.4-0.2,4.8-1.6,6.8c-1.4,2-3.6,3.3-6,3.7c-1.4,0.2-2.8,0.1-4.3-0.4l-0.1,0
		c-7.7-2.3-14.7-1.9-18.4,1.3c-2,1.7-2.8,4.1-2.3,6.9c0.3,2.1-0.2,4.2-1.4,6c-1.3,1.7-3.1,2.9-5.2,3.2c-7.6,1.2-13.2,6.4-16.5,15.1
		c3.3-25.4,15-49.2,33.2-67.1l-0.2-0.3c-20.7,17.9-34.4,42.7-38.4,69.8c-2-12.6-4.1-25.2-6.1-37.8
		C1740,334.8,1740.4,333,1741.5,331.5z M1589.6,295.1c4.1-2.3,9.3-2,13.2,0.7c1.9,1.4,4.3,1.6,6.4,0.7c2.7-1.2,7.4-5.4,8.8-19.8
		c0.2-5.7,3.3-10.8,8.2-13.6c5.7-3.2,12.7-2.7,17.8,1.4c3.3,2.8,6.5,3.8,9.7,3.3c4.1-0.8,8.1-4.4,11.5-10.5c1.2-2.8,3.2-5,5.8-6.4
		c6.5-3.7,14.9-1.3,18.5,5.2c1.6,2.9,2.1,6.4,1.4,9.7c-0.3,2,0,3.2,0.8,3.8c1.6,1.1,4.9,0,11.9-4c1.2-0.7,2.2-1,3.1-1.2
		c2.9-0.6,6.1,0,8.6,1.7l0.3,0.2c2.2,1.3,5.4,0.8,5.7,0.7c5.7-1.5,11.7,1.1,14.6,6.2c2.9,5.1,1.9,11.6-2.3,15.7
		c-0.3,0.3-2.4,2.7-2.4,5.2c0,0,0,0,0,0l0,0.4c0.1,3-1,6-3,8.2c-0.6,0.7-1.4,1.4-2.6,2c-7,3.9-9.7,6.2-9.6,8.1c0,1,1,1.9,2.8,2.7
		c3.2,1.1,5.9,3.3,7.6,6.2c3.7,6.5,1.3,14.9-5.2,18.5c-2.6,1.5-5.5,2-8.5,1.6c-7-0.3-12.2,1.2-14.9,4.4c-2.2,2.4-2.9,5.8-2.3,10
		c0.8,6.5-2.4,12.7-8.1,15.9c-5,2.8-10.9,2.8-15.9-0.1c-13-6.4-19.1-4.5-21.5-2.8c-1.9,1.3-2.9,3.4-2.8,5.7
		c0.3,4.9-2.1,9.5-6.3,11.8c-3.5,2-7.8,2.1-11.5,0.3l-0.2-0.1c-2-1-3.7-1.9-5.3-2.7c-4.3-2.2-6.6-3.5-8.8-3l-3,1.9
		c-0.9,0.9-1.8,2.1-2.9,3.7c-0.8,1.6-2,2.9-3.5,3.7c-2,1.1-4.3,1.4-6.5,0.8l-0.1,0c-0.7-0.2-1.2-0.4-1.7-0.7
		c-5.7-2.4-18-8.2-27.5-12.7c13-11.6,26.3-22.3,39.6-31.7c25.1-17.8,52.1-33,80.2-45.3l-0.1-0.3c-41.1,14-79.9,33.9-115.3,59
		c-4.6,3.3-9.4,6.9-15.6,11.6c0.6-6.1,3.3-31.9,4.6-41.2c0-0.6,0.1-1.1,0.3-1.7l0-0.2c0.6-2.3,2.1-4.1,4.1-5.2
		c1.5-0.9,3.3-1.2,5-1.1c2-0.1,3.5-0.2,4.6-0.5l3.2-1.6c1.6-1.7,1.8-4.3,2.1-9.1c0.1-1.7,0.3-3.6,0.5-5.9
		C1583.8,300.6,1586.1,297,1589.6,295.1z M1481.9,204.1c4.5-5.3,12.5-5.8,17.8-1.3c2.5,2.1,5,2.9,7.1,2.2c1.4-0.5,2.3-1.6,2.6-3
		c0.4-2.2-0.8-4.6-3.2-6.7l-8-6.9l-10.1-8.7c-1.6-1.4-2.5-3.3-2.7-5.3c-0.2-2.1,0.5-4.1,1.9-5.7c1.8-2.1,4.5-3,7.5-2.6v0
		c1.3,0.1,2.1-0.1,2.4-0.6c0.6-1-0.6-2.9-2.1-5.1l-0.3-0.5c-2.3-2.9-2.3-7.1,0.2-10c2.2-2.6,2.2-5.3,1.9-6.8l0-0.2
		c-0.1-0.2-0.1-0.4-0.2-0.7l0-0.1c-0.5-3.6,1.6-7.1,5-8.3c3.5-1.3,7.5,0.1,9.4,3.3c2,3,3.9,3,4.5,2.9h0c2.5-0.2,5,0.6,6.9,2.3
		c1.3,1.1,2.4,2.3,3.5,3.4c3,3.1,5.6,5.8,10,5.6l0.1,0c3.6-0.5,7.2,0.6,9.9,2.9c2,1.7,3.3,3.9,4,6.7c0,0,0,0,0,0
		c0.2,0.7,0.6,3.2,0.3,11.3c0,0.4,0,0.9,0,1.5c-0.3,2.8,0.3,5,1.8,6.4c2.2,2.1,6.4,2.5,12.9,1.5l0.6-0.1c3.5-0.8,7,0,9.7,2.3
		c2.2,1.9,3.6,4.6,3.8,7.5c0.2,2.9-0.7,5.8-2.6,8c-3.2,3.7-4.6,6.7-4.3,9.2c0.3,3.2,3.2,5.3,6.2,7.6c1,0.7,2,1.5,2.9,2.3
		c3.2,2.8,4.5,7.1,3.4,11.5c0,0.1,0,0.1-0.1,0.3c-2.1,8.6-15.1,26.6-20.6,33.9c-4,6.2-1.1,8.4,1.9,10.7c0.5,0.4,1,0.8,1.5,1.2
		c1.9,1.6,3.1,3.9,3.2,6.4c0.2,2.5-0.6,4.9-2.3,6.8c-11.5,13.3-22.9,26.6-34.4,39.8c14.8-34.6,16.8-73.2,5.6-108.9l-0.3,0.1
		c8.3,34,4.9,70.2-9.8,102.2c2.6-12.6-0.2-22.9-8.2-29.8c-2.2-1.9-3.6-4.6-3.8-7.5c-0.2-2.9,0.7-5.8,2.6-8c2.5-2.9,3.2-6.2,2.2-9.6
		c-2-6.2-9.8-11.8-20.3-14.6l-0.1,0c-2-0.5-3.8-1.4-5.2-2.6c-2.5-2.2-4.1-5.3-4.3-8.6c-0.2-3.4,0.8-6.6,3-9.2
		c0.8-0.9,1.1-1.7,0.9-2.5c-0.4-1.8-3.2-3.1-6.4-4.5c-1.5-0.7-3-1.3-4.4-2.1c-0.1,0-0.2-0.1-0.3-0.2c-0.8-0.5-1.4-0.9-1.9-1.3
		c-2.5-2.2-4.1-5.3-4.3-8.6C1478.6,209.9,1479.7,206.6,1481.9,204.1z M1126.5,441.7c-0.3-2,0.4-3.9,2.1-5.4l0,0
		c0.7-0.7,0.9-1.2,0.8-1.6c-0.3-0.8-1.9-1-3.9-1.2l-0.4,0c-2.7,0-5-2-5.5-4.7c-0.4-2.5-2-3.7-3-4.3c-0.1-0.1-0.3-0.1-0.5-0.2
		l-0.1-0.1c-2.3-1.4-3.2-4.1-2.4-6.7c0.9-2.6,3.5-4.1,6.2-3.7c2.7,0.3,3.5-0.8,3.8-1.2l0,0c1.1-1.5,2.6-2.5,4.5-2.8
		c1.2-0.2,2.4-0.3,3.5-0.4c3.2-0.2,5.9-0.4,7.9-3l0.1-0.1c1.4-2.3,3.7-3.8,6.3-4.2c1.9-0.3,3.8,0,5.7,0.9v0c0.5,0.3,2.2,1.3,6.5,5
		c0.2,0.2,0.5,0.4,0.8,0.7c1.5,1.5,3,2.2,4.5,2c2.2-0.3,4.4-2.4,6.8-6.5l0.3-0.6c1.2-2.3,3.3-3.9,5.8-4.4c4.4-0.7,8.5,2.2,9.3,6.6
		c0.6,3.5,1.7,5.7,3.2,6.7c2,1.3,4.5,0.7,7.2,0.1c0.9-0.2,1.8-0.4,2.7-0.6c3.1-0.5,6.1,0.7,8,3.5c0,0,0.1,0.1,0.1,0.2
		c3.9,5.2,8,20.9,9.6,27.4c1.7,5.2,4.3,4.6,7,4c0.5-0.1,0.9-0.2,1.4-0.3c3.7-0.6,7.3,1.9,7.9,5.6c2.1,12.6,4.3,25.1,6.4,37.7
		c-12.6-24.4-33.5-43.4-58.9-53.7l-0.1,0.3c23,11.1,41.8,29.8,53.1,52.8c-5.9-7.2-12.9-10.3-20.5-9c-4.4,0.7-8.5-2.2-9.3-6.6
		c-0.5-2.8-2-4.8-4.4-5.7c-4.5-1.8-11.2,0-17.8,4.7l-0.1,0.1c-1.2,0.9-2.5,1.5-3.9,1.7c-5,0.8-9.8-2.5-10.6-7.5
		c-0.1-0.9-0.5-1.4-1-1.7c-1.2-0.6-3.3,0.4-5.6,1.5c-1.1,0.5-2.2,1.1-3.4,1.5l-0.1,0c-0.6,0.2-1.2,0.4-1.6,0.5
		c-5,0.8-9.8-2.5-10.6-7.5c-0.4-2.4,0.1-4.8,1.6-6.8c1.4-2,3.5-3.3,6-3.8c2.4-0.4,4-1.5,4.6-3c0.4-1,0.2-2.1-0.5-2.9
		c-1-1.3-3-1.8-5.4-1.4l-11.9,2l-5.4,0.9C1129.9,446.9,1127,444.8,1126.5,441.7z M1329.7,685.4c-3.4,1.6-7.2,1.8-10.7,0.6
		c-3.5-1.3-6.4-3.8-8-7.2c-0.4-0.9-0.8-1.8-1.2-2.7c-2.1-5.2-4.1-10.1-14.5-6.9c-12.6,5-43.3,16.5-56.5,16.2h-0.1
		c-0.4,0-0.5,0-0.6,0c-6.5-0.1-12.2-3.6-14.9-9.3c-0.8-1.7-1.5-3.4-2.2-5.1c-2.1-5.2-4-10-8.4-11.7c-3.5-1.4-8.3-0.5-14.8,2.5
		c-3.9,1.9-8.4,2.1-12.5,0.7c-4.1-1.5-7.4-4.4-9.3-8.4c-2.2-4.7-2.1-10.3,0.4-14.9l0.3-0.6c4.2-9.1,5.2-15.2,3.1-19.2
		c-1.4-2.6-4.2-4.3-8.3-5c-0.9-0.1-1.6-0.3-2.2-0.5c-12-2.8-15.4-4.5-16.1-5l0,0c-3.6-2-6.2-4.9-7.9-8.3c-2.3-4.8-2.4-10.4-0.3-15.4
		l0-0.1c2.1-6.2-0.8-10.9-4-16.4c-1.2-2-2.4-4-3.5-6.3c-1.6-3.4-1.8-7.2-0.5-10.7l0,0c0.4-0.8,1.2-3.5-2.3-7.5
		c-3.8-4-4.3-10.3-1-14.8c3.2-4.4,8.9-6,14-3.9l0.1,0c0.3,0.1,0.7,0.3,1,0.5l0.2,0.1c1.9,0.9,5.8,2.1,10.3-0.1
		c5-2.4,11.1-0.9,14.4,3.6l0.6,0.7c2.5,2.9,4.7,5.4,6.3,4.9c0.9-0.2,1.4-1.3,1.8-3.3l0,0c0.5-4.3,2.9-7.8,6.6-9.6
		c2.8-1.3,6-1.5,8.9-0.5c2.9,1,5.3,3.2,6.6,6l0.7,1.5l14.6,30.5c2,4.3,5.1,6.9,8.3,7.2c2.1,0.2,4-0.7,5.2-2.5
		c1.8-2.7,1.7-6.7-0.3-10.9c-4.4-9.3-0.5-20.5,8.8-25c4.5-2.2,9.6-2.4,14.3-0.8c4.7,1.7,8.5,5.1,10.7,9.6c0.4,0.9,0.8,2,1.2,3.3
		l0,0.2c0.7,2.6,1,5,1.4,7.4c0.8,4.9,1.5,9.6,3.9,10.9c1,0.5,2.3,0.5,3.9-0.3c4.5-2.2,9.6-2.4,14.3-0.8c4.7,1.7,8.5,5.1,10.7,9.6
		c1.2,2.6,1.8,5.5,1.7,8.5v0.1c-0.1,16.2,4.7,29.5,12.8,34.7c4.4,2.8,9.4,3,14.5,0.6c3.9-1.9,8.4-2.1,12.5-0.7
		c4.1,1.5,7.4,4.4,9.3,8.4c6.8,14.3,20.6,22.3,40,23.3c-51.7,8.6-105.1-0.5-150.6-25.8l-0.2,0.3c46.8,30.1,102.9,42.3,158.2,34.4
		C1376.9,662.9,1353.3,674.2,1329.7,685.4z M1422.1,491.2L1422.1,491.2c-0.2,0.9-0.4,1.6-0.6,2.3c-2.3,7.7-7.8,24.1-12.1,36.6
		c-16.5-14.7-31.9-30-45.8-45.5c-26-29.1-49.1-61-68.7-94.7l-0.3,0.2c23.6,49.9,54.2,96,91,137c4.8,5.4,10.1,11,17,18.1
		c-5.7,0.1-40.4,0.4-52.7,0.1c-0.7,0-1.5,0-2.2-0.1c-0.1,0-0.1,0-0.2,0c-2.9-0.5-5.5-2.1-7.2-4.4c-1.3-1.8-2-4-2.1-6.2
		c-0.4-2.5-0.8-4.3-1.3-5.8l-2.4-3.8c-2.3-1.7-5.7-1.6-11.8-1.3c-2.2,0.1-4.7,0.2-7.5,0.3c-5.4,0.1-10.3-2.4-13.3-6.5
		c-3.5-4.9-3.9-11.5-1-16.8l0.1-0.3c1.3-2.6,1.2-5.4-0.2-7.9c-1.9-3.2-7.9-8.6-26.3-8.2c-7.3,0.6-14.1-2.6-18.4-8.4
		c-4.9-6.7-5.2-15.7-0.8-22.8c3-4.5,3.9-8.8,2.7-12.7c-1.5-5.1-6.7-9.6-14.8-13c-3.7-1.1-6.8-3.3-9-6.4c-2.7-3.8-3.8-8.3-3.1-12.9
		c0.7-4.6,3.2-8.6,7-11.3c3.5-2.5,7.8-3.6,12.1-3.1c2.5,0.1,4-0.4,4.6-1.6c1.1-2.1-0.8-6.2-6.8-14.4c-1-1.4-1.6-2.6-1.9-3.7
		c-1.2-3.6-0.9-7.7,0.9-11.1l0.2-0.4c1.4-3,0.2-6.9,0.1-7.3c-2.7-7-0.3-15,5.8-19.4c6.1-4.4,14.4-4.1,20.2,0.7
		c0.6,0.5,3.8,2.6,7,2.3c4.2-0.7,8.1,0.3,11.1,2.6c1,0.6,2,1.6,3,3c6,8.3,9.2,11.4,11.6,11c1.3-0.2,2.2-1.5,3-3.9
		c0.9-4.2,3.3-8,6.8-10.5c7.8-5.6,18.6-3.8,24.2,3.9c2.2,3.1,3.3,6.7,3.3,10.5c0.7,8.9,3.3,15.1,7.6,18.2c3.4,2.4,7.7,2.9,12.9,1.4
		c8.1-1.9,16.5,1.2,21.3,8c4.2,5.9,5.1,13.4,2.2,20.1c-6.1,17.4-2.9,24.7-0.5,27.5c2,2.3,4.8,3.2,7.7,2.7c6-1.1,12.1,1.4,15.6,6.3
		c3,4.2,3.8,9.6,2.1,14.5l-0.1,0.2c-0.9,2.7-1.8,5-2.6,7.1c-2.2,5.7-3.4,8.9-2.5,11.5l2.8,3.5c1.2,0.9,2.8,1.9,5.1,3.1
		c2.1,0.8,3.9,2.1,5.2,3.9C1421.9,485.4,1422.6,488.3,1422.1,491.2z M1461.8,388.9c-4.2-0.5-7.9-2.6-10.5-5.9
		c-2.6-3.3-3.7-7.4-3.2-11.5c0.6-5.3-1.1-9.8-5-12.9c-7.2-5.8-20.8-6.1-35.4-1l-0.1,0c-2.8,1-5.5,1.4-8.3,1
		c-9.8-1.2-16.8-10.1-15.7-19.9c0.2-1.7-0.1-2.8-0.9-3.6c-1.9-1.8-6.1-1.1-11-0.2c-2.3,0.4-4.6,0.8-7.2,1l-0.2,0
		c-1.3,0.1-2.4,0-3.3-0.1c-4.8-0.6-9-3-12-6.7c-3-3.8-4.3-8.5-3.7-13.2c1.2-9.8,10.1-16.8,19.9-15.6c7.1,0.8,10.7-2.3,11.1-5.7
		c0.4-3.3-2.4-7.3-9.5-8.1l-1.5-0.2l-32.2-3.9c-6.1-0.7-10.5-6.3-9.7-12.4c0.5-3.9,2.9-7.1,6.7-8.9l0,0c1.7-0.9,2.5-1.7,2.5-2.6
		c-0.1-1.6-3-2.8-6.4-4.2l-0.8-0.3c-5.1-1.6-8.3-6.6-7.7-11.9c0.6-4.8-1.7-7.9-3.1-9.4l-0.2-0.2c-0.3-0.2-0.5-0.5-0.8-0.7l-0.1-0.1
		c-3.5-3.9-3.8-9.6-0.7-13.8c3.1-4.3,8.9-5.8,13.7-3.6c4.7,2,6.9,0.4,7.5-0.2l0,0c2.8-2.2,6.3-3.2,9.9-2.8c2.4,0.3,4.6,0.8,6.8,1.2
		c6,1.3,11.2,2.4,16.1-1.4l0.1-0.1c3.9-3.4,9-5.1,14-4.5c3.6,0.4,7,2,10,4.6l0,0c0.7,0.6,3.3,3.2,9.4,13.1c0.4,0.5,0.7,1.1,1.2,1.8
		c1.9,3.5,4.2,5.6,7.1,6c4.3,0.7,9.5-2.1,16.5-8.6l0.4-0.5c3.4-3.7,8.4-5.5,13.3-4.9c4.2,0.5,7.9,2.6,10.5,5.9
		c2.6,3.3,3.7,7.4,3.2,11.5c-0.8,6.8-0.1,11.4,2.2,14.2c2.9,3.4,7.9,3.7,13.2,4c1.7,0.1,3.5,0.2,5.3,0.4c6,0.7,11,4.8,13,10.6
		c0,0.1,0.1,0.2,0.2,0.6v0c4.4,11.9,3.3,43.2,2.6,56.1c0.2,10.4,5.3,10.7,10.7,11c0.9,0.1,1.9,0.1,2.8,0.2c3.5,0.4,6.7,2.2,8.9,5
		c2.2,2.8,3.2,6.3,2.8,9.9c-3,24.8-6,49.6-9,74.4c-9.8-52.5-38-99.6-79.6-132.8l-0.2,0.3c36.8,33.5,61.5,79.1,69.5,128.5
		C1488.3,400.7,1476.8,390.7,1461.8,388.9z M1570.1,532c-4.6,1.7-7.6,5.2-8.7,10.4c-1.8,8.3-9.9,13.6-18.2,11.8
		c-14.4-3.1-28.3,2.6-40.1,16.4c23-43.2,60.3-77.7,105-97.1l-0.1-0.3c-49,17.6-90.1,52.4-115.7,97.9c5.1-23.9,10.1-47.9,15.2-71.8
		c1.5-7.1,8.5-11.6,15.6-10.1c0.9,0.2,1.8,0.4,2.7,0.7c5.1,1.4,9.9,2.7,13.4-6.9c3.5-12.2,12.4-41.6,20.2-51.2l0,0
		c0.3-0.4,0.3-0.5,0.4-0.5c3.7-4.8,9.6-6.9,15.4-5.7c1.7,0.4,3.4,0.8,5,1.3c5,1.4,9.7,2.7,13.5,0.4c3-1.8,5.2-5.9,6.5-12.4
		c1.8-8.3,9.9-13.6,18.2-11.8c4.8,1,8.8,4.3,10.8,8.8l0.3,0.6c4.4,8.2,8.3,12.4,12.5,13.2c2.8,0.5,5.6-0.7,8.5-3.4
		c0.6-0.6,1.2-1,1.7-1.3c8.9-7.3,12.1-8.9,12.9-9.2v0c3.6-1.5,7.2-1.9,10.7-1.1c4.9,1,9.1,4.1,11.6,8.6l0.1,0.1
		c3.4,5.1,8.6,5.7,14.5,6.3c2.2,0.2,4.4,0.5,6.7,1c3.4,0.7,6.4,2.8,8.3,5.7l0,0c0.4,0.8,1.9,2.9,6.9,2.6c5.2-0.5,10.1,2.7,11.6,7.7
		c1.5,4.9-0.6,10.1-5,12.6l-0.1,0c-0.3,0.2-0.7,0.3-1,0.5l-0.2,0.1c-1.8,0.9-4.8,3.1-5.8,7.7c-1.1,5.1-5.7,8.7-10.9,8.6l-0.8,0.1
		c-3.6,0.2-6.7,0.4-7.3,1.9c-0.3,0.8,0.2,1.8,1.5,3.2l0,0c3,2.8,4.2,6.6,3.4,10.4c-1.2,5.9-7,9.6-12.9,8.4l-21.8-4.6l-10.7-2.3
		c-6.8-1.4-10.7,1.4-11.3,4.6c-0.7,3.2,1.7,7.3,8.5,8.8c4.6,1,8.5,3.7,11.1,7.6c2.6,3.9,3.4,8.6,2.5,13.2
		c-2,9.5-11.3,15.5-20.8,13.5c-0.9-0.2-1.9-0.5-3.1-1l-0.2-0.1c-2.3-1-4.3-2.1-6.3-3.2c-4.3-2.3-8-4.4-10.3-3.3
		c-1,0.5-1.7,1.5-2,3.1c-2,9.5-11.3,15.5-20.8,13.5c-2.6-0.6-5.1-1.8-7.3-3.6l-0.1-0.1C1591.3,532.9,1578.6,529,1570.1,532z
		 M1839.1,717.3c-2.1,4.2-6.8,6.3-11.3,5.1l-0.1,0c-0.3-0.1-0.6-0.2-0.8-0.3l-0.2-0.1c-1.7-0.5-5.2-1-8.8,1.4
		c-4,2.7-9.3,2.2-12.6-1.2l-0.6-0.5c-2.5-2.1-4.7-4-6-3.4c-0.7,0.3-1,1.3-1.1,3l0,0c0.2,3.8-1.5,7-4.3,9c-2.2,1.5-4.8,2-7.5,1.5
		c-2.6-0.5-4.9-2-6.4-4.2l-12.9-19l-4.2-6.1c-2.3-3.4-5.2-5.2-8-5c-1.8,0.1-3.3,1.2-4.1,2.8c-1.2,2.5-0.6,5.9,1.7,9.2
		c2.4,3.5,3.3,7.8,2.5,12c-0.8,4.2-3.2,7.8-6.7,10.3c-7.3,5-17.3,3.1-22.3-4.2c-0.5-0.7-0.9-1.6-1.4-2.6l0-0.1
		c-0.9-2.1-1.6-4.2-2.2-6.1c-1.3-4.3-2.5-7.9-4.7-8.7c-1-0.3-2-0.1-3.3,0.8c-7.3,5-17.3,3.1-22.3-4.2c-1.4-2-2.3-4.4-2.6-7l0-0.1
		c-2-13.7-7.8-24.3-15.4-27.7c-4.1-1.8-8.4-1.4-12.4,1.4c-6.4,4.3-15.1,2.7-19.5-3.7c-7.6-11.1-20.3-16.1-36.7-14.5
		c42.6-13.9,88.9-13.1,130.7,2.3l0.1-0.3c-43.5-19.4-92.5-22.4-138.3-8.6c18.5-12.6,37-25.1,55.4-37.7c2.6-1.8,5.8-2.5,9-1.9
		c3.1,0.6,5.9,2.4,7.7,5c0.5,0.7,0.9,1.4,1.3,2.1c2.5,4.1,4.8,8.1,13.2,3.9c10-5.9,34.5-19.6,45.7-21h0c0.4-0.1,0.5-0.1,0.6-0.1
		c5.5-0.8,10.7,1.5,13.8,5.9c0.9,1.3,1.7,2.7,2.5,4c2.4,4.1,4.7,8,8.6,8.8c3.2,0.7,7.2-0.6,12.2-4.1c6.4-4.3,15.1-2.7,19.5,3.7
		c2.5,3.7,3.1,8.4,1.6,12.6l-0.2,0.6c-2.3,8.2-2.4,13.5-0.1,16.6c1.5,2.1,4.1,3.1,7.7,3.1c0.8,0,1.4,0.1,1.9,0.2
		c10.6,0.8,13.6,1.8,14.3,2.1l0,0c3.3,1.3,5.9,3.3,7.8,6c2.5,3.8,3.4,8.5,2.2,13l0,0.1c-0.9,5.5,2.1,9.2,5.6,13.4
		c1.3,1.5,2.6,3.1,3.8,4.9c1.8,2.6,2.5,5.8,1.9,9c0,0,0,0,0,0c-0.2,0.8-0.6,3.1,2.9,6.1C1840.1,707.9,1841.2,713.1,1839.1,717.3z
		 M1903.2,545.6c-2,1.9-1.6,3.3-1.5,3.6l0,0.2c0.5,1.8,0.2,3.6-0.7,5.2c-0.6,1.1-1.3,2-2,3c-1.8,2.6-3.4,4.8-2.7,8l0,0.1
		c0.8,2.5,0.6,5.3-0.7,7.5c-0.9,1.6-2.3,2.9-4.4,3.9l0,0c-0.6,0.3-2.6,0.9-7.9,1.7c-0.3,0.1-0.6,0.1-1.1,0.2
		c-2.1,0.2-3.6,0.9-4.4,2.2c-1.2,1.9-1,4.9,0.6,9.4l0.3,0.6c1.1,2.4,0.9,5.1-0.3,7.3c-1.1,1.9-2.8,3.2-4.9,3.8
		c-2.1,0.6-4.2,0.3-6.1-0.8c-3.1-1.8-5.5-2.4-7.3-1.8c-2.3,0.7-3.4,3-4.7,5.5c-0.4,0.8-0.8,1.6-1.3,2.4c-1.5,2.7-4.4,4.2-7.8,4
		c-0.1,0-0.1,0-0.2,0c-6.5-0.3-21.2-7.2-27.2-10.2c-5.1-2-6.3,0.3-7.5,2.9c-0.2,0.4-0.4,0.9-0.7,1.3c-0.9,1.6-2.4,2.7-4.2,3.2
		c-1.8,0.5-3.6,0.2-5.2-0.7c-11.1-6.4-22.1-12.8-33.2-19.1c26.9,5.8,54.9,1.9,79-11.1l-0.2-0.3c-23.2,10.6-49.6,13.2-74.5,7.2
		c9.3,0,16.1-3.4,20-10c1.1-1.9,2.8-3.2,4.9-3.8c2.1-0.6,4.2-0.3,6.1,0.8c2.4,1.4,4.9,1.5,7.2,0.2c4.2-2.3,7.2-8.7,7.7-16.7l0-0.1
		c0.1-1.5,0.5-2.9,1.2-4.1c1.2-2.1,3.2-3.7,5.6-4.3c2.4-0.6,4.8-0.3,7,0.9c0.8,0.4,1.4,0.5,2,0.3c1.3-0.6,1.8-2.8,2.4-5.3
		c0.3-1.2,0.6-2.3,0.9-3.4l0.1-0.3c0.2-0.6,0.5-1.1,0.7-1.6c1.2-2.1,3.2-3.7,5.6-4.3c2.4-0.6,4.8-0.3,7,0.9
		c4.4,2.5,5.9,8.2,3.4,12.6c-1.9,3.3-1.1,5.7,0.5,6.6c1.5,0.9,4,0.4,5.9-2.9l8.3-14.5l0.5-0.8c0.8-1.3,2-2.3,3.4-2.7
		c1.5-0.4,3-0.2,4.3,0.6c1.7,1,2.8,2.8,2.9,5.1l0,0c0.1,1,0.3,1.5,0.8,1.7c0.8,0.3,2-0.9,3.4-2.2l0.3-0.3c1.8-2.1,4.8-2.6,7.1-1.2
		c2.2,1.3,4.2,0.8,5.3,0.4c0.1-0.1,0.3-0.1,0.5-0.2l0.1,0c2.5-0.8,5.3,0.2,6.6,2.4C1905.7,540.7,1905.3,543.7,1903.2,545.6z"/>
	<path class="st2" d="M1398.7,881.1c63.1-12,104.5-72.8,92.5-135.9c-7.8-41-36.3-72.9-72.6-86.8c22.7,16.8,39.3,41.8,45,71.7
		c12,63.1-29.4,123.9-92.5,135.9c-22,4.2-43.8,1.8-63.3-5.7C1333,878.9,1365.5,887.4,1398.7,881.1z"/>
	<path class="st2" d="M1496.7,443.8c0,0-7.3,3.4-14.2,7.9c-30.8,20.4-49.9,56.5-49.9,96.3c0,20.5,7,38.9,14.4,56.6
		c13.8,32.9,80.5,127.1,80.5,194.9l0.7-73.8c0-61.1-47.4-117.2-59.9-146.9c-6.7-15.9-13-32.5-13-51
		C1455.4,493.6,1471.5,463.2,1496.7,443.8z"/>
	<path class="st2" d="M1601,595.4h54.7c35.9,0,65-29.1,65-65c0-3.5-0.4-6.9-0.9-10.3c-4.9,31-31.7,54.7-64.1,54.7H1601
		c-35.9,0-65,29.1-65,65c0,3.5,0.4,6.9,0.9,10.3C1541.8,619.1,1568.6,595.4,1601,595.4z"/>
	<path class="st2" d="M1579.3,761.5c-12.5-37.8-8.3-77,8.5-109.8c-34.4,31.8-49.1,81.9-33.4,129.3c21.4,64.5,91.1,99.4,155.6,78
		c0.1,0,0.2-0.1,0.3-0.1C1652.2,857.3,1598.6,819.9,1579.3,761.5z"/>
	<path class="st2" d="M786.8,539c30.5,37.2,65.4,70.7,104.1,99.4c-26.8-36-51.1-63-69.4-103.6c49.3-37.3,93-81.6,129.6-131.4h0.1
		c4.3-5.7,11.2-9.4,18.9-9.4c7.7,0,14.5,3.7,18.9,9.4h0.1c12.6,17.1,26,33.5,40.2,49.3c46.4,51.8,122.8,43.3,122.8,43.3
		s-45.5-5.1-86.4-53.5c-17-19.7-32.8-40.4-47.4-62.2l0,0l0,0c-10.7-15-28.2-24.9-48.1-24.9c-20.2,0-38,10.2-48.6,25.7l0,0l0,0
		c-38.5,57.4-86.1,108.1-140.7,150.2c2.1,2.5,4.2,5,6.3,7.5L786.8,539z"/>
	<path class="st2" d="M696.3,486.3L696.3,486.3l-0.1,0.1c-17.5-24.7-46.4-40.9-79-40.9c-33.2,0-62.4,16.7-79.8,42.2l-0.1,0l-0.1-0.1
		c-124.7,186-307.5,329.7-522.3,405.3c66.4-7.2,137.2-22.3,196.9-52.1C360.3,766.1,488.5,657.1,586,524.2h0.1
		c7.1-9.3,18.4-15.4,31-15.4c12.7,0,23.9,6,31,15.4h0.1c190.5,259.4,497.6,427.8,844,427.8c12.5,0,24.9-0.3,37.2-0.7
		C1182,939.1,877.5,757.4,696.3,486.3z"/>
</g>
</svg>
