<svg width="100%" height="auto">
  <defs>
    <clipPath className="myClip" id="myClip" clipPathUnits="objectBoundingBox">
      <path d="M372.2,87.8a127.51,127.51,0,0,0-42.09-40q-26-15.48-64-15.5a181.38,181.38,0,0,0-59.05,10.23,259.54,259.54,0,0,0-57.58,28.36,317.76,317.76,0,0,0-52.32,43A293.14,293.14,0,0,0,26.42,230.44,214.57,214.57,0,0,0,15.89,296.5q0,40.92,9.94,72.2T53.31,421A114,114,0,0,0,95.4,452.88q24.55,10.81,53.78,10.81a199.59,199.59,0,0,0,64-10.52,250.68,250.68,0,0,0,59.34-29.23,307.49,307.49,0,0,0,52-43.84A303.75,303.75,0,0,0,365.77,326a272.81,272.81,0,0,0,26.89-60.8,217.91,217.91,0,0,0,9.65-63.42,260.77,260.77,0,0,0-7-59.34A168.85,168.85,0,0,0,372.2,87.8ZM350,191a565.33,565.33,0,0,1-16.37,68.11,489.13,489.13,0,0,1-27.77,70.73A330.66,330.66,0,0,1,266.39,393a200.34,200.34,0,0,1-50.86,45.59q-28.36,17.55-62.84,17.54-27.49,0-45.31-7.6T79,428.32A71.2,71.2,0,0,1,64.41,398.8a148.82,148.82,0,0,1-4.09-35.07q0-25.12,6.14-59.05a532.51,532.51,0,0,1,17.83-69.86,501.51,501.51,0,0,1,29.23-70.73,329.17,329.17,0,0,1,40.34-62.26q22.8-27.47,50.56-44.43a114,114,0,0,1,60.51-16.95q47.35,0,69,25.14t21.63,70.73Q355.54,158.55,350,191Z"/>
      <path d="M618.61,382.43,682.33,205.3H641.41L631.47,234H630.3q0-16.37-12.28-26.31t-29.81-9.94q-15.21,0-34.79,7.6a207.51,207.51,0,0,0-39.75,21,321.06,321.06,0,0,0-39.75,31.57,244.36,244.36,0,0,0-34.49,39.46,221.68,221.68,0,0,0-24.26,44.72,125,125,0,0,0-9.35,46.76q0,19.31,5,33.33t13.74,23.09a55.44,55.44,0,0,0,20.17,13.44,65.26,65.26,0,0,0,23.68,4.39,88.64,88.64,0,0,0,35.07-6.73,128.91,128.91,0,0,0,28.94-16.95,171.1,171.1,0,0,0,23.68-22.21q10.52-12,18.7-21.92h1.17a110.48,110.48,0,0,0-4.68,18.41A101.12,101.12,0,0,0,569.5,428q0,35.09,38.58,35.08,16.36,0,28.65-6.73a99.17,99.17,0,0,0,21.63-15.78,90.52,90.52,0,0,0,15.2-19q5.84-9.93,8.77-16.37l-7.6-4.09q-1.76,3.51-6.14,12a105.08,105.08,0,0,1-11.11,16.95,80.09,80.09,0,0,1-16.07,15.2,35.25,35.25,0,0,1-21,6.72q-14.61,0-14.61-15.2a97.1,97.1,0,0,1,3.8-25.14Q613.33,397.64,618.61,382.43ZM583,367.82Q580,376,569.5,390.62a239.49,239.49,0,0,1-25.14,29.23A166.67,166.67,0,0,1,512.21,445q-17.54,10.51-34.49,10.52t-24.26-11.69q-7.32-11.69-7.31-30.4,0-16.37,5.26-38a301.29,301.29,0,0,1,14.91-44.72,357.64,357.64,0,0,1,23.09-45.6,244.48,244.48,0,0,1,29.52-40,150.25,150.25,0,0,1,34.49-28.36q18.42-10.8,37.71-10.81,10.53,0,17,3.8a33.31,33.31,0,0,1,10.23,9.06,32,32,0,0,1,5.27,11.4,50.18,50.18,0,0,1,1.46,11.4,56.1,56.1,0,0,1-2,13.74q-2.06,7.89-9.06,26.59Z"/>
      <path d="M1587.84,94.82a27,27,0,0,0,27.48-27.48,27.48,27.48,0,1,0-55,0,27,27,0,0,0,27.48,27.48Z"/>
      <path d="M1687.22,416.92a112.31,112.31,0,0,1-12.86,17.25,100.66,100.66,0,0,1-16.66,14.91q-9.08,6.44-18.42,6.43-8.19,0-12.27-5a18.24,18.24,0,0,1-4.09-12,56.18,56.18,0,0,1,2.92-17.24q2.92-9.06,5.84-17.83L1770.82,11.8h-93L1675.53,20h52L1597.2,384.77q-3.51,9.94-7,21.92a78.64,78.64,0,0,0-3.51,21.93q0,18.7,11.4,26.6t30.69,7.89q17.55,0,30.4-7a81.7,81.7,0,0,0,21.63-16.66,90.92,90.92,0,0,0,13.74-19.29q5-9.64,7.31-14.32l-7-2.93A137.69,137.69,0,0,1,1687.22,416.92Z"/>
      <path d="M1553.94,416.92a113,113,0,0,1-12.86,17.25,101.13,101.13,0,0,1-16.67,14.91q-9.06,6.44-18.41,6.43-8.19,0-12.28-5a18.24,18.24,0,0,1-4.09-12,56.18,56.18,0,0,1,2.92-17.24q2.92-9.06,5.85-17.83l69-198.18h-93l-2.34,8.19h52l-60.21,171.28q-3.51,9.94-7,21.92a79,79,0,0,0-3.5,21.93q0,18.7,11.4,26.6t30.69,7.89q17.54,0,30.4-7a82,82,0,0,0,21.63-16.66,90.85,90.85,0,0,0,13.73-19.29q5-9.64,7.31-14.32l-7-2.93A141.82,141.82,0,0,1,1553.94,416.92Z"/>
      <path d="M1820.51,416.92a113,113,0,0,1-12.86,17.25A101.07,101.07,0,0,1,1791,449.08q-9.08,6.44-18.42,6.43-8.19,0-12.28-5a18.23,18.23,0,0,1-4.08-12,55.88,55.88,0,0,1,2.92-17.24q2.91-9.06,5.84-17.83L1904.11,11.8h-92.95L1808.82,20h52L1730.48,384.77q-3.51,9.94-7,21.92a78.64,78.64,0,0,0-3.51,21.93q0,18.7,11.4,26.6t30.69,7.89q17.54,0,30.4-7a81.86,81.86,0,0,0,21.63-16.66,90.92,90.92,0,0,0,13.74-19.29q5-9.64,7.3-14.32l-7-2.93A137.69,137.69,0,0,1,1820.51,416.92Z"/>
      <path d="M954.16,399.39q-1.77,4.68-5.85,13.44a134.38,134.38,0,0,1-9.94,17.54,76.77,76.77,0,0,1-13.15,15.2Q917.9,452,909.72,452q-9.35,0-13.44-9.06a97.16,97.16,0,0,1-6.43-20.17L874.65,345q-2.92-15.78-8.77-24.55A49.75,49.75,0,0,0,853.31,307a37.47,37.47,0,0,0-14-6.14q-7.31-1.44-13.74-2.63V296.5q7-2.33,17.84-11.4A158.15,158.15,0,0,0,865.29,262l14.62-17.54q11.1-13.44,19-21.34t14.91-7.89q9.34,0,9.35,7c0,3.9-.79,6.92-2.34,9.06s-2.34,5.75-2.34,10.81q0,15.78,21,15.79a23.3,23.3,0,0,0,17.54-7.31q7-7.31,7-20.75,0-17.55-8.48-24.85t-21.33-7.31q-31,0-63.72,43.85a222.32,222.32,0,0,1-32.15,36.24q-17.55,15.79-38,15.79H788.13L888.68,11.8H795.14L792.81,20h52l-155.5,436.1h40.34l55-154.33h12.86c7,0,12.66,1.27,17,3.8a28.81,28.81,0,0,1,10.23,10.23,54.44,54.44,0,0,1,5.84,14.91c1.36,5.65,2.64,11.6,3.8,17.83L850.1,421.6q5.83,25.74,16.36,33.62t26.9,7.89q15.2,0,26.3-6.14A74.09,74.09,0,0,0,939,441.77a92.63,92.63,0,0,0,13.74-19.88q5.55-10.8,9.65-20.16Z"/>
      <polygon points="1459.82 48.05 1520.04 48.05 1522.38 39.86 1342.32 39.86 1339.98 48.05 1407.21 48.05 1338.23 239.21 1149.99 239.21 1218.39 48.05 1279.18 48.05 1281.52 39.86 1100.88 39.86 1098.55 48.05 1165.19 48.05 1021.97 447.91 962.34 447.91 960 456.09 1139.47 456.09 1141.81 447.91 1074.58 447.91 1147.07 247.39 1335.31 247.39 1262.82 447.91 1202.02 447.91 1199.68 456.09 1380.9 456.09 1383.24 447.91 1316.01 447.91 1459.82 48.05"/>
    </clipPath>
  </defs>
</svg>
